<svg width="236" height="254" viewBox="0 0 236 254" fill="none" xmlns="http://www.w3.org/2000/svg">
<g clip-path="url(#clip0_1763_24418)">
<mask id="mask0_1763_24418" style="mask-type:luminance" maskUnits="userSpaceOnUse" x="14" y="24" width="208" height="227">
<path d="M117.68 24.1543L14.6169 91.5303L118.568 250.542L221.632 183.166L117.68 24.1543Z" fill="white"/>
</mask>
<g mask="url(#mask0_1763_24418)">
<path d="M63.5271 157.561C64.4716 157.997 65.4658 158.077 65.4658 158.077C66.5198 158.275 67.4927 158.315 68.3665 158.274C69.5263 158.228 70.502 159.084 70.7172 160.229C70.8753 161.087 71.2001 161.914 71.8416 162.565C75.1823 165.9 84.3237 161.47 86.1925 160.566C91.9791 157.76 93.0116 155.342 99.4711 151.661C101.91 150.272 104.188 149.236 106.119 148.461C107.369 147.97 108.69 148.964 108.579 150.306C108.355 153.023 109.256 155.846 111.643 156.814C113.266 157.476 115.094 157.141 116.811 156.858C120.333 156.285 123.893 155.958 127.463 155.865C129.762 155.816 132.27 155.944 133.978 157.476C135.432 158.783 135.954 160.842 135.948 162.821C135.951 162.997 135.943 163.156 135.935 163.325C135.845 165.313 135.319 167.28 134.415 169.048C132 173.773 127.207 176.687 122.852 179.712C118.486 182.731 114.059 186.536 113.122 191.759C112.64 194.475 113.349 197.281 114.839 199.588C115.731 200.978 116.919 202.193 118.292 203.096C120.015 204.238 120.449 206.538 119.459 208.356C118.87 209.433 118.548 210.591 118.736 211.816C119.181 214.665 122.164 216.05 123.631 216.763C126.948 218.363 130.797 218.624 136.696 217.372C144.393 215.759 146.607 213.482 159.436 209.139C162.633 208.051 165.437 207.201 168.932 207.767C174.271 208.63 177.215 212.192 177.474 211.875C177.842 211.43 172.416 203.632 165.57 203.767C162.643 203.828 159.478 205.344 158.507 205.801C156.939 206.555 154.951 207.745 151.92 208.726C151.756 208.781 151.588 208.83 151.414 208.881C150.575 209.134 150.103 209.232 149.874 209.28C147.198 209.812 144.753 209.487 143.872 209.182C139.993 207.848 138.231 203.831 138.299 199.632C138.342 197.051 139.065 194.403 140.408 192.267C143.932 186.657 150.01 183.242 154.774 178.639C159.713 173.883 163.353 166.173 159.501 160.323C158.962 159.51 158.428 158.682 158.059 157.778C157.536 156.48 157.552 154.47 162.753 148.727C165.179 146.054 168.007 142.941 172.882 139.629C176.806 136.97 177.965 136.96 179.841 134.664C180.254 134.153 181.027 133.193 181.702 131.865L181.706 131.862C182.439 130.401 183.041 128.5 182.873 126.327C182.802 125.435 182.632 123.346 181.056 121.495C180.844 121.251 180.209 120.506 179.302 119.875C178.451 119.274 177.358 118.765 176.139 118.856C173.845 119.026 173.153 121.156 171.659 120.797C170.021 120.409 170.233 117.723 168.492 117.116C166.752 116.513 165.787 118.925 163.54 119.039C159.951 119.229 159.179 113.251 152.917 110.34C152.423 110.116 149.781 108.921 146.236 108.944C145.93 108.945 145.635 108.954 145.349 108.977L145.345 108.98C143.314 109.12 141.637 109.691 138.952 110.653C134.439 112.262 132.185 113.076 128.851 114.385C124.149 116.242 121.083 117.458 118.446 118.259L118.443 118.262C117.269 118.61 116.189 118.876 115.087 119.09C112.626 119.558 109.17 119.943 104.829 119.522C99.9637 119.049 94.3904 114.965 92.7261 110.372C91.7056 107.58 91.5879 104.562 92.3572 101.679C94.3166 94.3205 101.339 91.2537 106.435 86.4532C108.211 84.7666 109.777 82.8508 111.068 80.7647C112.115 79.0812 112.989 77.2207 113.101 75.2486C113.145 74.5959 113.03 71.6364 110.728 70.1069C109.186 69.0791 107.1 69.0032 105.196 69.829C104.601 70.0899 103.931 69.6931 103.88 69.0371C103.733 67.168 103.345 65.2765 102.679 63.547C101.537 60.523 99.4564 58.014 96.8491 56.1311C93.5363 53.7133 89.3994 52.3076 85.2876 52.1251C77.948 51.8062 70.8034 54.8077 64.7142 58.917C60.0574 62.0489 55.7445 66.004 53.4109 71.1115C51.2757 75.7774 51.07 81.5406 53.6377 85.9204C53.8805 86.3254 53.5215 86.831 53.0585 86.7506C49.8635 86.2041 46.4712 87.4695 43.7714 89.363C43.111 89.8303 42.4544 90.3663 42.0902 91.086C41.6757 91.9043 41.6956 92.8682 41.7598 93.7785C42.4066 102.654 47.211 111.129 54.4505 116.289C54.9484 116.653 54.8546 117.409 54.2941 117.644C53.2559 118.082 52.2841 118.63 51.5574 119.469C50.5054 120.668 50.1648 122.65 51.2334 123.845C51.6152 124.266 52.1523 124.585 52.3533 125.119C52.648 125.909 52.0541 126.738 51.5627 127.417C49.1106 130.791 48.2387 135.066 48.6991 139.236C48.9312 141.265 49.4856 143.256 50.3253 145.102C52.906 150.724 57.9198 154.998 63.5518 157.569L63.5271 157.561Z" fill="white"/>
</g>
<mask id="mask1_1763_24418" style="mask-type:luminance" maskUnits="userSpaceOnUse" x="111" y="174" width="67" height="66">
<path d="M153.485 174.295L111.278 201.887L135.744 239.313L177.951 211.721L153.485 174.295Z" fill="white"/>
</mask>
<g mask="url(#mask1_1763_24418)">
<path d="M123.629 216.754C126.947 218.356 130.797 218.616 136.695 217.366C144.391 215.752 146.605 213.476 159.435 209.133C162.631 208.045 165.435 207.194 168.931 207.76C174.27 208.624 177.216 212.184 177.472 211.869C177.84 211.423 172.414 203.625 165.569 203.76C162.642 203.821 159.479 205.336 158.506 205.794C157.199 206.424 155.598 207.353 153.348 208.214C152.401 208.573 151.505 209.066 150.677 209.659C144.648 213.948 136.815 215.741 129.604 214.066C127.923 213.671 126.202 213.056 125.014 211.796C123.83 210.537 123.345 208.49 124.297 207.044C125.217 205.66 127.09 205.24 128.27 204.063C128.583 203.735 122.083 200.887 121.499 200.721C119.939 200.269 117.033 199.21 115.126 199.524C114.986 199.545 114.916 199.719 114.998 199.835C115.867 201.119 116.994 202.249 118.283 203.094C120.007 204.236 120.438 206.537 119.45 208.354C118.859 209.433 118.539 210.589 118.727 211.815C119.172 214.663 122.155 216.049 123.621 216.759L123.629 216.754Z" fill="white"/>
</g>
<path d="M138.292 199.624C138.334 197.043 139.057 194.395 140.4 192.259C143.924 186.649 150.002 183.234 154.767 178.631C159.704 173.873 163.345 166.165 159.492 160.313C158.954 159.502 158.421 158.674 158.051 157.769C157.527 156.47 157.543 154.46 162.746 148.718C165.17 146.044 167.998 142.931 172.874 139.62C176.798 136.962 177.957 136.952 179.832 134.654C180.245 134.143 181.019 133.185 181.693 131.855L181.371 132.065C177.62 134.573 174.549 136.331 170.951 138.407C159.704 144.873 157.943 144.801 154.384 148.515C153.077 149.881 151.473 152.27 148.26 157.053C145.543 161.106 144.617 162.858 145.295 163.878C145.96 164.896 147.979 164.887 149.044 164.716C151.305 164.366 151.83 162.972 153.121 163.192C154.777 163.473 155.65 165.474 155.334 167.125C155.021 168.772 153.873 170.122 152.769 171.385C149.289 175.354 145.818 179.328 142.339 183.296C140.43 185.474 139.536 186.642 139.044 187.64C137 191.759 136.727 197.489 138.292 199.624Z" fill="white"/>
<path d="M63.5239 157.561C64.4684 157.997 65.4625 158.078 65.4625 158.078C66.5166 158.275 67.4895 158.315 68.3633 158.275C69.5231 158.228 70.4988 159.084 70.714 160.23C70.8721 161.087 71.1969 161.914 71.8384 162.565C75.1791 165.9 84.3205 161.47 86.1893 160.566C91.9759 157.76 93.0084 155.342 99.4679 151.661C101.907 150.272 104.185 149.237 106.116 148.461C107.366 147.97 108.687 148.965 108.576 150.306C108.351 153.023 109.253 155.846 111.64 156.814C113.263 157.476 115.091 157.141 116.808 156.858C120.33 156.285 123.89 155.959 127.46 155.866C129.759 155.816 132.267 155.944 133.975 157.476C135.429 158.783 135.951 160.842 135.945 162.821C136.159 162.098 136.278 161.351 136.288 160.591C136.319 158.027 134.979 155.413 132.724 154.195C130.815 153.166 128.517 153.196 126.348 153.399C124.186 153.595 121.982 153.941 119.865 153.448C117.746 152.964 115.696 151.387 115.445 149.228C115.135 146.555 117.531 144.406 119.762 142.901C122.368 141.137 125.096 139.537 127.905 138.116C128.208 137.968 128.061 137.517 127.727 137.568C119.072 138.974 110.708 142.208 103.367 147.002C99.4085 149.582 95.7393 152.604 91.6173 154.905C87.4919 157.221 82.7634 158.799 78.0809 158.15C77.3177 158.041 76.3975 157.726 76.2474 156.965C76.0923 156.196 76.8273 155.563 77.4697 155.126C79.1464 153.97 80.825 152.821 82.5036 151.671C82.7656 151.494 82.5723 151.09 82.2685 151.182C78.1204 152.501 73.5757 152.56 69.3998 151.325C65.0895 150.052 61.287 147.484 57.5712 144.96C56.4483 143.242 51.1478 140.044 49.1686 139.373C49.0014 139.318 48.8436 139.274 48.6819 139.24C48.907 141.263 49.464 143.257 50.3019 145.096C52.8838 150.72 57.8976 154.994 63.5264 157.565L63.5239 157.561Z" fill="white"/>
<path d="M161.127 127.349C161.622 127.981 162.542 128.127 163.158 127.617C164.359 126.621 165.984 126.118 167.541 126.328C168.843 126.511 170.155 127.132 171.41 126.762C172.43 126.46 173.147 125.586 173.845 124.782C175.446 122.936 177.289 121.28 179.29 119.876C178.438 119.275 177.347 118.766 176.128 118.856C173.832 119.028 173.142 121.156 171.648 120.797C170.01 120.41 170.222 117.724 168.481 117.116C166.739 116.511 165.773 118.927 163.529 119.04C159.939 119.228 159.168 113.252 152.904 110.342C152.41 110.117 149.77 108.921 146.223 108.946C145.919 108.945 145.624 108.955 145.338 108.978C149.592 111.396 153.31 113.663 156.044 118.151C152.457 119.021 148.499 120.18 146.308 122.994C146.059 123.316 146.396 123.777 146.77 123.62C151.648 121.572 157.868 123.217 161.13 127.362L161.127 127.349Z" fill="white"/>
<path d="M85.0699 107.506C87.5484 109.238 88.5398 112.366 89.5159 115.228C90.4944 118.093 91.8572 121.178 94.6255 122.403C97.5008 123.67 101.438 122.724 103.753 124.506C104.281 124.913 104.355 125.7 103.915 126.198C101.747 128.688 97.0283 128.448 94.5929 130.888C94.4494 131.029 94.5647 131.276 94.765 131.252C102.422 130.269 109.743 126.829 115.39 121.567C116.488 120.543 117.53 119.445 118.427 118.251C117.255 118.602 116.175 118.867 115.073 119.081C112.629 119.549 109.199 119.928 104.889 119.522C100.015 119.061 94.4089 114.998 92.7185 110.403C91.6886 107.601 91.5628 104.566 92.3379 101.671C94.2966 94.3156 101.321 91.2476 106.415 86.4451C108.193 84.7605 109.758 82.8427 111.049 80.7586C112.096 79.0731 112.971 77.2146 113.082 75.2405C113.127 74.5898 113.01 71.6316 110.708 70.0989C109.168 69.073 107.079 68.9964 105.178 69.8229C104.578 70.0843 103.915 69.6826 103.862 69.036C103.718 67.1658 103.328 65.2723 102.667 63.5403C101.525 60.5182 99.4434 58.0073 96.8361 56.1244C97.9315 61.4667 98.0792 67.0044 97.2563 72.3886C97.2043 72.7235 97.5315 73.0104 97.8484 72.8799C99.3729 72.2526 101.254 72.4811 102.556 73.5182C104.073 74.7325 104.673 76.9563 103.987 78.7701C103.659 79.6547 103.063 80.4167 102.436 81.1245C97.0942 87.1343 88.4925 90.0458 80.6013 88.5523C80.3723 88.5077 80.1891 88.7506 80.3061 88.9505C81.1984 90.4578 83.7287 90.3853 85.5327 91.0393C86.1166 91.246 86.7137 91.6027 86.594 92.5456C86.5323 93.0456 86.2805 93.4976 85.9536 93.8891C83.4814 96.8215 80.7977 100.875 79.5558 102.847C76.7677 107.28 77.0888 112.116 77.5303 112.251C77.8744 112.355 78.863 109.727 81.2723 107.712C81.673 107.379 82.3278 106.899 83.2062 106.853C83.8799 106.82 84.5283 107.129 85.0724 107.51L85.0699 107.506Z" fill="white"/>
<path d="M119.585 175.03C119.011 174.576 119.993 173.261 119.32 172.16C118.669 171.092 116.935 170.997 115.468 170.922C112.607 170.769 111.881 171.63 110.895 171.046C109.408 170.171 109.067 167.066 110.12 164.931C111.694 161.737 116.207 161.663 117.637 161.628C118.722 161.6 120.126 161.588 121.579 162.45C123.333 163.498 124.022 165.146 124.248 165.718C125.328 168.411 124.72 171.73 122.802 173.644C121.755 174.687 120.158 175.476 119.589 175.028L119.585 175.03Z" fill="white"/>
<path d="M108.755 93.4218C108.946 94.1668 110.218 94.1483 111.278 94.8154C114.875 97.0662 112.033 105.196 114.205 106.146C115.748 106.82 118.895 103.479 120.246 100.585C120.706 99.6026 121.281 98.3214 121.074 96.6449C120.819 94.6174 119.585 93.3249 119.152 92.8884C117.118 90.8194 113.834 90.044 111.313 91.0321C109.936 91.5742 108.571 92.7181 108.755 93.4218Z" fill="white"/>
</g>
<defs>
<clipPath id="clip0_1763_24418">
<rect width="146" height="207.566" fill="white" transform="matrix(-0.837013 0.547183 0.547183 0.837013 122.204 0)"/>
</clipPath>
</defs>
</svg>
