<svg width="140" height="152" viewBox="0 0 140 152" fill="none" xmlns="http://www.w3.org/2000/svg">
<mask id="mask0_1763_24476" style="mask-type:luminance" maskUnits="userSpaceOnUse" x="0" y="17" width="97" height="135">
<path d="M0 37.3613L50.4091 17.185L96.1308 131.417L45.7217 151.594L0 37.3613Z" fill="white"/>
</mask>
<g mask="url(#mask0_1763_24476)">
<path d="M55.9066 44.1572C55.9066 44.1572 60.2781 42.0927 58.625 37.9624C56.3856 38.8587 35.792 47.1014 35.792 47.1014C35.792 47.1014 38.5846 45.0841 38.3941 43.3627C38.2051 41.6408 33.7947 40.1113 34.9495 36.2536C36.1042 32.396 37.019 25.9388 33.1778 24.0824C31.3667 24.8073 25.1927 27.2785 25.1927 27.2785C25.1927 27.2785 19.0186 29.7497 17.2089 30.474C15.7093 34.4681 20.8267 38.5108 24.3229 40.507C27.8217 42.502 25.6834 46.6526 26.7346 48.0295C27.7858 49.4063 31.1976 48.9403 31.1976 48.9403C31.1976 48.9403 10.6054 57.1824 8.36467 58.0792C10.0178 62.2095 14.6065 60.6877 14.6065 60.6877L31.932 53.7531L33.5587 55.2304L33.3853 56.0907L34.7287 59.447L34.7863 60.8844L39.3196 72.2106L40.6054 72.7602L43.4492 79.8653L42.7745 80.9902L38.0596 78.1125L37.6019 78.8614L34.7229 77.1056L35.5432 75.7658L34.6759 75.2357L31.7352 80.0447L32.602 80.5734L33.4223 79.2336L36.2999 80.9899L35.8423 81.7387L40.5889 84.6356L39.7069 86.1088L43.3164 95.1268L44.3135 94.7277L49.7702 108.361C49.7702 108.361 46.2634 112.989 50.2199 116.638C48.8134 119.208 48.7605 120.142 49.863 121.83C49.0327 122.954 48.6756 125.103 49.6616 126.96C48.1922 129.069 41.6134 136.562 45.0626 140.421C50.9089 146.963 59.1034 146.238 70.9144 141.511C82.7255 136.783 89.1585 131.654 88.8761 122.884C88.7103 117.711 78.7775 116.828 76.2585 116.315C75.6912 114.29 73.9494 112.981 72.5747 112.74C72.2076 110.757 71.5252 110.118 68.7326 109.229C69.0799 103.857 63.3483 102.926 63.3483 102.926L57.8916 89.2931L58.8887 88.894L55.2792 79.8759L53.6243 79.4182L55.0614 74.0462L54.2135 73.82L55.0846 70.5632L56.6014 70.9676L56.8654 69.9863L51.4188 68.5344L51.1554 69.517L52.6736 69.9208L51.8024 73.1776L50.9545 72.9513L49.5257 78.288L48.2612 77.9393L45.4174 70.8342L45.9689 69.5493L41.4355 58.223L40.4854 57.1428L39.1421 53.7865L38.423 53.2834L38.5812 51.0918L55.9066 44.1572Z" fill="white"/>
</g>
<path d="M104.775 70.8492L103.237 71.2446L99.6408 57.2342C99.5937 57.0486 99.5303 56.8662 99.4536 56.6908L98.0825 53.5885L96.029 54.1148L96.3143 57.4584C96.3303 57.6501 96.3629 57.8432 96.4106 58.0302L100.015 72.0725L98.9554 72.3447C98.3092 72.5106 97.9198 73.1666 98.0866 73.8109C98.2521 74.4557 98.9094 74.8445 99.5543 74.6791L101.21 74.2529C108.515 102.468 103.007 110.337 101.097 112.1C99.7208 113.372 98.0438 113.701 96.2468 113.056C92.7946 111.812 88.8219 106.908 87.7358 98.7579C83.2155 64.8567 74.4101 56.9612 67.8193 56.3076C60.9573 55.6268 55.3872 62.5251 53.6239 67.641L55.6193 68.3267C57.1116 63.9952 61.9558 57.846 67.6082 58.407C72.3833 58.8798 81.0775 64.7889 85.6443 99.0374C86.6867 106.856 90.6598 113.285 95.5307 115.039C97.2145 115.645 98.869 115.635 100.366 115.036C101.135 114.728 101.863 114.264 102.529 113.649C105.254 111.135 110.638 102.26 103.255 73.7285L105.376 73.1832C106.021 73.0177 106.409 72.3604 106.244 71.7155C106.078 71.0707 105.422 70.6833 104.775 70.8492Z" fill="white"/>
<mask id="mask1_1763_24476" style="mask-type:luminance" maskUnits="userSpaceOnUse" x="75" y="4" width="36" height="48">
<path d="M75.1055 12.4531L95.122 4.44146L110.645 43.224L90.6283 51.2357L75.1055 12.4531Z" fill="white"/>
</mask>
<g mask="url(#mask1_1763_24476)">
<path d="M99.8286 16.3836C98.7073 13.5824 96.1027 11.8175 93.2777 11.6299C91.8171 8.81911 88.4327 7.52129 85.429 8.72353C82.2297 10.0041 80.6747 13.632 81.953 16.8258C82.4827 18.1493 83.4184 19.1857 84.556 19.8601C81.8271 22.1603 80.7407 26.0289 82.1381 29.5202C83.1645 32.0846 85.302 33.8719 87.7769 34.5542C87.7979 34.6146 87.8155 34.6746 87.8384 34.7358C87.0704 35.9587 86.8724 37.516 87.4495 38.9579C87.9048 40.0955 88.7598 40.9501 89.7871 41.4369C89.3165 42.2133 89.2005 43.1929 89.5632 44.0991C90.099 45.4378 91.4917 46.1746 92.8577 45.9346C92.8629 46.2153 92.9165 46.5007 93.0273 46.7775C93.5206 48.0102 94.6837 49.5308 95.9177 49.0369C97.153 48.5424 97.9911 46.2208 97.4977 44.9882C97.3831 44.7018 97.2174 44.4517 97.0174 44.2393C97.0708 44.2211 97.124 44.2063 97.1763 44.1853C99.1086 43.4119 100.048 41.2193 99.2754 39.2898C98.8923 38.3326 98.1619 37.6215 97.2869 37.2399C99.3135 35.6123 100.135 32.7974 99.1198 30.2619C98.8899 29.6876 98.5802 29.1692 98.2115 28.7112C98.6114 27.3352 98.6676 25.8506 98.3207 24.3932C100.271 22.3072 100.959 19.207 99.8286 16.3836Z" fill="white"/>
</g>
</svg>
