<svg width="75" height="75" viewBox="0 0 75 75" fill="none" xmlns="http://www.w3.org/2000/svg">
<path d="M69.9535 16.2106C68.4277 17.7786 65.9105 17.8155 64.3408 16.2897C63.4637 15.4371 63.0347 14.2471 63.1631 13.0254C63.2017 12.651 63.0681 12.2784 62.7974 12.0147C62.5654 11.7897 62.2578 11.6666 61.9396 11.6666C61.8851 11.6666 61.8306 11.6702 61.7762 11.6772C60.5597 11.8407 59.3574 11.4452 58.482 10.5926C56.9123 9.06683 56.8771 6.54965 58.4029 4.97992C60.1537 3.17816 63.483 2.33441 68.2994 2.47504C68.324 2.4768 68.3469 2.47855 68.3732 2.48031C68.4084 2.48207 68.4435 2.48558 68.4787 2.4891L68.5543 2.49437C68.6263 2.5014 68.7002 2.50668 68.7705 2.51723C68.8232 2.52426 68.8742 2.5348 68.9269 2.54359L68.9515 2.54887C69.0219 2.56117 69.0922 2.57523 69.1625 2.59281C69.2187 2.60687 69.275 2.62269 69.3312 2.64027C69.4033 2.65961 69.4736 2.68246 69.5439 2.70707C69.5949 2.7264 69.6459 2.74574 69.6951 2.76508C69.7689 2.79496 69.8392 2.8266 69.9096 2.86L69.9377 2.87406C69.9746 2.88988 70.0097 2.90746 70.0467 2.92504C70.1205 2.96371 70.1908 3.00765 70.2611 3.04984L70.3226 3.08676C70.342 3.0973 70.3596 3.10785 70.3771 3.1184C70.4545 3.16937 70.5336 3.22914 70.6021 3.28012C70.6267 3.29769 70.6513 3.31527 70.6742 3.33285L70.69 3.3434C70.7955 3.42777 70.8869 3.50863 70.9713 3.58949C70.9765 3.59476 70.9836 3.6018 70.9889 3.60707C71.0732 3.68969 71.1558 3.77758 71.2367 3.87426L71.2525 3.89535C71.2701 3.9182 71.2894 3.94281 71.307 3.96566C71.3615 4.03246 71.4248 4.11156 71.4758 4.18539C71.4881 4.20297 71.4986 4.2223 71.5109 4.23988L71.5478 4.29965C71.5935 4.36996 71.6375 4.44027 71.6797 4.5141C71.6972 4.5475 71.7148 4.58265 71.7324 4.61605L71.7482 4.64594C71.7834 4.71625 71.8168 4.78656 71.8502 4.86039C71.8713 4.90961 71.8906 4.95883 71.9099 5.00805C71.9381 5.07836 71.9627 5.14867 71.9855 5.22074C72.0031 5.27523 72.0207 5.32972 72.0365 5.38597C72.0558 5.45629 72.0717 5.5266 72.0875 5.59867L72.091 5.61625C72.1015 5.66898 72.1138 5.72172 72.1226 5.77445C72.1349 5.84476 72.142 5.91683 72.1508 5.99769L72.1595 6.06801C72.1648 6.10316 72.1683 6.13832 72.1701 6.16996C72.1719 6.19457 72.1754 6.21918 72.1771 6.24554C72.4531 11.0567 71.7043 14.4088 69.9535 16.2106Z" fill="#F57070"/>
<path d="M44.3729 28.66L41.251 31.7818C41.0629 31.6236 40.8713 31.4707 40.6762 31.323C31.0874 24.1441 18.3819 21.2121 13.5989 20.11L13.0575 19.9852C10.8637 19.4719 9.37838 18.1096 8.84752 17.3854C7.08092 14.9736 6.91393 11.5389 8.43268 8.83887C8.75787 8.26055 8.56451 7.53281 8.00377 7.18828C7.98971 7.18125 7.9774 7.1707 7.96334 7.16367C7.95103 7.15664 7.93697 7.14961 7.92467 7.14434C7.89654 7.13027 7.86842 7.11797 7.84205 7.10566C7.84732 7.09863 7.8526 7.0916 7.85963 7.08457C8.08639 6.83144 8.35006 6.56074 8.62252 6.30234L8.63307 6.2918C8.64889 6.31641 8.66295 6.34277 8.68228 6.36562C8.69986 6.38848 8.72096 6.40957 8.74029 6.43242C8.96353 6.675 9.28521 6.82969 9.64381 6.82969C10.3223 6.82969 10.8743 6.27949 10.8743 5.59922C10.8743 5.3584 10.8022 5.13516 10.6827 4.94531C10.6669 4.9207 10.6528 4.89433 10.6352 4.87148C10.6176 4.84687 10.5983 4.82578 10.579 4.80293C10.5825 4.80117 10.586 4.79766 10.5913 4.7959C10.9411 4.59023 11.2909 4.42148 11.6284 4.29141C11.6337 4.28965 11.6389 4.28789 11.646 4.28613C11.6495 4.31426 11.653 4.34238 11.66 4.37051C11.66 4.37226 11.66 4.37227 11.66 4.37402C11.6671 4.40391 11.6758 4.43027 11.6846 4.4584C11.8727 5.07012 12.502 5.44102 13.1331 5.29688C13.8274 5.13867 14.5411 5.08418 15.253 5.13516C17.4713 5.29336 19.521 6.42363 20.8868 8.24648L20.9922 8.3959C22.2825 10.4244 22.4881 12.6621 21.611 15.051C19.8567 16.1549 18.287 15.4518 17.4854 14.9104C16.3622 14.1527 15.9192 13.1701 15.9631 12.8836C16.3797 12.365 16.3112 11.6092 15.8032 11.175C15.2846 10.7338 14.5077 10.7971 14.0682 11.3139C13.0786 12.474 13.4108 14.3215 14.8909 15.9123C16.0598 17.1674 17.8124 18.0885 19.7073 18.0885C20.7251 18.0885 21.7833 17.8213 22.8133 17.199C26.1989 18.3223 32.3407 21.3193 40.2473 25.7104C41.7397 26.5383 43.1213 27.5314 44.3729 28.66Z" fill="#6E78FF"/>
<path d="M14.9037 65.641L9.7375 70.8072L9.36309 66.5287C9.31035 65.9346 8.83926 65.4617 8.24512 65.4107L3.96484 65.0363L9.13105 59.8701L14.4396 60.3342L14.9037 65.641Z" fill="#FFDE83"/>
<path d="M10.8729 5.59863C10.8729 6.27891 10.3209 6.8291 9.64238 6.8291C9.28379 6.8291 8.96211 6.67441 8.73887 6.43184C8.71953 6.40898 8.69844 6.38789 8.68086 6.36504C8.66152 6.34219 8.64746 6.31582 8.63164 6.29121C8.49277 6.09258 8.41016 5.85703 8.41016 5.59863C8.41016 4.92012 8.96035 4.36816 9.64063 4.36816H9.64238C10.0168 4.36816 10.3525 4.53867 10.5775 4.80234C10.5969 4.82519 10.6162 4.84629 10.6338 4.8709C10.6514 4.89375 10.6654 4.92012 10.6812 4.94473C10.8008 5.13457 10.8729 5.35781 10.8729 5.59863Z" fill="#48446D"/>
<path d="M68.0279 51.9368L67.9101 51.8471C67.882 51.8243 67.8503 51.8032 67.8204 51.7839L67.6992 51.7065C65.9501 50.5938 63.2079 49.5725 59.7011 50.5798C58.0558 46.0007 54.1535 38.6759 51.0298 33.1001C50.1351 31.5005 49.0646 30.0169 47.8499 28.6651L61.0142 15.5009C61.3341 16.4536 61.8808 17.329 62.6261 18.0532C63.8741 19.2678 65.4913 19.8708 67.1068 19.8708C68.7855 19.8708 70.4607 19.2204 71.7193 17.9249C73.9745 15.6046 74.9554 11.6178 74.6337 6.07194C74.632 6.0403 74.6284 6.01042 74.6249 5.98054C74.6197 5.91198 74.6126 5.84343 74.6038 5.77663L74.5968 5.71511C74.5845 5.59733 74.5704 5.47956 74.5511 5.36354C74.5353 5.27038 74.5159 5.18073 74.4913 5.07526C74.4667 4.95925 74.4404 4.84499 74.4087 4.73073C74.3841 4.63933 74.356 4.55143 74.3279 4.46354C74.2892 4.34577 74.2488 4.23151 74.2048 4.1155C74.1732 4.03464 74.1398 3.95378 74.1064 3.87644C74.0554 3.75866 73.9992 3.64265 73.9411 3.52839L73.9271 3.50026C73.8937 3.43698 73.862 3.37546 73.8286 3.31393C73.7548 3.1821 73.6775 3.05905 73.6177 2.96589L73.5931 2.92722C73.5615 2.87976 73.5316 2.83229 73.4982 2.78483C73.4033 2.64772 73.3083 2.52643 73.2275 2.42624L73.2116 2.40515C73.1818 2.36647 73.1519 2.32604 73.1202 2.28913C72.9796 2.1239 72.8408 1.97448 72.7107 1.84792C72.7036 1.84089 72.6984 1.83561 72.6931 1.83034C72.5507 1.69147 72.3978 1.55964 72.229 1.42253C72.1904 1.39265 72.1499 1.36276 72.1113 1.33464L72.0884 1.31882C71.9865 1.24147 71.8634 1.15007 71.7245 1.05866C71.6753 1.02702 71.6261 0.997138 71.5769 0.967255L71.5365 0.944403C71.438 0.884638 71.3185 0.814325 71.1849 0.744013C71.1216 0.710614 71.0583 0.680731 70.9933 0.649091L70.9652 0.636786C70.8509 0.582294 70.7349 0.531318 70.6171 0.483857C70.5363 0.450458 70.4536 0.418817 70.371 0.390692C70.2568 0.350262 70.1408 0.311591 70.0247 0.278192C69.9351 0.251825 69.8437 0.225458 69.7523 0.204364C69.638 0.176239 69.5238 0.153388 69.4077 0.130536L69.3831 0.125263C69.2952 0.109442 69.2056 0.0936217 69.1142 0.0795592C68.9982 0.0637389 68.8804 0.0531922 68.7574 0.0426453L68.7029 0.0373721C68.6343 0.0320987 68.5658 0.0268249 68.499 0.0233093C68.4673 0.0197937 68.4357 0.0180364 68.4058 0.0162785C62.8529 -0.148956 58.8943 0.944404 56.639 3.26472C54.1675 5.80651 54.2238 9.8864 56.7673 12.3579C57.4687 13.0399 58.2966 13.5391 59.1931 13.8415L46.1167 26.9178C44.7017 25.6294 43.1355 24.4991 41.4427 23.5587C35.9548 20.5089 28.7372 16.6997 24.195 15.0719C25.2005 11.5651 24.1792 8.82292 23.0683 7.07741L22.9909 6.95437C22.9716 6.92272 22.9505 6.89284 22.9277 6.86296L22.8468 6.75925C21.0626 4.37565 18.3591 2.8903 15.4288 2.67936C14.4726 2.61257 13.5181 2.68464 12.5865 2.89733C11.9519 3.04147 11.5458 3.65319 11.646 4.28601C11.6495 4.31413 11.6531 4.34226 11.6601 4.37038C11.6601 4.37214 11.6601 4.37214 11.6601 4.3739C11.6671 4.40378 11.6759 4.43015 11.6847 4.45827C11.8728 5.06999 12.5021 5.44089 13.1331 5.29675C13.8275 5.13855 14.5411 5.08405 15.2531 5.13503C17.4714 5.29323 19.521 6.42351 20.8868 8.24636L20.9923 8.39577C22.2826 10.4243 22.4882 12.662 21.6111 15.0508C19.8568 16.1548 18.287 15.4516 17.4855 14.9102C16.3622 14.1526 15.9193 13.17 15.9632 12.8835C16.3798 12.3649 16.3113 11.6091 15.8033 11.1749C15.2847 10.7337 14.5077 10.7969 14.0683 11.3137C13.0786 12.4739 13.4109 14.3214 14.891 15.9122C16.0599 17.1673 17.8124 18.0884 19.7074 18.0884C20.7251 18.0884 21.7833 17.8212 22.8134 17.1989C26.199 18.3221 32.3408 21.3192 40.2474 25.7102C41.7398 26.5382 43.1214 27.5313 44.373 28.6598L41.2511 31.7817C41.063 31.6235 40.8714 31.4706 40.6763 31.3229C31.0874 24.144 18.382 21.212 13.599 20.1098L13.0576 19.985C10.8638 19.4717 9.37845 18.1094 8.84759 17.3852C7.08099 14.9735 6.914 11.5387 8.43275 8.83874C8.75794 8.26042 8.56458 7.53268 8.00384 7.18815C7.98978 7.18112 7.97747 7.17058 7.96341 7.16354C7.95111 7.15651 7.93705 7.14948 7.92474 7.14421C7.89662 7.13015 7.86849 7.11784 7.84212 7.10554C7.27259 6.85944 6.59759 7.07917 6.28646 7.63288C4.30365 11.1591 4.53568 15.6643 6.86302 18.8407C7.27083 19.3944 7.86673 20.0061 8.62435 20.5739L16.2181 56.8165L15.1124 57.9221L8.77552 57.3684C8.41341 57.3368 8.05482 57.4669 7.79818 57.7235L0.360874 65.1608C0.0216165 65.5001 -0.0891258 66.0028 0.0743507 66.4528C0.237827 66.901 0.647398 67.2157 1.12376 67.2579L7.00365 67.7712L7.51693 73.651C7.55912 74.1274 7.87201 74.537 8.32201 74.7005C8.45912 74.7497 8.6015 74.7743 8.74212 74.7743C9.0638 74.7743 9.37845 74.6495 9.61224 74.4139L17.0513 66.9749C17.3079 66.7182 17.438 66.3614 17.4064 65.9993L16.8527 59.6624L17.9583 58.5567L54.2009 66.1505C54.7687 66.9081 55.3786 67.504 55.9341 67.91C57.6902 69.1985 59.8136 69.8278 61.9406 69.8278C64.637 69.8278 67.3388 68.8153 69.3023 66.8518C71.2745 64.8796 72.2923 62.1427 72.0937 59.346C71.8845 56.4157 70.3974 53.7122 68.0279 51.9368ZM58.4829 10.593C56.9132 9.06726 56.8781 6.55007 58.4038 4.98034C60.1546 3.17858 63.4839 2.33483 68.3003 2.47546C68.3249 2.47722 68.3478 2.47897 68.3742 2.48073C68.4093 2.48249 68.4445 2.48601 68.4796 2.48952L68.5552 2.49479C68.6273 2.50183 68.7011 2.5071 68.7714 2.51765C68.8242 2.52468 68.8751 2.53522 68.9279 2.54401L68.9525 2.54929C69.0228 2.56159 69.0931 2.57565 69.1634 2.59323C69.2197 2.60729 69.2759 2.62311 69.3322 2.64069C69.4042 2.66003 69.4745 2.68288 69.5449 2.70749C69.5958 2.72683 69.6468 2.74616 69.696 2.7655C69.7699 2.79538 69.8402 2.82702 69.9105 2.86042L69.9386 2.87448C69.9755 2.8903 70.0107 2.90788 70.0476 2.92546C70.1214 2.96413 70.1917 3.00808 70.262 3.05026L70.3236 3.08718C70.3429 3.09772 70.3605 3.10827 70.3781 3.11882C70.4554 3.16979 70.5345 3.22956 70.6031 3.28054C70.6277 3.29811 70.6523 3.31569 70.6751 3.33327L70.6909 3.34382C70.7964 3.42819 70.8878 3.50905 70.9722 3.58991C70.9775 3.59518 70.9845 3.60222 70.9898 3.60749C71.0742 3.69011 71.1568 3.778 71.2376 3.87468L71.2534 3.89577C71.271 3.91862 71.2904 3.94323 71.3079 3.96608C71.3624 4.03288 71.4257 4.11198 71.4767 4.18581C71.489 4.20339 71.4995 4.22272 71.5118 4.2403L71.5488 4.30007C71.5945 4.37038 71.6384 4.44069 71.6806 4.51452C71.6982 4.54792 71.7158 4.58308 71.7333 4.61647L71.7492 4.64636C71.7843 4.71667 71.8177 4.78698 71.8511 4.86081C71.8722 4.91003 71.8915 4.95925 71.9109 5.00847C71.939 5.07878 71.9636 5.14909 71.9865 5.22116C72.004 5.27565 72.0216 5.33015 72.0374 5.3864C72.0568 5.45671 72.0726 5.52702 72.0884 5.59909L72.0919 5.61667C72.1025 5.6694 72.1148 5.72214 72.1236 5.77487C72.1359 5.84519 72.1429 5.91726 72.1517 5.99811L72.1605 6.06843C72.1657 6.10358 72.1693 6.13874 72.171 6.17038C72.1728 6.19499 72.1763 6.2196 72.1781 6.24597C72.454 11.0571 71.7052 14.4092 69.9544 16.211C68.4286 17.779 65.9115 17.8159 64.3417 16.2901C63.4646 15.4376 63.0357 14.2475 63.164 13.0259C63.2027 12.6514 63.0691 12.2788 62.7984 12.0151C62.5663 11.7901 62.2587 11.6671 61.9406 11.6671C61.8861 11.6671 61.8316 11.6706 61.7771 11.6776C60.5607 11.8411 59.3583 11.4456 58.4829 10.593ZM9.7388 70.8069L9.36439 66.5284C9.31165 65.9342 8.84056 65.4614 8.24642 65.4104L3.96615 65.036L9.13236 59.8698L14.441 60.3339L14.905 65.6407L9.7388 70.8069ZM11.4527 22.0768C11.7902 22.1928 12.1382 22.2966 12.5021 22.3809L13.0452 22.5075C17.6911 23.578 30.0275 26.4239 39.2015 33.2934C39.3034 33.369 39.4054 33.4481 39.5038 33.529L18.2976 54.737L11.4527 22.0768ZM67.562 65.1116C64.8867 67.7887 60.4165 68.1456 57.3896 65.9255C56.6654 65.3946 55.3031 63.9093 54.7898 61.719L54.665 61.1758C53.7808 57.3438 51.7118 48.3702 47.1679 39.9591C46.855 39.3807 46.1466 39.154 45.5577 39.4335C45.5384 39.4423 45.5191 39.451 45.4997 39.4616C45.4927 39.4651 45.4874 39.4686 45.4804 39.4721C45.454 39.4862 45.4294 39.5038 45.4048 39.5196C44.8792 39.8676 44.6964 40.5655 45.0023 41.1298C49.388 49.2473 51.406 57.9942 52.2673 61.7278L52.3939 62.2762C52.4783 62.6384 52.5802 62.9846 52.698 63.3204L20.0378 56.4772L41.8329 34.6821L41.9577 34.5573L46.1079 30.4071C47.1661 31.5971 48.0978 32.9014 48.8835 34.3024C53.3818 42.3321 56.4421 48.5548 57.5742 51.9614C55.7935 54.9128 56.9343 58.0891 58.8609 59.8821C59.8417 60.7944 60.9193 61.2708 61.8738 61.2708C62.4679 61.2708 63.0146 61.0862 63.4611 60.7065C63.9779 60.2653 64.0394 59.4884 63.5982 58.9716C63.1658 58.4636 62.4081 58.395 61.8913 58.8098C61.6048 58.8555 60.6222 58.4126 59.8628 57.2893C59.3214 56.4878 58.6183 54.918 59.724 53.162C62.1128 52.2866 64.3488 52.4923 66.379 53.7825L66.539 53.8968C68.3513 55.2538 69.4798 57.3034 69.6398 59.52C69.7874 61.6065 69.0298 63.6438 67.562 65.1116Z" fill="#48446D"/>
<path d="M67.5611 65.1117C64.8857 67.7889 60.4156 68.1457 57.3887 65.9256C56.6645 65.3947 55.3022 63.9094 54.7889 61.7191L54.6641 61.176C53.7799 57.3439 51.7109 48.3703 47.167 39.9592C46.8541 39.3809 46.1457 39.1541 45.5568 39.4336C45.5375 39.4424 45.5182 39.4512 45.4988 39.4617C45.4918 39.4652 45.4865 39.4687 45.4795 39.4723C45.4531 39.4863 45.4285 39.5039 45.4039 39.5197C44.4336 37.8709 42.8902 35.9408 41.832 34.6822L41.9568 34.5574L46.107 30.4072C47.1652 31.5973 48.0969 32.9016 48.8826 34.3025C53.3809 42.3322 56.4412 48.5549 57.5732 51.9615C55.7926 54.9129 56.9334 58.0893 58.86 59.8822C59.8408 60.7945 60.9184 61.2709 61.8729 61.2709C62.467 61.2709 63.0137 61.0863 63.4602 60.7066C63.977 60.2654 64.0385 59.4885 63.5973 58.9717C63.1648 58.4637 62.4072 58.3951 61.8904 58.81C61.6039 58.8557 60.6213 58.4127 59.8619 57.2895C59.3205 56.4879 58.6174 54.9182 59.723 53.1621C62.1119 52.2867 64.3479 52.4924 66.3781 53.7826L66.5381 53.8969C68.3504 55.2539 69.4789 57.3035 69.6389 59.5201C69.7865 61.6066 69.0289 63.6439 67.5611 65.1117Z" fill="#6E78FF"/>
</svg>
