<svg width="90" height="90" viewBox="0 0 90 90" fill="none" xmlns="http://www.w3.org/2000/svg">
<g clip-path="url(#clip0_1802_11448)">
<path d="M28.8685 12.7148H26.9114C25.8621 12.7148 25.0117 13.5653 25.0117 14.6145V33.1819H30.7682V14.6147C30.7682 13.5654 29.9178 12.7148 28.8685 12.7148Z" fill="#EAA0E3"/>
<path d="M47.7357 12.7148H45.7786C44.7293 12.7148 43.8789 13.5653 43.8789 14.6145V33.1819H49.6354V14.6147C49.6354 13.5654 48.785 12.7148 47.7357 12.7148Z" fill="#EAA0E3"/>
<path d="M26.9114 12.7148C25.8621 12.7148 25.0117 13.5653 25.0117 14.6145V33.1819H26.9114V12.7148Z" fill="#D57CD4"/>
<path d="M45.7786 12.7148C44.7293 12.7148 43.8789 13.5653 43.8789 14.6145V33.1819H45.7786V12.7148Z" fill="#D57CD4"/>
<path d="M31.17 3.27902L27.891 0L24.6119 3.27902C22.8012 5.08975 22.8012 8.026 24.6119 9.83689C26.4227 11.6476 29.3589 11.6476 31.1698 9.83689C32.9807 8.02582 32.9807 5.08975 31.17 3.27902Z" fill="#F4C063"/>
<path d="M50.037 3.27902L46.7582 0L43.4791 3.27902C41.6684 5.08975 41.6684 8.026 43.4791 9.83689C45.2899 11.6476 48.2261 11.6476 50.037 9.83689C51.8481 8.02582 51.8481 5.08975 50.037 3.27902Z" fill="#F4C063"/>
<path d="M66.6068 12.7148H64.6497C63.6004 12.7148 62.75 13.5653 62.75 14.6145V33.1819H68.5065V14.6147C68.5065 13.5654 67.6561 12.7148 66.6068 12.7148Z" fill="#EAA0E3"/>
<path d="M68.9042 3.27902L65.6253 0L62.3463 3.27902C60.5356 5.08975 60.5356 8.026 62.3463 9.83689C64.157 11.6476 67.0933 11.6476 68.9042 9.83689C70.7151 8.02582 70.7151 5.08975 68.9042 3.27902Z" fill="#F4C063"/>
<path d="M64.6497 12.7148C63.6004 12.7148 62.75 13.5653 62.75 14.6145V33.1819H64.6497V12.7148Z" fill="#D57CD4"/>
<path d="M80.6568 51.8447H9.33984V82.965H80.6568V51.8447Z" fill="#EC589B"/>
<path d="M18.6146 51.8447V82.965H9.33984V51.8447" fill="#D3468D"/>
<path d="M80.6569 61.6445V76.9948H9.33984V61.6445" fill="#F4C063"/>
<path d="M18.6146 61.6445V76.9948H9.33984V61.6445" fill="#D5A03C"/>
<path d="M80.6569 72.8369V84.7143H9.33984V72.8369" fill="#B7744F"/>
<path d="M18.6146 72.8369V84.7143H9.33984V72.8369" fill="#A46141"/>
<path d="M80.6569 44.5977V56.7742C78.9577 58.4606 76.8128 59.7122 74.3671 60.3157C73.5675 60.5139 72.6466 60.6312 71.5399 60.6312C64.9048 60.6312 64.9048 56.3669 58.2675 56.3669C51.6325 56.3669 51.6325 60.6312 44.9972 60.6312C38.3599 60.6312 38.3599 56.3669 31.7249 56.3669C25.0898 56.3669 25.0897 60.6312 18.4546 60.6312C15.0155 60.6312 13.3589 59.4863 11.6361 58.384C10.7981 57.8466 10.0307 57.2305 9.33984 56.5418V44.5977H80.6569Z" fill="#D3468D"/>
<path d="M84.8139 41.4744C84.8139 47.8426 80.5502 53.5108 74.3681 55.0387C73.5692 55.2361 72.6477 55.3544 71.5415 55.3544C64.9053 55.3544 64.9053 51.0901 58.2692 51.0901C51.6333 51.0901 51.6333 55.3544 44.9973 55.3544C38.3614 55.3544 38.3616 51.0901 31.7259 51.0901C25.0905 51.0901 25.0905 55.3544 18.4549 55.3544C15.0161 55.3544 13.3594 54.2092 11.6378 53.1056C7.61465 50.5273 5.18359 46.0754 5.18359 41.297C5.18359 39.764 5.18359 38.2417 5.18359 36.8903C5.18359 34.2531 7.32144 32.1152 9.95869 32.1152H80.0388C82.6761 32.1152 84.8139 34.2531 84.8139 36.8903V41.4744Z" fill="#F9DCA4"/>
<path d="M21.2315 53.1066C17.2084 50.5281 14.7774 46.0764 14.7774 41.298C14.7774 39.765 14.7774 38.2427 14.7774 36.8913C14.7774 34.2541 16.9152 32.1162 19.5525 32.1162H9.95869C7.32144 32.1162 5.18359 34.2539 5.18359 36.8913C5.18359 38.2427 5.18359 39.765 5.18359 41.298C5.18359 46.0764 7.61465 50.5282 11.6378 53.1066C13.3594 54.21 15.0161 55.3554 18.4549 55.3554C20.5961 55.3554 22.0452 54.9105 23.2504 54.3088C22.5205 53.9444 21.8805 53.5225 21.2315 53.1066Z" fill="#E7C080"/>
<path d="M74.5367 90.0001H15.4633C11.4957 90.0001 7.73699 88.2218 5.22104 85.1538L3.42578 82.9648H86.5742L84.7789 85.1538C82.263 88.2216 78.5042 90.0001 74.5367 90.0001Z" fill="#E6E6E6"/>
<path d="M18.0132 85.1538L16.2179 82.9648H3.42578L5.22104 85.1538C7.73717 88.2218 11.4959 90.0001 15.4633 90.0001H28.2552C24.2879 90.0001 20.5291 88.2216 18.0132 85.1538Z" fill="#CCCCCC"/>
</g>
<defs>
<clipPath id="clip0_1802_11448">
<rect width="90" height="90" fill="white"/>
</clipPath>
</defs>
</svg>
