<svg width="90" height="90" viewBox="0 0 90 90" fill="none" xmlns="http://www.w3.org/2000/svg">
<g clip-path="url(#clip0_1802_11672)">
<path d="M47.4062 5.28418H41.5352V28.5727H47.4062V5.28418Z" fill="#EBECEC"/>
<path d="M47.4056 5.28418H44.4922V28.5727H47.4056V5.28418Z" fill="#CACDCD"/>
<path d="M44.4721 89.9998C62.1427 89.9998 76.4676 75.675 76.4676 58.0043C76.4676 40.3337 62.1427 26.0088 44.4721 26.0088C26.8014 26.0088 12.4766 40.3337 12.4766 58.0043C12.4766 75.675 26.8014 89.9998 44.4721 89.9998Z" fill="#88DEE0"/>
<path d="M61.6855 58.0054H76.4687C76.4687 52.1726 74.907 46.7049 72.1805 41.9961H58.7227C60.4866 46.2688 61.6855 51.5472 61.6855 58.0054Z" fill="#C7EAF0"/>
<path d="M44.4727 41.9957H58.7217C54.0142 30.594 45.2783 26.3578 44.5254 26.0103C44.5078 26.0103 44.4904 26.0098 44.4728 26.0098L44.4727 41.9957Z" fill="#C7EAF0"/>
<path d="M44.4727 74.0142H58.7218C60.486 69.7414 61.6848 64.4633 61.6848 58.0051V58.0049H44.4728L44.4727 74.0142Z" fill="#C7EAF0"/>
<path d="M44.4698 41.9961H30.2208C28.4565 46.2688 27.2578 51.547 27.2578 58.0054H44.4698V41.9961Z" fill="#C7EAF0"/>
<path d="M44.4718 74.0146H30.2227C34.9301 85.4163 43.6661 89.6523 44.4191 90C44.4367 90 44.4541 90.0005 44.4717 90.0005V74.0146H44.4718Z" fill="#C7EAF0"/>
<path d="M44.5234 90C56.3389 89.9809 66.6522 83.5571 72.1777 74.0146H58.7199C54.0123 85.4163 45.2763 89.6521 44.5234 90Z" fill="#C7EAF0"/>
<path d="M27.2598 58.0051L12.4766 58.0049C12.4766 63.8377 14.0382 69.3053 16.7647 74.0142H30.2226C28.4584 69.7413 27.2598 64.4633 27.2598 58.0051Z" fill="#C7EAF0"/>
<path d="M44.4201 26.0098C32.6044 26.0289 22.2913 32.4527 16.7656 41.9951H30.2234C34.9312 30.5936 43.6672 26.3576 44.4201 26.0098Z" fill="#C7EAF0"/>
<path d="M58.7796 0H30.207V10.7636H58.7796V0Z" fill="#A9ACAE"/>
<path d="M58.7785 0H44.4922V10.7636H58.7785V0Z" fill="#808181"/>
<path d="M17.0121 23.3934H12.7404V15.9668H6.86932V23.3934H2.59766V29.2645H6.86932V36.6909H12.7404V29.2645H17.0121V23.3934Z" fill="#FBAC50"/>
<path d="M17.0119 23.3934H12.7402V15.9668H9.80469V36.6909H12.7402V29.2645H17.0119V23.3934Z" fill="#F78750"/>
<path d="M87.4014 73.7903H84.6128V68.4961H78.7417V73.7903H75.9531V79.6614H78.7417V84.9555H84.6128V79.6614H87.4014V73.7903Z" fill="#FBAC50"/>
<path d="M87.3999 73.7903H84.6113V68.4961H81.6758V84.9555H84.6113V79.6614H87.3999V73.7903Z" fill="#F78750"/>
</g>
<defs>
<clipPath id="clip0_1802_11672">
<rect width="90" height="90" fill="white"/>
</clipPath>
</defs>
</svg>
