<svg width="90" height="90" viewBox="0 0 90 90" fill="none" xmlns="http://www.w3.org/2000/svg">
<path d="M21.4693 15.5656C21.3442 15.7288 21.2134 15.8905 21.0868 16.0536L10.1265 13.3339C10.0914 13.1314 10.052 12.9261 10.0168 12.7236C9.95112 12.3584 9.74371 12.034 9.43981 11.821C9.13591 11.6081 8.76016 11.5239 8.39445 11.5868C8.02874 11.6497 7.70271 11.8546 7.48743 12.1568C7.27214 12.4591 7.18504 12.8341 7.24512 13.2003C8.21121 18.8127 9.30106 24.4897 10.4795 30.0753C10.5343 30.3334 10.6606 30.5709 10.844 30.7607C11.0274 30.9504 11.2605 31.0847 11.5166 31.1482C11.7727 31.2117 12.0415 31.2019 12.2923 31.1198C12.5431 31.0378 12.7657 30.8868 12.9348 30.6842C16.5911 26.301 20.2107 21.7925 23.6856 17.2855C23.911 16.9899 24.0103 16.6171 23.9616 16.2486C23.913 15.8801 23.7204 15.5458 23.426 15.3189C23.1316 15.0919 22.7593 14.9908 22.3905 15.0375C22.0218 15.0843 21.6865 15.2752 21.4581 15.5685L21.4693 15.5656Z" fill="#FFBD4A"/>
<path d="M62.2405 21.6476C62.0821 21.5526 61.9065 21.4898 61.7238 21.4628C61.5411 21.4357 61.3548 21.4449 61.1756 21.4898C60.9965 21.5347 60.8279 21.6145 60.6796 21.7246C60.5312 21.8346 60.4061 21.9729 60.3112 22.1313C60.2057 22.3071 60.0946 22.4829 59.9877 22.6601L48.8038 21.2342C48.7447 21.0373 48.6815 20.839 48.6238 20.6421C48.5139 20.2896 48.2698 19.9944 47.9441 19.8203C47.6185 19.6463 47.2374 19.6073 46.8832 19.7118C46.5291 19.8163 46.2302 20.0559 46.0512 20.3789C45.8723 20.7019 45.8275 21.0824 45.9266 21.4381C47.5312 26.8845 49.2735 32.3942 51.1016 37.8167C51.1861 38.0668 51.3394 38.2881 51.5438 38.4552C51.7482 38.6224 51.9956 38.7285 52.2576 38.7617C52.3163 38.7689 52.3755 38.7727 52.4347 38.7729C52.6684 38.7729 52.8984 38.7146 53.1039 38.6034C53.3094 38.4922 53.484 38.3315 53.6118 38.1359C56.7294 33.3546 59.7993 28.4609 62.7243 23.5742C62.9152 23.2544 62.9714 22.872 62.8807 22.5109C62.7901 22.1497 62.5598 21.8392 62.2405 21.6476Z" fill="#FFBD4A"/>
<path d="M40.7946 19.4171C40.6793 19.5859 40.5584 19.7546 40.4416 19.9248L29.3604 17.859C29.3126 17.6593 29.2606 17.4568 29.2198 17.2571C29.1339 16.8954 28.9082 16.5824 28.5921 16.3866C28.276 16.1908 27.8952 16.1281 27.533 16.2123C27.1709 16.2966 26.8568 16.5208 26.6596 16.836C26.4623 17.1511 26.3979 17.5316 26.4804 17.8942C27.7699 23.4404 29.1874 29.0429 30.6991 34.547C30.7687 34.8014 30.9085 35.0312 31.1025 35.21C31.2964 35.3887 31.5368 35.5094 31.796 35.5581C31.8814 35.5736 31.968 35.5816 32.0548 35.582C32.2731 35.582 32.4884 35.5311 32.6837 35.4335C32.8789 35.3359 33.0488 35.1941 33.1798 35.0195C36.5759 30.4253 39.9298 25.7143 43.1248 21.0146C43.3347 20.7064 43.4137 20.3273 43.3442 19.9609C43.2747 19.5945 43.0625 19.2706 42.7542 19.0606C42.446 18.8507 42.0669 18.7717 41.7005 18.8412C41.334 18.9107 41.0102 19.1229 40.8002 19.4312L40.7946 19.4171Z" fill="#FFBD4A"/>
<path d="M81.8666 23.109C81.703 23.0233 81.5241 22.9706 81.3402 22.9541C81.1562 22.9375 80.9708 22.9573 80.7945 23.0124C80.6182 23.0676 80.4545 23.1569 80.3127 23.2752C80.1709 23.3936 80.0539 23.5388 79.9682 23.7024C79.874 23.8852 79.7727 24.0681 79.6771 24.2495L68.4159 23.4845C68.347 23.2918 68.2752 23.0977 68.2021 22.9051C68.0717 22.56 67.8108 22.28 67.4758 22.1254C67.1409 21.9709 66.7585 21.9542 66.4113 22.0789C66.0641 22.2036 65.7798 22.4598 65.6198 22.7921C65.4597 23.1245 65.4366 23.5065 65.5556 23.8557C67.4807 29.1995 69.5423 34.6037 71.684 39.9052C71.7829 40.1499 71.9486 40.3618 72.1622 40.5167C72.3758 40.6717 72.6287 40.7633 72.892 40.7813H72.9876C73.2349 40.7818 73.478 40.7171 73.6923 40.5936C73.9066 40.4702 74.0846 40.2924 74.2082 40.0782C77.0502 35.117 79.8332 30.0474 82.4615 25.0102C82.5476 24.8464 82.6005 24.6672 82.6172 24.4829C82.6339 24.2986 82.614 24.1128 82.5588 23.9361C82.5035 23.7595 82.4139 23.5955 82.2952 23.4536C82.1764 23.3116 82.0308 23.1945 81.8666 23.109Z" fill="#FFBD4A"/>
<path d="M85.4639 25.9327H85.4147C57.9119 24.9866 30.6259 20.7037 4.15594 13.178C3.7989 13.0746 3.49729 12.8342 3.31704 12.5091C3.13679 12.184 3.09257 11.8008 3.19405 11.4432C3.29552 11.0857 3.53444 10.7828 3.85856 10.6009C4.18269 10.4189 4.56566 10.3727 4.92375 10.4723C31.1744 17.9387 58.2347 22.1886 85.5103 23.1286C85.8833 23.1349 86.2384 23.2892 86.4977 23.5574C86.7569 23.8256 86.899 24.1858 86.8927 24.5588C86.8863 24.9317 86.7321 25.2869 86.4639 25.5461C86.1957 25.8054 85.8355 25.9474 85.4625 25.9411L85.4639 25.9327Z" fill="#363636"/>
<path d="M81.6049 50.3776C81.4229 50.3448 81.2361 50.3485 81.0555 50.3885C80.8749 50.4285 80.704 50.504 80.5529 50.6107C80.4017 50.7173 80.2733 50.853 80.1751 51.0097C80.0768 51.1665 80.0108 51.3412 79.9807 51.5237C79.9455 51.7262 79.9062 51.9316 79.871 52.1341L68.9163 54.8537C68.7898 54.6906 68.659 54.5289 68.5338 54.3672C68.4231 54.2157 68.2832 54.0878 68.1223 53.9913C67.9614 53.8947 67.7828 53.8312 67.597 53.8047C67.4113 53.7782 67.2221 53.7892 67.0406 53.8369C66.8591 53.8847 66.689 53.9683 66.5404 54.0828C66.3917 54.1973 66.2674 54.3404 66.1749 54.5037C66.0824 54.6669 66.0235 54.8471 66.0017 55.0335C65.9799 55.2198 65.9956 55.4087 66.0479 55.5889C66.1003 55.7691 66.1881 55.9371 66.3063 56.0828C69.7741 60.5828 73.391 65.0898 77.0571 69.483C77.1892 69.6411 77.3543 69.7683 77.541 69.8555C77.7276 69.9427 77.9311 69.9879 78.1371 69.9878C78.2513 69.9874 78.365 69.9737 78.476 69.947C78.732 69.8834 78.965 69.749 79.1482 69.5593C79.3315 69.3696 79.4577 69.1321 79.5124 68.8741C80.6951 63.2926 81.7849 57.6156 82.7468 51.9991C82.8093 51.6328 82.7243 51.2566 82.5103 50.9528C82.2964 50.649 81.9709 50.4422 81.6049 50.3776Z" fill="#FFBD4A"/>
<path d="M43.1229 58.4998C42.7652 58.3943 42.3803 58.4352 42.0528 58.6135C41.7252 58.7918 41.4819 59.0928 41.3763 59.4505C41.3187 59.6473 41.2554 59.8456 41.1977 60.0425L30.0124 61.4656C29.9056 61.2884 29.7945 61.1127 29.689 60.9369C29.602 60.7644 29.4803 60.6118 29.3317 60.4884C29.1831 60.3651 29.0107 60.2737 28.8251 60.2199C28.6396 60.1661 28.445 60.1511 28.2535 60.1758C28.0619 60.2006 27.8775 60.2645 27.7117 60.3637C27.546 60.4628 27.4024 60.5951 27.29 60.7521C27.1776 60.9092 27.0988 61.0877 27.0584 61.2766C27.018 61.4655 27.017 61.6607 27.0554 61.85C27.0938 62.0393 27.1707 62.2186 27.2815 62.3769C30.2107 67.265 33.2763 72.163 36.394 76.9386C36.5218 77.1342 36.6964 77.2949 36.9019 77.4061C37.1074 77.5173 37.3374 77.5756 37.571 77.5756C37.6303 77.5761 37.6895 77.5723 37.7482 77.5644C38.0102 77.5313 38.2575 77.4251 38.462 77.258C38.6664 77.0908 38.8196 76.8695 38.9042 76.6194C40.7323 71.2025 42.4732 65.6914 44.0792 60.2408C44.1827 59.8831 44.1402 59.499 43.961 59.1726C43.7817 58.8462 43.4803 58.6043 43.1229 58.4998Z" fill="#FFBD4A"/>
<path d="M62.4754 54.9983C62.1122 54.914 61.7303 54.9775 61.4139 55.1748C61.0974 55.372 60.8723 55.6869 60.788 56.0501C60.7415 56.2498 60.6895 56.4523 60.6473 56.652L49.5661 58.7248C49.4494 58.5547 49.3284 58.3859 49.2131 58.2158C49.0031 57.9075 48.6793 57.6953 48.3129 57.6258C47.9464 57.5563 47.5674 57.6352 47.2591 57.8452C46.9509 58.0552 46.7387 58.379 46.6692 58.7455C46.5997 59.1119 46.6786 59.491 46.8886 59.7992C50.0892 64.4975 53.4347 69.2084 56.8336 73.8055C56.9638 73.9814 57.1334 74.1245 57.3287 74.2234C57.524 74.3223 57.7397 74.3742 57.9586 74.375C58.0449 74.3754 58.1311 74.3674 58.2159 74.3511C58.4754 74.3026 58.7161 74.1821 58.9103 74.0033C59.1045 73.8245 59.2445 73.5946 59.3142 73.34C60.8217 67.8303 62.2392 62.2306 63.5329 56.6872C63.5748 56.5068 63.5806 56.32 63.5501 56.1374C63.5195 55.9548 63.4532 55.78 63.355 55.6231C63.2567 55.4662 63.1284 55.3302 62.9775 55.223C62.8266 55.1158 62.656 55.0394 62.4754 54.9983Z" fill="#FFBD4A"/>
<path d="M23.597 60.8537C23.2466 60.7275 22.8604 60.7455 22.5232 60.9036C22.186 61.0618 21.9253 61.3473 21.7984 61.6975C21.7295 61.8901 21.6578 62.0842 21.5846 62.2782L10.3234 63.0447C10.2278 62.8632 10.1279 62.6804 10.0323 62.499C9.9467 62.3353 9.8297 62.1901 9.68797 62.0716C9.54624 61.9531 9.38256 61.8637 9.20628 61.8084C9.02999 61.7532 8.84455 61.7332 8.66055 61.7496C8.47654 61.7661 8.29757 61.8186 8.13386 61.9042C7.97015 61.9898 7.8249 62.1068 7.70641 62.2485C7.58791 62.3902 7.4985 62.5539 7.44326 62.7302C7.38802 62.9065 7.36805 63.0919 7.38448 63.2759C7.40091 63.4599 7.45342 63.6389 7.53902 63.8026C10.1771 68.8454 12.9545 73.915 15.7923 78.8692C15.916 79.0834 16.0939 79.2612 16.3082 79.3846C16.5225 79.5081 16.7656 79.5728 17.0129 79.5723H17.1085C17.3718 79.5543 17.6247 79.4626 17.8383 79.3077C18.0519 79.1528 18.2176 78.9409 18.3165 78.6962C20.4582 73.3961 22.5198 67.9961 24.445 62.6481C24.5697 62.2977 24.5504 61.9121 24.3915 61.5758C24.2326 61.2395 23.9469 60.9799 23.597 60.8537Z" fill="#FFBD4A"/>
<path d="M4.53973 64.7323C4.35506 64.7355 4.17158 64.7022 3.99977 64.6344C3.82795 64.5667 3.67117 64.4657 3.53836 64.3373C3.27016 64.0781 3.11592 63.7229 3.10958 63.35C3.10324 62.977 3.24532 62.6168 3.50456 62.3486C3.76379 62.0804 4.11896 61.9262 4.49192 61.9198C31.7676 60.9811 58.8282 56.7312 85.0785 49.2636C85.4373 49.1616 85.8219 49.2063 86.1477 49.3878C86.4735 49.5694 86.7139 49.873 86.8159 50.2318C86.9179 50.5906 86.8732 50.9752 86.6916 51.301C86.5101 51.6268 86.2065 51.8672 85.8477 51.9692C59.378 59.4962 32.0918 63.7792 4.58895 64.7239L4.53973 64.7323Z" fill="#363636"/>
</svg>
