<svg width="90" height="90" viewBox="0 0 90 90" fill="none" xmlns="http://www.w3.org/2000/svg">
<g clip-path="url(#clip0_1802_11512)">
<path d="M75.5234 55.0944L83.7402 62.3985L81.9148 51.4424L75.5234 55.0944Z" fill="#E87B5A"/>
<path d="M18.2812 73.125H60.4688V54.8438H18.2812V73.125ZM32.895 59.3353C34.1002 58.1302 36.0084 57.9403 37.4273 58.8853L39.375 60.1847L41.3227 58.8867C42.743 57.9431 44.6484 58.1288 45.8564 59.3353C47.2556 60.7359 47.2556 63.0155 45.8564 64.4161L40.3706 69.9019C40.095 70.1747 39.735 70.3125 39.375 70.3125C39.015 70.3125 38.655 70.1747 38.3808 69.9005L32.895 64.4147C31.4944 63.0141 31.4944 60.7359 32.895 59.3353Z" fill="#EEC97B"/>
<path d="M39.3756 66.9181L43.8672 62.4266C44.1709 62.1228 44.1709 61.6278 43.8672 61.3241C43.6056 61.0639 43.1908 61.0231 42.8814 61.227L40.1561 63.0453C39.6836 63.3603 39.0691 63.3603 38.5966 63.0453L35.8698 61.227C35.7377 61.1398 35.5886 61.0977 35.4381 61.0977C35.2356 61.0977 35.0345 61.175 34.8841 61.3255C34.5803 61.6292 34.5803 62.1228 34.8841 62.428L39.3756 66.9181Z" fill="#E87B5A"/>
<path d="M51.3008 29.0007L56.248 31.4743V23.8369C55.0105 25.7311 53.3525 27.4496 51.3008 29.0007Z" fill="#9FC7D1"/>
<path d="M64.7903 24.2335L70.5911 16.4991C66.8519 16.3529 63.1816 16.1687 59.6055 15.9395L64.7903 24.2335Z" fill="#9FC7D1"/>
<path d="M45.5545 23.0992L55.1578 15.6292C50.4694 15.2777 45.9595 14.853 41.6719 14.3594L45.5545 23.0992Z" fill="#9FC7D1"/>
<path d="M80.2619 24.234L85.7941 16.8568C82.3291 16.8287 78.9077 16.7626 75.5312 16.667L80.2619 24.234Z" fill="#9FC7D1"/>
<path d="M11.9687 18.385L19.6159 10.7378C15.3789 9.75906 11.8323 8.70016 9.01562 7.5625L11.9687 18.385Z" fill="#9FC7D1"/>
<path d="M24.5508 11.7871L27.4322 21.3904L36.1228 13.6645C33.0952 13.2538 30.187 12.8095 27.4462 12.3243C26.4492 12.1499 25.4916 11.9699 24.5508 11.7871Z" fill="#9FC7D1"/>
<path d="M26.2094 45.4974L29.9444 37.0908C26.402 37.7419 22.5377 38.2538 18.3555 38.6264L26.2094 45.4974Z" fill="#9FC7D1"/>
<path d="M9.70172 47.4771L13.4719 38.9932C10.8211 39.1521 8.04656 39.2575 5.16797 39.3166L9.70172 47.4771Z" fill="#9FC7D1"/>
<path d="M42.965 40.1365L46.6339 31.8818C43.6245 33.4104 40.0808 34.7112 35.9844 35.7729L42.965 40.1365Z" fill="#9FC7D1"/>
<path d="M39.7631 11.3259C39.7294 11.3161 39.7055 11.2894 39.6703 11.2823C39.5958 11.2655 39.5212 11.2908 39.4453 11.288C33.2845 10.5173 27.8634 9.62719 23.2453 8.6625C23.1216 8.58375 22.988 8.51766 22.8417 8.48109C22.6688 8.43609 22.493 8.4375 22.3214 8.46C9.98578 5.79656 3.51562 2.62969 3.51562 0H0.703125C0.703125 2.09531 2.27953 4.03312 5.36625 5.81063L0.149062 16.245L2.66484 17.5036L6.64313 9.54562L9.89437 21.4636C10.0266 21.9473 10.4048 22.3242 10.89 22.4522C11.3752 22.583 11.8927 22.4423 12.2456 22.088L21.8306 12.503L25.373 24.3098C25.5122 24.7697 25.8736 25.1283 26.3363 25.2591C26.8003 25.3927 27.2953 25.2759 27.6539 24.9581L38.873 14.9864L43.7161 25.8848C43.8919 26.28 44.2392 26.5725 44.6597 26.6766C45.0773 26.782 45.5231 26.6878 45.8663 26.4234L55.4822 18.9436C53.152 25.9931 45.4641 30.9445 32.4942 33.7655C32.3072 33.7458 32.1173 33.7556 31.9345 33.8119C31.8544 33.8372 31.7925 33.8948 31.718 33.9328C23.2917 35.6822 12.7153 36.5625 0 36.5625V39.375C0.669375 39.375 1.31906 39.3666 1.97719 39.3609L8.61469 51.3084C8.86359 51.7556 9.33469 52.0312 9.84375 52.0312C9.86484 52.0312 9.88453 52.0312 9.90563 52.0312C10.4386 52.0312 10.9125 51.6839 11.1291 51.1973L15.9778 40.2834L25.792 48.87C26.1267 49.1639 26.5809 49.2806 27.0197 49.185C27.457 49.0894 27.8213 48.7912 28.0027 48.3834L32.9695 37.2066L42.8456 43.38C43.193 43.5952 43.6162 43.6514 44.003 43.5319C44.3911 43.4123 44.7103 43.1311 44.8763 42.7584L49.9036 31.4466L57.0234 35.0072C57.4608 35.2237 57.9769 35.2027 58.3917 34.9453C58.8094 34.6908 59.0625 34.238 59.0625 33.75V20.3723L63.495 27.4641C63.7411 27.8578 64.1644 28.1053 64.6284 28.1236C65.0897 28.1391 65.5341 27.9338 65.8125 27.5625L73.0195 17.9536L78.9652 27.4655C79.2113 27.8592 79.6345 28.1264 80.0986 28.1264C80.1183 28.1264 80.138 28.1264 80.1577 28.1264C80.5978 28.1264 81.0155 27.9197 81.2827 27.5639L89.3011 16.8736C89.5331 16.8722 89.7652 16.875 90 16.875V14.0625C69.9187 14.0625 53.0944 12.9783 39.7631 11.3259ZM11.97 18.3853L9.01688 7.56281C11.8336 8.70047 15.3788 9.75938 19.6158 10.7381L11.97 18.3853ZM27.4331 21.3905L24.5517 11.7872C25.4925 11.97 26.4516 12.1486 27.4472 12.3244C30.1894 12.8081 33.0961 13.2525 36.1237 13.6645L27.4331 21.3905ZM45.5541 23.0991L41.6714 14.3606C45.9591 14.8542 50.4689 15.2789 55.1573 15.6305L45.5541 23.0991ZM9.70312 47.4778L5.16937 39.3173C8.04938 39.2583 10.8225 39.1528 13.4733 38.9939L9.70312 47.4778ZM26.2097 45.4978L18.3558 38.6269C22.5394 38.2542 26.4023 37.7423 29.9447 37.0912L26.2097 45.4978ZM42.9666 40.1372L35.9859 35.7736C40.0823 34.7119 43.6261 33.4111 46.6355 31.8825L42.9666 40.1372ZM56.25 31.4747L51.3028 29.0011C53.3545 27.45 55.0125 25.733 56.25 23.8373V31.4747ZM64.793 24.2339L59.6081 15.9398C63.1842 16.1677 66.8545 16.3533 70.5938 16.4995L64.793 24.2339ZM80.2617 24.2339L75.5311 16.6655C78.9075 16.7625 82.3289 16.8272 85.7939 16.8553L80.2617 24.2339Z" fill="#3C4A53"/>
<path d="M61.875 52.0312H16.875C16.0973 52.0312 15.4688 52.6612 15.4688 53.4375V74.5312V90H18.2812V75.9375H60.4688V90H63.2812V74.5312V53.4375C63.2812 52.6612 62.6527 52.0312 61.875 52.0312ZM60.4688 73.125H18.2812V54.8438H60.4688V73.125Z" fill="#3C4A53"/>
<path d="M38.3803 69.9008C38.6546 70.175 39.0146 70.3128 39.3746 70.3128C39.7346 70.3128 40.0946 70.175 40.3688 69.9008L45.8546 64.415C47.2538 63.0144 47.2538 60.7363 45.8546 59.3342C44.648 58.1277 42.7411 57.942 41.3208 58.8856L39.3746 60.185L37.4255 58.8856C36.0066 57.9406 34.0997 58.1305 32.8932 59.3356C31.4939 60.7363 31.4939 63.0144 32.8932 64.415L38.3803 69.9008ZM34.883 61.3241C35.0321 61.1736 35.2346 61.0963 35.4371 61.0963C35.5861 61.0963 35.7366 61.1384 35.8688 61.2256L38.5955 63.0439C39.068 63.3589 39.6839 63.3589 40.155 63.0439L42.8804 61.2256C43.1897 61.0217 43.606 61.0625 43.8661 61.3227C44.1699 61.6264 44.1699 62.1214 43.8661 62.4252L39.3746 66.9181L34.883 62.4266C34.5793 62.1228 34.5793 61.6278 34.883 61.3241Z" fill="#3C4A53"/>
<path d="M38.7931 8.19594L40.7816 6.2075L42.77 8.19594L44.7584 6.2075L42.77 4.21906L44.7584 2.23062L42.77 0.242188L40.7816 2.23062L38.7931 0.242188L36.8047 2.23062L38.7931 4.21906L36.8047 6.2075L38.7931 8.19594Z" fill="#3C4A53"/>
<path d="M9.02 71.9609L7.03156 73.9494L5.04313 71.9609L3.05469 73.9494L5.04313 75.9378L3.05469 77.9263L5.04313 79.9147L7.03156 77.9263L9.02 79.9147L11.0084 77.9263L9.02 75.9378L11.0084 73.9494L9.02 71.9609Z" fill="#3C4A53"/>
<path d="M52.6138 78.9922L50.6253 80.9806L48.6369 78.9922L46.6484 80.9806L48.6369 82.9691L46.6484 84.9575L48.6369 86.9459L50.6253 84.9575L52.6138 86.9459L54.6022 84.9575L52.6138 82.9691L54.6022 80.9806L52.6138 78.9922Z" fill="#3C4A53"/>
<path d="M76.7619 8.19594L78.7503 6.2075L80.7388 8.19594L82.7272 6.2075L80.7388 4.21906L82.7272 2.23062L80.7388 0.242188L78.7503 2.23062L76.7619 0.242188L74.7734 2.23062L76.7619 4.21906L74.7734 6.2075L76.7619 8.19594Z" fill="#3C4A53"/>
<path d="M18.2812 23.9062H15.4688V26.7188H18.2812V23.9062Z" fill="#3C4A53"/>
<path d="M73.125 30.9375H70.3125V33.75H73.125V30.9375Z" fill="#3C4A53"/>
<path d="M64.6875 4.21875H61.875V7.03125H64.6875V4.21875Z" fill="#3C4A53"/>
<path d="M12.6562 56.25H9.84375V59.0625H12.6562V56.25Z" fill="#3C4A53"/>
<path d="M74.5312 77.3438H71.7188V80.1562H74.5312V77.3438Z" fill="#3C4A53"/>
<path d="M8.4375 84.375H5.625V87.1875H8.4375V84.375Z" fill="#3C4A53"/>
<path d="M68.9062 60.4688H66.0938V63.2812H68.9062V60.4688Z" fill="#3C4A53"/>
<path d="M87.1875 33.75H84.375V36.5625H87.1875V33.75Z" fill="#3C4A53"/>
<path d="M61.875 39.375H59.0625V42.1875H61.875V39.375Z" fill="#3C4A53"/>
<path d="M57.6562 7.03125H54.8438V9.84375H57.6562V7.03125Z" fill="#3C4A53"/>
<path d="M80.9656 75.1348C81.4874 74.7551 82.1131 74.4612 82.7769 74.149C83.3605 73.8748 83.9638 73.5908 84.5544 73.2237C87.3894 71.4575 87.44 68.9431 86.9619 66.8323C87.1391 66.5483 87.2263 66.2094 87.1686 65.8634L84.3561 48.9884C84.2802 48.5342 83.9877 48.1461 83.5714 47.9492C83.1566 47.7509 82.67 47.7692 82.2706 47.9984L72.4269 53.6234C72.0346 53.8484 71.773 54.2478 71.7266 54.6992C71.6788 55.1492 71.8517 55.595 72.1906 55.8959L83.8808 66.2867C84.6303 68.6436 84.6219 69.8656 83.0666 70.8345C82.6166 71.1158 82.1103 71.352 81.576 71.6037C80.825 71.9581 80.046 72.3237 79.3091 72.8595C77.7833 73.9719 76.5627 76.0011 77.2756 78.0359C77.6989 79.2369 78.7536 80.2015 80.2485 80.7542C80.7463 80.9384 81.2638 81.0706 81.7799 81.2C82.2088 81.3069 82.6377 81.4123 83.0511 81.567C83.1608 81.6078 83.255 81.6556 83.3281 81.7006C83.3085 81.7175 83.2902 81.7358 83.2691 81.7555C81.4564 83.4345 79.4441 84.9026 77.2911 86.119L78.6749 88.5673C81.0177 87.244 83.2072 85.6465 85.1788 83.8212C85.5008 83.5217 86.1041 82.9662 86.2616 82.0873C86.4936 80.788 85.5992 79.5195 84.0397 78.9345C83.5278 78.7419 82.9963 78.6054 82.4633 78.4719C82.0442 78.3664 81.6252 78.2651 81.2216 78.1161C80.548 77.8672 80.0642 77.4889 79.9278 77.1036C79.7169 76.4975 80.2906 75.6256 80.9656 75.1348ZM75.5235 55.0944L81.9149 51.4423L83.7402 62.3984L75.5235 55.0944Z" fill="#3C4A53"/>
<path d="M81.3634 45.4534L82.7695 38.4219L80.0116 37.8703L78.6054 44.9019L81.3634 45.4534Z" fill="#3C4A53"/>
<path d="M73.3268 47.1299L75.7383 45.6826L71.5187 38.6522L69.1073 40.0995L73.3268 47.1299Z" fill="#3C4A53"/>
<path d="M70.0344 50.5939L70.5859 47.8359L63.5544 46.4298L63.0029 49.1877L70.0344 50.5939Z" fill="#3C4A53"/>
<path d="M29.5312 78.75H26.7188V81.5625H29.5312V78.75Z" fill="#3C4A53"/>
<path d="M35.1562 78.75H32.3438V81.5625H35.1562V78.75Z" fill="#3C4A53"/>
<path d="M23.9062 78.75H21.0938V81.5625H23.9062V78.75Z" fill="#3C4A53"/>
</g>
<defs>
<clipPath id="clip0_1802_11512">
<rect width="90" height="90" fill="white"/>
</clipPath>
</defs>
</svg>
