<svg width="90" height="90" viewBox="0 0 90 90" fill="none" xmlns="http://www.w3.org/2000/svg">
<path d="M69.8633 3.92092C66.4771 1.87141 62.3781 0.980323 60.4177 5.34666C58.6355 9.26745 58.19 14.3467 57.8336 18.8021C47.0514 24.7724 37.7841 33.0595 28.8732 41.5249C23.9722 46.1585 18.5365 50.7922 15.5068 56.9407C13.19 61.6635 11.9425 67.01 10.7841 72.3566C9.71475 74.8516 9.18009 77.614 9.18009 80.3764C9.09098 80.5546 9.09098 80.7328 9.00188 80.911C8.37811 83.2279 10.1603 84.8318 12.0316 85.01C15.3286 86.614 20.586 85.9011 23.3484 85.5447C29.586 84.6536 32.1702 81.9803 34.7543 76.7229C35.4672 76.4556 36.091 75.9209 36.4474 75.2081C39.388 69.5051 42.3286 63.8912 45.4474 58.2774C48.388 53.8219 51.2395 49.2774 54.1801 44.8219C53.7345 47.6734 53.5563 50.614 53.7345 53.5546C54.2692 62.0199 57.9227 69.9506 65.0514 74.8516C65.8534 75.4754 66.9227 75.5645 67.9029 75.2081C68.3484 75.3863 68.7048 75.6536 69.1504 75.7427C73.1603 77.3467 74.8534 70.9308 70.9326 69.3269C64.5167 66.7427 64.0712 55.1585 63.9821 49.4556C63.893 42.3269 65.4969 35.2873 68.7048 28.9605C69.1504 28.1585 69.2395 27.1783 68.8831 26.2873C71.5563 26.3764 74.4969 26.3764 76.7246 24.6833C77.2593 24.3269 77.7048 23.8813 78.0613 23.3467C78.5068 23.1684 78.8633 22.9011 79.2197 22.6338C86.2593 16.1288 75.2098 7.12884 69.8633 3.92092Z" fill="#F15A22"/>
<path d="M40.9918 49.7227C38.4968 46.2474 35.6453 42.9504 32.5265 40.0098C29.4077 37.0692 24.6849 41.792 27.8037 44.7326C30.5661 47.3167 32.972 50.0791 35.1998 53.1088C36.1799 54.6237 38.1403 55.1583 39.7443 54.2672C41.2592 53.4652 42.0611 51.1484 40.9918 49.7227Z" fill="#FDB913"/>
<path d="M81.5358 19.6934C81.5358 19.2479 81.3576 18.8023 81.1794 18.3568C81.0012 18.0004 80.8229 17.733 80.6447 17.3766C78.2388 13.5449 74.9418 10.6934 71.8229 8.02017C70.8428 7.12908 69.7734 6.41621 68.7041 5.70334C67.5457 4.99047 66.2091 4.54492 64.7833 4.54492C64.516 4.54492 64.2487 4.54492 63.9814 4.63403C63.0012 4.72314 62.021 5.16868 61.219 5.88156C60.417 6.68354 59.7932 7.75284 59.5259 8.91126C58.6348 11.5845 58.1893 14.3469 58.1893 17.1093C58.1893 18.4459 58.2784 19.6934 58.5457 21.0301C50.7932 26.3766 43.219 32.1687 35.8229 38.2281C34.5754 39.2083 33.417 40.1885 32.2586 41.2578C32.1695 41.2578 32.1695 41.1687 32.0804 41.1687C31.6348 40.8123 31.1002 40.634 30.4764 40.5449C30.3873 40.5449 30.2982 40.5449 30.2091 40.5449C29.4962 40.5449 28.8725 40.8123 28.3378 41.1687C27.8031 41.5251 27.2685 41.9707 26.9121 42.5053C26.5556 42.9509 26.3774 43.5746 26.3774 44.1984C26.3774 44.6439 26.4665 45.0004 26.6447 45.3568C26.7338 45.535 26.8229 45.7132 26.9121 45.8915C22.1002 50.1687 17.7338 54.9806 13.813 60.238C12.6546 61.7528 11.6744 63.4459 10.8725 65.2281C10.2487 66.8321 9.89226 68.5251 9.62493 70.2182C8.73384 75.1192 8.02097 80.1093 7.48631 85.0103C7.39721 85.7231 7.93186 86.3469 8.55562 86.3469C11.5853 86.7033 14.7041 86.8816 17.8229 86.8816C21.4764 86.8816 25.0408 86.6142 28.6051 86.1687C29.0507 86.0796 29.5853 85.9905 30.0309 85.9014C30.5655 85.7231 31.1002 85.5449 31.6348 85.1885C32.0804 84.8321 32.5259 84.4756 32.8824 83.941C33.1497 83.4954 33.417 83.139 33.6843 82.6934C39.6546 72.3568 45.6249 62.1093 51.5952 51.7726C51.5952 52.1291 51.5952 52.4855 51.5952 52.842C51.5952 61.3073 55.1596 69.4162 61.4863 75.0301C62.4665 75.9212 63.6249 76.634 64.8725 77.0796C65.4071 77.2578 66.0309 77.3469 66.6546 77.3469C67.9022 77.3469 69.0606 77.0796 70.1299 76.5449C71.1992 76.0994 72.1794 75.5647 73.1596 74.941C73.7833 74.5845 73.9616 73.7825 73.6051 73.2479C73.516 73.0697 73.2487 72.8915 73.0705 72.7132C70.6645 71.5548 68.615 69.7727 67.1002 67.634C65.4962 65.4063 64.2487 62.8222 63.5358 60.1489C62.7338 57.1192 62.3774 53.9113 62.3774 50.7924C62.3774 48.2083 62.5556 45.6241 62.8229 43.04C63.4467 37.6934 64.3378 32.436 66.3873 27.7132C66.3873 27.6241 66.3873 27.6241 66.4764 27.535C67.2784 27.535 67.9913 27.4459 68.7041 27.2677C70.3972 26.9113 72.0012 26.5548 73.6942 26.1093C74.8526 25.842 76.0111 25.4855 77.0804 24.9509C78.2388 24.4162 79.3081 23.7033 80.1992 22.7231C80.5556 22.3667 80.8229 21.9212 81.0903 21.4756C81.3576 20.941 81.4467 20.4063 81.5358 19.7825C81.5358 19.8717 81.5358 19.7825 81.5358 19.6934ZM61.8428 9.62413C62.021 8.91126 62.3774 8.19839 62.9121 7.66373C63.2685 7.3073 63.8031 7.12908 64.2487 7.03997C64.4269 7.03997 64.6051 7.03997 64.6942 7.03997C65.6744 7.03997 66.5655 7.39641 67.3675 7.93106C68.3477 8.55482 69.2388 9.26769 70.1299 9.98057C73.2487 12.6538 76.3675 15.4162 78.5061 18.8023C78.6843 18.9806 78.7734 19.2479 78.8625 19.4261C78.9517 19.6043 78.9517 19.7825 79.0408 19.8717V19.9608C79.0408 20.139 78.9517 20.4063 78.8625 20.5845C78.7734 20.8519 78.5952 21.1192 78.417 21.2974C77.7932 22.0103 76.9913 22.5449 76.1002 22.9014C75.12 23.3469 74.1398 23.6142 73.0705 23.8816C71.4665 24.3271 69.8626 24.6835 68.2586 25.04C67.6348 25.2182 67.0111 25.2182 66.2982 25.2182C64.0705 25.3073 62.021 23.8816 61.3081 21.7429C60.7734 20.2281 60.5061 18.6241 60.5952 17.0202C60.6843 14.5251 61.0408 12.0301 61.8428 9.62413ZM69.1497 74.3172C68.3477 74.6736 67.4566 74.8519 66.6546 74.941C66.2982 74.941 65.9418 74.8519 65.5853 74.7627C64.6942 74.4063 63.8031 73.8717 63.0903 73.2479C57.3873 68.3469 54.0903 60.5944 54.0903 52.9311C54.0903 50.7924 54.3576 48.6538 54.8923 46.5152C54.8923 46.4261 54.8923 46.2479 54.8923 46.1588C57.12 42.238 59.4368 38.3172 61.6645 34.3964C61.0408 37.1588 60.5952 40.0103 60.3279 42.8618C60.0606 45.535 59.8824 48.2083 59.7932 50.8816C59.7932 54.2677 60.1497 57.6538 61.0408 60.8618C61.8427 63.8915 63.1794 66.6538 64.9616 69.238C66.2982 71.1093 67.9913 72.7132 69.8626 73.9608C69.6843 74.0499 69.417 74.2281 69.1497 74.3172ZM30.2982 83.139C30.0309 83.3172 29.7635 83.4063 29.4962 83.4954C29.1398 83.5845 28.7833 83.6736 28.3378 83.6736C24.8626 84.1192 21.3873 84.3865 17.8229 84.3865C15.2388 84.3865 12.6546 84.2974 10.1596 84.0301C10.6942 79.5746 11.4071 75.0301 12.12 70.5746C12.3873 69.0598 12.7437 67.5449 13.2784 66.0301C13.9913 64.4261 14.7932 62.9113 15.8626 61.5746C19.6051 56.4954 23.7932 51.8618 28.516 47.6736L28.6051 47.7627C30.4764 49.634 32.5259 51.4162 34.6645 53.0202C35.1101 53.3766 35.5556 53.6439 36.0012 53.9113C36.5358 54.2677 37.1596 54.4459 37.7833 54.4459C37.8725 54.4459 37.9616 54.4459 38.0507 54.4459C38.7635 54.4459 39.4764 54.1786 40.0111 53.8222C40.2784 53.5548 40.5457 53.2875 40.7239 53.0202C40.9022 52.6637 41.0804 52.2182 41.0804 51.8618V51.6835C41.0804 51.0598 40.9022 50.5251 40.5457 49.9905C40.2784 49.634 40.0111 49.2776 39.7437 48.9212L33.9517 42.8618C35.1101 41.8816 36.1794 40.9905 37.3378 40.0103C44.4665 34.1291 51.7734 28.6043 59.2586 23.2578C59.4368 23.5251 59.5259 23.8816 59.7041 24.1489C60.3279 25.2182 61.219 26.1093 62.2883 26.6439C62.4665 26.733 62.7338 26.8222 62.9121 26.9113C52.5754 45.1786 42.0606 63.3568 31.5457 81.4459C31.3675 81.8024 31.1002 82.1588 30.922 82.5152C30.7437 82.7825 30.5655 82.9608 30.2982 83.139ZM29.2289 44.733C29.1398 44.5548 29.0507 44.4657 28.9616 44.2875C28.9616 44.1984 28.8725 44.1093 28.8725 44.0202C28.8725 43.9311 28.8725 43.842 28.9616 43.7528C29.1398 43.4855 29.4071 43.3073 29.6744 43.1291C29.8526 43.04 30.0309 42.9509 30.2091 42.9509C30.2982 42.9509 30.4764 43.04 30.5655 43.1291C30.8328 43.3073 31.0111 43.4855 31.1893 43.6637C33.417 46.0697 35.7338 48.3865 37.9616 50.7924C38.1398 50.9707 38.318 51.238 38.4962 51.4162C38.5853 51.5053 38.5853 51.5944 38.5853 51.6835C38.4962 51.7726 38.4962 51.8618 38.4071 51.8618C38.318 51.9509 38.1398 51.9509 38.0507 51.9509H37.9616C37.6942 51.9509 37.4269 51.8618 37.1596 51.6835C36.8031 51.5053 36.4467 51.238 36.1794 50.9707C34.1299 49.4558 32.1695 47.7627 30.3873 45.8915C30.0309 45.6241 29.5853 45.2677 29.2289 44.733Z" fill="black"/>
</svg>
