<svg width="224" height="256" viewBox="0 0 224 256" fill="none" xmlns="http://www.w3.org/2000/svg">
<mask id="mask0_1733_10700" style="mask-type:luminance" maskUnits="userSpaceOnUse" x="0" y="28" width="163" height="228">
<path d="M0 63.045L85.0633 28.9982L162.217 221.76L77.1536 255.807L0 63.045Z" fill="white"/>
</mask>
<g mask="url(#mask0_1733_10700)">
<path d="M94.3402 74.5119C94.3402 74.5119 101.717 71.0282 98.9273 64.0585C95.1485 65.571 60.3976 79.4801 60.3976 79.4801C60.3976 79.4801 65.1099 76.076 64.7885 73.1712C64.4695 70.2656 57.0273 67.6846 58.9759 61.1749C60.9245 54.6653 62.4681 43.7691 55.9862 40.6366C52.9301 41.8598 42.5116 46.0298 42.5116 46.0298C42.5116 46.0298 32.0931 50.1998 29.0393 51.4221C26.5088 58.1619 35.1443 64.9839 41.0438 68.3523C46.9481 71.7188 43.3396 78.7229 45.1135 81.0462C46.8874 83.3696 52.6447 82.5832 52.6447 82.5832C52.6447 82.5832 17.8962 96.4914 14.115 98.0048C16.9047 104.975 24.6479 102.406 24.6479 102.406L53.8839 90.7047L56.6289 93.1975L56.3363 94.6492L58.6032 100.313L58.7004 102.738L66.3503 121.851L68.5199 122.778L73.3188 134.768L72.1803 136.666L64.224 131.81L63.4517 133.074L58.5934 130.111L59.9777 127.85L58.5142 126.956L53.5519 135.071L55.0145 135.963L56.3988 133.702L61.2547 136.666L60.4824 137.929L68.4922 142.818L67.0039 145.303L73.0947 160.521L74.7773 159.848L83.9853 182.853C83.9853 182.853 78.0677 190.663 84.7441 196.821C82.3707 201.157 82.2813 202.733 84.1417 205.582C82.7407 207.478 82.1381 211.105 83.802 214.239C81.3224 217.798 70.221 230.441 76.0413 236.952C85.9067 247.993 99.7345 246.769 119.665 238.792C139.596 230.815 150.451 222.158 149.975 207.36C149.695 198.631 132.934 197.14 128.683 196.275C127.726 192.859 124.787 190.649 122.467 190.243C121.847 186.896 120.696 185.818 115.983 184.317C116.569 175.252 106.898 173.682 106.898 173.682L97.6897 150.677L99.3723 150.003L93.2814 134.786L90.4889 134.013L92.9139 124.948L91.483 124.567L92.953 119.071L95.5126 119.753L95.958 118.097L86.7671 115.647L86.3226 117.306L88.8845 117.987L87.4145 123.483L85.9836 123.101L83.5726 132.106L81.4388 131.518L76.64 119.528L77.5706 117.36L69.9207 98.2474L68.3176 96.4246L66.0507 90.761L64.8373 89.912L65.1042 86.2137L94.3402 74.5119Z" fill="#1C1C1C"/>
</g>
<path d="M176.807 119.555L174.211 120.222L168.143 96.5798C168.063 96.2665 167.956 95.9588 167.827 95.6627L165.513 90.4277L162.048 91.3158L162.53 96.958C162.557 97.2815 162.612 97.6073 162.692 97.9229L168.774 121.619L166.986 122.078C165.896 122.358 165.239 123.465 165.52 124.552C165.799 125.64 166.909 126.296 167.997 126.017L170.791 125.298C183.118 172.91 173.824 186.188 170.601 189.164C168.278 191.309 165.448 191.865 162.416 190.776C156.59 188.678 149.886 180.403 148.054 166.649C140.426 109.442 125.567 96.1191 114.445 95.0161C102.866 93.8672 93.4666 105.508 90.4912 114.141L93.8583 115.298C96.3766 107.989 104.551 97.6121 114.089 98.5587C122.147 99.3565 136.818 109.328 144.524 167.121C146.283 180.314 152.988 191.163 161.207 194.123C164.049 195.146 166.84 195.128 169.367 194.117C170.663 193.598 171.892 192.815 173.017 191.777C177.614 187.535 186.701 172.56 174.241 124.413L177.82 123.493C178.908 123.214 179.564 122.105 179.285 121.016C179.006 119.928 177.898 119.274 176.807 119.555Z" fill="#1C1C1C"/>
<mask id="mask1_1733_10700" style="mask-type:luminance" maskUnits="userSpaceOnUse" x="126" y="7" width="61" height="80">
<path d="M126.734 21.0137L160.511 7.49434L186.706 72.9383L152.928 86.4577L126.734 21.0137Z" fill="white"/>
</mask>
<g mask="url(#mask1_1733_10700)">
<path d="M168.458 27.6461C166.566 22.9191 162.17 19.9408 157.403 19.6244C154.939 14.8812 149.227 12.6912 144.159 14.7199C138.76 16.8808 136.136 23.0028 138.293 28.3922C139.187 30.6256 140.766 32.3744 142.686 33.5124C138.081 37.3939 136.248 43.9221 138.606 49.8134C140.338 54.1407 143.944 57.1568 148.121 58.3082C148.156 58.41 148.186 58.5113 148.225 58.6145C146.929 60.6782 146.594 63.3061 147.568 65.7393C148.337 67.6589 149.779 69.101 151.513 69.9225C150.719 71.2326 150.523 72.8856 151.135 74.4148C152.039 76.6737 154.389 77.9171 156.694 77.5122C156.703 77.9859 156.794 78.4674 156.981 78.9346C157.813 81.0145 159.776 83.5805 161.858 82.747C163.943 81.9127 165.357 77.9951 164.524 75.9152C164.331 75.4318 164.051 75.0097 163.714 74.6514C163.804 74.6207 163.894 74.5956 163.982 74.5603C167.243 73.2552 168.827 69.5552 167.524 66.2993C166.878 64.6841 165.645 63.4841 164.169 62.8402C167.588 60.0936 168.974 55.3436 167.261 51.0651C166.874 50.096 166.351 49.2212 165.729 48.4483C166.404 46.1263 166.498 43.6213 165.913 41.1619C169.204 37.6419 170.364 32.4103 168.458 27.6461Z" fill="#1C1C1C"/>
</g>
</svg>
