<svg width="246" height="432" viewBox="0 0 246 432" fill="none" xmlns="http://www.w3.org/2000/svg">
<path d="M151.598 108.734C151.598 108.734 154.895 110.26 155.368 110.787L156.895 107.49L156.66 107.109L177.27 60.3959C177.27 60.3959 176.223 58.6771 175.603 57.6719C174.983 56.6719 174.077 57.8178 174.077 58.0105C174.077 58.198 173.697 59.9636 172.691 62.0625C171.691 64.1615 153.03 105.583 153.03 105.583L152.603 105.677L151.598 108.734Z" fill="#1C1C1C"/>
<mask id="mask0_1733_10999" style="mask-type:luminance" maskUnits="userSpaceOnUse" x="139" y="0" width="107" height="432">
<path d="M139.34 0H245.809V431.979H139.34V0Z" fill="white"/>
</mask>
<g mask="url(#mask0_1733_10999)">
<path d="M243.313 140.942C245.078 129.629 244.985 123.572 245.417 119.707C245.844 115.843 246.037 111.025 245.938 108.874C245.844 106.728 244.412 97.9989 242.98 93.3687C241.547 88.7384 238.308 81.9624 234.724 77.8114C231.146 73.6603 229.287 73.6603 230.24 72.228C231.198 70.7957 231.245 71.1291 231.959 69.6499C232.677 68.1707 234.724 66.2124 231.818 64.6864C228.907 63.1603 228.474 62.6343 226.516 62.0614C224.563 61.4937 221.177 61.3947 221.177 61.3947C221.177 61.3947 220.459 61.3947 220.459 61.1082C220.459 60.8218 218.745 56.577 218.646 51.8999C218.547 47.2228 218.834 45.4832 218.834 45.4832C218.834 45.4832 219.016 46.0197 222.131 44.8374C225.24 43.6551 229.5 41.6499 229.823 38.3582C230.146 35.0666 227.782 33.9937 227.068 33.5978C226.355 33.2072 225.453 33.0978 225.599 32.7749C225.745 32.4572 231.292 24.2697 227.235 20.0718C223.177 15.8739 219.026 9.85824 211.631 6.61865C204.235 3.36865 197.266 -0.40218 193.115 0.0301117C188.964 0.457194 190.302 2.2749 188.724 4.04053C187.151 5.80095 186.438 7.18636 185.052 8.5249C183.667 9.85824 179.563 15.3009 178.469 15.5353C177.37 15.7749 175.745 16.7801 172.646 16.6812C169.542 16.5874 167.016 17.5874 166.636 18.2124C166.25 18.8322 165.917 19.3062 167.11 20.4051C168.302 21.5041 170.641 23.3634 170.641 23.3634C170.641 23.3634 168.433 28.1968 169.532 30.3582C169.552 30.3999 169.568 30.4364 169.589 30.4728C169.589 30.4728 169.974 28.5666 170.261 28.1343C170.547 27.7072 170.214 31.5718 170.881 32.2384C170.881 32.2384 170.688 30.5249 170.881 30.0457C171.068 29.5666 171.261 30.2801 171.214 30.853C171.167 31.4259 171.12 32.478 170.448 33.7176C169.782 34.9572 169.688 37.728 170.594 39.2541C171.5 40.7801 171.98 41.1134 170.974 43.4051C169.974 45.6968 168.636 48.5562 168.302 49.6551C167.969 50.7541 168.068 51.8999 170.355 52.7124C172.646 53.5249 173.266 52.2801 172.74 53.9989C172.214 55.7176 172.36 57.577 172.927 58.4832C173.506 59.3895 173.886 59.3426 174.506 59.4884C175.131 59.6291 175.698 59.4884 175.365 60.1551C175.032 60.8218 174.891 61.8687 175.792 62.5874C176.703 63.3009 177.271 63.3999 177.37 64.4937C177.464 65.5926 177.61 69.4624 180.901 70.2228C184.193 70.9832 187.011 71.1291 188.964 70.4624C190.922 69.7957 191.209 69.4103 191.636 70.4624C192.068 71.5145 192.448 72.4676 192.782 72.9468C193.115 73.4207 194.974 75.1864 194.12 75.6134C193.261 76.0457 192.162 75.5666 191.349 76.9989C190.542 78.4312 190.776 79.7176 190.542 81.103C190.302 82.4884 188.964 88.7853 188.485 89.9312C188.011 91.077 185.912 95.8009 185.193 98.7332C184.48 101.671 183 104.389 181.141 108.4C179.276 112.405 178.516 116.702 178.323 120.186C178.131 123.666 177.657 126.056 177.464 127.343C177.271 128.629 177.037 129.014 177.037 129.014C177.037 129.014 172.98 126.91 169.927 125.098C166.87 123.285 165.917 123.764 164.631 121.374C163.339 118.994 162.006 115.363 160.287 112.978C158.568 110.593 157.089 109.306 154.797 108.541C152.506 107.775 149.74 107.541 148.407 107.681C147.068 107.827 146.875 107.874 146.875 107.874C146.875 107.874 144.49 106.968 143.631 107.634C142.771 108.301 142.73 110.353 144.203 111.593C144.203 111.593 144.683 112.358 144.396 112.452C144.11 112.546 142.631 112.358 141.87 113.504C141.105 114.65 141.625 116.416 141.625 116.416C141.625 116.416 140.198 116.889 139.912 118.134C139.625 119.369 141.105 121.374 141.105 121.374C141.105 121.374 139.865 122.619 140.386 123.952C140.912 125.291 142.584 126.676 144.203 127.244C145.828 127.822 146.209 128.009 147.308 129.014C148.407 130.014 150.219 131.014 151.412 131.587C152.605 132.16 153.844 133.452 155.849 133.926C157.849 134.405 159.334 134.785 160.813 135.738C162.292 136.697 163.052 137.65 164.724 139.27C166.391 140.895 167.73 142.754 169.542 143.567C171.355 144.379 172.214 144.759 172.214 144.759C172.214 144.759 170.881 150.436 170.068 152.822C169.256 155.207 168.922 156.686 168.589 158.785C168.256 160.889 168.349 162.608 167.636 163.988C166.922 165.374 166.157 166.28 165.964 168.139C165.776 170.004 165.297 172.671 165.297 174.056C165.297 175.442 164.391 181.978 164.584 183.983C164.771 185.988 164.865 186.514 164.771 187.801C164.677 189.093 163.912 190.999 165.344 192.332C166.776 193.671 167.349 193.863 167.157 195.004C166.964 196.15 165.631 198.634 167.49 199.827C169.349 201.02 170.401 200.348 170.115 201.494C169.828 202.639 169.641 204.311 170.162 205.264C170.688 206.218 171.834 207.509 171.74 207.843C171.641 208.176 171.021 208.317 171.068 209.322C171.12 210.322 172.5 214.952 172.5 214.952C172.5 214.952 173.787 215.285 173.313 216.145C172.839 217.004 171.98 218.77 171.308 220.108C170.641 221.442 169.688 223.587 168.495 230.744C167.302 237.905 167.443 242.962 166.964 245.301C166.49 247.639 166.063 250.837 165.537 253.416C165.011 255.988 165.25 262.244 164.964 263.291C164.677 264.337 163.485 268.16 163.959 272.832C164.438 277.509 164.865 282.952 165.344 287.009C165.818 291.061 165.724 296.837 165.724 299.363C165.724 301.895 165.677 305.28 165.631 306.139C165.584 306.999 165.391 313.634 165.724 316.546C166.063 319.457 166.49 319.978 166.297 320.317C166.105 320.645 165.964 321.077 166.105 321.983C166.25 322.889 166.584 324.275 166.724 325.707C166.87 327.139 166.391 327.806 167.823 327.999C169.256 328.186 169.974 328.52 171.5 328.327C173.026 328.139 173.698 328.389 173.698 328.389C173.698 328.389 175.985 331.91 178.276 334.389C180.568 336.869 182.474 341.546 186.386 349.134C190.302 356.723 194.974 366.025 200.417 374.233C205.86 382.442 208.959 389.983 209.771 392.702C210.578 395.421 210.818 397.186 210.724 397.666C210.631 398.139 210.532 399.957 208.959 400.431C207.381 400.905 207.526 400.905 204.761 403.056C201.99 405.202 195.646 409.02 193.594 409.546C191.542 410.072 188.058 411.124 184.24 411.697C180.422 412.264 179.042 414.129 178.849 415.223C178.657 416.322 177.797 418.52 183.047 418.66C188.297 418.806 191.157 418.66 191.157 418.66C191.157 418.66 184.959 420.712 180.855 421.811C176.75 422.905 175.891 424.624 175.844 427.009C175.792 429.395 178.901 430.639 184.865 431.494C190.828 432.353 205 432.02 214.636 430.827C224.276 429.634 231.052 428.869 235.537 428.535C240.021 428.207 244.985 426.296 244.891 424.811C244.797 423.337 243.172 417.561 243.172 416.181C243.172 414.796 243.365 412.311 242.938 411.166C242.506 410.02 242.365 407.874 242.12 406.681C241.881 405.488 241.167 400.525 240.407 400.478C239.641 400.431 238.782 401.098 238.401 399.858C238.021 398.619 236.016 386.4 236.016 375.905C236.016 365.405 235.203 358.869 237.063 350.712C238.927 342.551 239.068 329.233 237.115 322.124C235.157 315.014 234.917 314.254 234.87 314.014C234.823 313.775 235.344 313.082 235.157 312.509C235.157 312.509 234.584 311.53 234.584 310.244C234.584 308.957 234.344 308.384 234.203 308.238C234.058 308.098 233.823 307.957 233.823 306.905C233.823 305.853 233.964 300.942 233.006 298.504C232.052 296.072 231.625 294.212 232.105 292.254C232.578 290.301 233.292 283.666 232.964 281.9C232.625 280.134 232.391 280.707 232.578 278.608C232.771 276.504 234.011 266.155 232.771 259.666C231.532 253.171 230.959 251.504 230.48 250.119C230 248.738 229.381 248.879 229.953 247.827C230.526 246.78 232.433 243.108 235.584 236.619C238.735 230.124 240.933 224.306 241.36 216.624C241.787 208.942 239.308 204.457 237.448 200.78C235.584 197.103 233.724 194.957 232.964 193.91C232.198 192.858 231.719 192.093 231.532 191.186C231.339 190.28 233.105 190.139 232.485 188.947C231.86 187.754 231.052 187.228 231.386 186.035C231.719 184.843 232.865 182.504 232.719 181.358C232.578 180.212 233.006 178.16 232.677 176.541C232.339 174.916 232.052 173.436 232.771 171.863C233.485 170.291 241.547 152.249 243.313 140.942ZM210.485 330.238C210.469 330.192 210.448 330.139 210.417 330.082C209.839 328.832 207.052 325.134 207.052 325.134C207.052 325.134 207.573 324.228 207.526 322.65C207.48 321.077 207.094 320.457 206.771 320.124C206.443 319.785 207 319.311 206.808 318.311C206.62 317.306 207.193 317.212 207.193 317.212C207.193 317.212 207.573 318.546 207.766 319.358C207.959 320.171 208.292 321.457 209.099 323.843C209.912 326.233 210.485 329.759 210.485 329.759C210.485 329.759 210.865 331.291 210.485 330.238Z" fill="#1C1C1C"/>
</g>
<path d="M173.499 68.9427C172.848 67.5625 172.165 66.1927 171.41 64.8594C167.004 74.5677 153.03 105.583 153.03 105.583L152.603 105.677L151.598 108.734C151.598 108.734 154.895 110.26 155.368 110.786L156.895 107.49L156.66 107.109L173.499 68.9427Z" fill="#1C1C1C"/>
<path d="M31.2197 341.096C33.9406 343.027 46.9522 348.341 61.1551 347.19C75.3581 346.044 85.3677 340.835 97.807 331.115C110.251 321.396 117.259 306.654 120.833 299.237C124.408 291.821 126.978 282.79 129.652 272.614C132.321 262.432 135.271 245.015 136.753 235.572C138.231 226.129 140.229 175.476 141.373 167.275C142.518 159.08 145.566 140.742 146.331 136.735C147.096 132.728 149 126 149 126C149 126 148.646 127.277 147.382 128.031C146.113 128.781 144.755 127.725 144.755 127.725C143.36 131.335 140.707 147.374 140.041 151.155C137.232 167.054 136.092 183.159 135.218 199.249C134.542 211.719 135.198 225.058 132.893 237.372C131.889 242.717 128.887 263.764 126.312 271.367C123.742 278.969 123.929 287.446 113.826 304.994C103.717 322.547 97.5729 326.464 89.3269 333.096C81.0808 339.728 67.2109 343.831 53.7675 343.645C40.3242 343.459 27.2658 334.293 27.2658 334.293L27.3126 333.559C27.3126 333.559 27.786 332.312 27.8849 331.211C27.9837 330.105 27.4999 329.592 27.1669 329.315C26.8392 329.039 25.4501 330.009 25.2628 328.812C25.0703 327.616 24.8362 325.172 25.4501 322.175C26.0744 319.184 26.2669 317.434 25.6946 315.453C25.1223 313.472 25.164 311.491 26.0744 308.771C26.9796 306.055 27.5987 303.521 26.4074 301.354C25.216 299.192 24.8362 297.025 25.5958 294.259C26.3605 291.499 26.2669 289.609 25.3564 287.396C24.4512 285.189 25.0235 281.222 25.0235 281.222C25.0235 281.222 25.7362 281.041 27.5987 280.95C29.456 280.86 33.8886 280.533 37.9414 279.336C41.9942 278.139 42.7069 274.082 43.0867 273.856C43.4717 273.624 43.0867 273.856 44.2313 272.976C45.3758 272.106 44.7567 271.276 44.7567 271.276C42.4728 268.742 33.9823 268.093 33.9823 268.093C33.9823 268.093 34.1279 265.333 33.5088 262.754C32.8897 260.174 30.507 261.004 30.507 261.004L29.5549 258.238C28.8838 257.087 22.0684 257.177 22.0684 257.177C22.0684 257.177 15.7317 257.409 15.1126 258.379C14.4883 259.345 14.5404 260.265 14.5404 260.265C14.5404 260.265 11.1067 260.541 9.91531 262.2C8.72393 263.86 9.72282 269.295 9.91531 269.617C9.91531 269.617 4.09887 270.029 1.05018 271.598C-2.00371 273.167 2.57453 274.318 2.57453 274.318C2.57453 274.318 3.81273 278.552 7.00709 279.935C10.2014 281.317 19.8261 281.086 19.8261 281.086C19.8261 281.086 20.9707 284.585 20.3984 286.617C19.8261 288.638 19.3527 291.036 20.1643 293.616C20.9707 296.195 20.7834 297.714 20.1123 299.971C19.4464 302.234 18.4475 303.939 19.207 306.749C19.9718 309.555 21.21 310.752 21.0696 313.286C20.9239 315.82 19.7793 317.71 20.4505 320.521C21.1164 323.332 21.3557 327.108 21.21 328.672C21.21 328.672 20.1123 327.294 19.0666 325.036C18.0209 322.779 16.3509 321.899 15.0606 322.412C13.7756 322.914 13.1565 324.896 15.2063 327.661C17.2561 330.421 17.7763 331.211 17.7763 331.211C17.7763 331.211 17.4486 332.634 18.1145 333.559C18.7804 334.479 18.7804 334.846 18.7804 334.846L18.5931 335.399C18.5931 335.399 17.2041 335.862 16.9179 337.888C16.637 339.914 15.9711 340.236 16.0179 340.558C16.0647 340.88 15.7786 341.297 15.7317 341.85C15.6849 342.403 14.967 342.031 15.2999 343.002C15.6329 343.967 16.0647 344.244 16.2572 344.978C16.4445 345.717 16.5381 346.687 16.637 347.788C16.7306 348.895 16.637 351.202 16.8763 351.756C17.1104 352.309 17.3497 352.63 17.3497 352.811C17.3497 352.997 17.1104 360.228 17.1104 363.27C17.1104 366.312 17.4902 370.319 17.1624 370.641C16.8243 370.963 15.2999 371.697 15.1126 373.497C14.9202 375.292 15.1126 376.303 14.8733 376.489C14.634 376.675 13.4895 377.736 13.3958 379.209C13.297 380.682 13.2501 381.879 12.964 381.879C12.6779 381.879 11.7258 381.788 11.3928 384.232C11.0599 386.67 11.7726 386.535 11.346 387.359C10.9142 388.189 9.38985 389.205 9.62917 390.819C9.86849 392.433 9.15054 392.247 8.72393 392.845C8.29732 393.443 6.43481 395.882 6.34116 399.432C6.24232 402.977 6.48163 405.606 7.38687 407.909C8.29732 410.212 7.29323 414.31 14.0617 415.235C20.8302 416.15 37.2755 417.075 39.5646 412.701C41.8485 408.321 43.4249 397.863 41.8485 394.549C40.2773 391.231 39.2784 390.723 39.0859 389.712C38.8935 388.697 38.6541 387.777 38.1339 387.41C37.6084 387.038 37.0361 387.038 36.9425 386.027C36.8437 385.016 37.3223 382.804 36.3702 381.929C35.413 381.049 35.2257 381.602 35.1788 380.496C35.1268 379.39 34.747 377.595 34.0811 376.996C33.41 376.398 32.9365 376.443 32.9365 375.478C32.9365 374.508 33.8418 373.401 32.3643 371.516C30.8867 369.625 30.6995 369.49 30.6006 368.705C30.507 367.921 30.7463 361.983 30.5538 357.467C30.3613 352.947 30.507 352.309 30.3145 351.756C30.1272 351.202 30.0283 351.564 30.2208 350.785C30.4133 350.001 30.5538 349.081 30.5538 347.884C30.5538 346.687 30.4601 344.887 30.6474 344.289C30.8399 343.69 31.3186 342.956 31.3654 342.494C31.4122 342.031 31.2197 341.096 31.2197 341.096Z" fill="#1C1C1C"/>
<path d="M146.038 47.1404C147.111 46.3696 148.856 48.1769 149.371 48.9581C150.121 50.104 150.257 51.8592 148.824 52.5571C147.611 53.1456 145.84 52.5727 145.632 51.1144C145.47 49.9634 147.007 49.3904 147.554 50.4373C147.652 50.6352 147.376 50.8644 147.205 50.7134C146.819 50.3748 146.392 50.4009 146.277 50.9529C146.147 51.5675 147.179 51.88 147.574 51.9321C148.501 52.0519 149.017 51.3019 149.007 50.4686C148.991 49.7498 148.736 48.9113 148.267 48.3644C147.913 47.9373 147.455 47.6977 146.913 47.5988C146.606 47.5415 146.345 47.604 146.054 47.4946C141.496 49.0623 144.272 52.7029 146.241 54.6509C148.106 56.4946 150.658 57.5571 153.074 58.479C158.069 60.3852 162.856 59.7967 167.996 60.2498C168.559 60.3019 168.402 61.1561 167.845 61.1144C163.444 60.7915 159.501 61.2446 155.163 59.9738C151.85 58.9998 148.481 57.4269 145.845 55.1665C143.376 53.0519 140.871 47.2654 146.038 47.1404Z" fill="#1C1C1C"/>
<path d="M129.637 49.0559C131.835 51.6341 134.647 53.1445 137.345 55.1341C140.569 57.5091 144.111 59.2643 147.835 60.7174C151.944 62.3111 156.329 62.9986 160.704 63.3424C163.079 63.5247 166.59 63.4986 168.803 62.2747C169.105 62.108 169.361 62.5716 169.064 62.7486C167.444 63.6914 165.001 63.9622 163.152 64.0299C158.381 64.2122 153.236 63.3841 148.699 61.9361C144.569 60.6184 140.34 58.4414 136.85 55.8945C134.381 54.082 130.163 52.4518 129.152 49.3216C129.069 49.0559 129.454 48.8424 129.637 49.0559Z" fill="#1C1C1C"/>
<path d="M148.778 65.2772C151.486 65.5324 154.111 66.3501 156.819 66.6835C160.674 67.1678 164.106 66.2981 167.585 64.6783C167.804 64.5741 167.981 64.8658 167.773 65.0064C162.325 68.6939 154.616 67.9803 148.731 65.6574C148.549 65.5793 148.543 65.2564 148.778 65.2772Z" fill="#1C1C1C"/>
</svg>
