<svg width="276" height="323" viewBox="0 0 276 323" fill="none" xmlns="http://www.w3.org/2000/svg">
<g clip-path="url(#clip0_1718_11014)">
<mask id="mask0_1718_11014" style="mask-type:luminance" maskUnits="userSpaceOnUse" x="45" y="39" width="301" height="262">
<path d="M45.3438 181.139L119.488 39.9771L345.807 158.849L271.663 300.011L45.3438 181.139Z" fill="white"/>
</mask>
<g mask="url(#mask0_1718_11014)">
<path d="M196.81 96.915C216.261 99.6169 223.061 120.769 211.886 127.524C214.346 130.274 215.45 133.823 214.865 137.219C213.75 143.75 208.804 143.599 209.313 144.956C211.445 150.509 213.634 156.209 213.554 162.081C213.359 177.48 202.243 185.979 191.704 184.568C193.451 187.144 195.537 194.919 184.36 196.459C157.567 200.156 193.489 235.271 206.668 194.017C209.925 183.798 213.419 169.726 226.358 167.879C232.839 166.954 239.626 170.827 242.247 176.75C255.463 167.707 274.924 181.489 267.745 197.63C273.231 200.315 275.889 207.463 273.639 213.638C271.13 220.542 264.328 223.749 258.367 227.561C257.641 228.022 257.886 229.133 258.734 229.172C266.206 229.498 272.661 235.099 271.827 242.574C271.591 245.099 267.334 255.221 277.271 257.614C287.092 259.981 296.63 248.776 297.586 249.745C297.787 249.951 297.792 250.302 297.593 250.549C291.499 258.11 284.608 265.121 275.542 265.013C256.079 264.771 269.891 241.72 259.21 238.947C249.133 236.333 251.133 257.694 230.726 260.875C207.861 264.436 190.266 233.907 230.504 232.985C246.946 232.606 254.965 222.867 254.196 213.665C253.216 202.041 238.478 198.359 233.558 207.727C230.853 212.877 233.631 225.353 221.065 228.56C217.052 229.584 212.537 228.731 209.19 226.366C206.654 253.516 179.771 250.266 176.601 235.253C146.867 246.911 125.182 220.473 137.711 202.391C108.384 189.743 123.566 150.507 153.454 159.325C148.638 148.542 157.633 133.49 172.173 135.491C168.066 128.178 170.913 119.954 177.59 116.956C171.352 115.798 165.111 112.137 160.606 106.849C167.517 122.666 149.608 152.287 119.678 135.851C80.5508 114.361 106.007 58.932 105.619 70.9469C105.241 82.2718 106.613 107.037 114.446 103.473C120.863 100.551 118.401 85.1754 119.03 79.8043C119.542 75.4227 122.216 74.7322 124.356 76.3547C124.412 76.3957 138.074 93.2701 138.864 89.0349C140.392 80.8192 147.289 72.8761 155.777 69.7653C173.803 63.1483 195.025 77.6543 196.81 96.915Z" fill="#F5F5F5"/>
</g>
<path d="M102.912 80.1934C104.366 117.668 123.419 135.48 139.831 137.44C139.735 137.622 131.422 139.15 121.012 133.431C101.652 122.799 97.2844 100.91 102.912 80.1934Z" fill="#F5F5F5"/>
<path d="M152.705 208.763C156.29 213.162 154.653 219.62 156.302 224.796C158.45 231.518 165.413 235.16 172.155 233.575C149.076 239.436 136.805 225.051 137.445 214.045C137.905 206.177 147.595 202.484 152.705 208.763Z" fill="#F5F5F5"/>
<path d="M226.143 241.942C228.032 246.684 224.503 250.165 224.759 253.342C225.168 258.276 232.237 258.247 229.837 258.533C217.346 260.009 206.097 249.852 210.246 241.953C213.828 235.133 223.698 235.815 226.143 241.942Z" fill="#F5F5F5"/>
<path d="M150.082 162.266C146.976 162.455 144.119 163.382 142.524 166.22C139.817 171.049 143.994 176.513 146.154 180.071C154.634 194.035 138.481 201.744 128.799 192.116C128.172 191.787 122.532 181.696 127.763 171.737C135.746 156.537 153.157 162.079 150.082 162.266Z" fill="#F5F5F5"/>
<path d="M205.636 230.144C205.697 230.176 204.385 234.852 203.277 236.961C197.003 248.907 180.835 244.377 179.994 234.902C179.525 229.627 185.182 224.782 190.285 230.566C192.259 232.813 194.376 237.268 198.228 237.316C201.725 237.363 204.605 232.873 205.636 230.144Z" fill="#F5F5F5"/>
<path d="M174.651 138.815C161.361 139.624 169.57 151.176 168.552 157.758C167.593 163.961 158.944 164.922 156.548 159.122C152.639 149.651 158.594 136.752 174.651 138.815Z" fill="#F5F5F5"/>
<path d="M263.066 167.961C273.036 173.568 274.895 186.277 271.693 193.397C272.582 187.149 270.298 180.414 265.483 176.32C258.382 170.27 254.308 173.941 254.551 170.087C254.705 167.284 258.182 165.218 263.066 167.961Z" fill="#F5F5F5"/>
<path d="M118.431 180.26C118.162 189.207 122.906 197.883 132.495 203.14C123.392 203.47 114.308 199.893 111.851 197.211C108.094 193.119 112.689 189.44 115.451 191.146C110.339 186.66 109.497 181.764 111.046 178.38C112.591 175.005 118.545 176.555 118.431 180.26Z" fill="#F5F5F5"/>
<path d="M199.264 92.2467C197.53 83.8754 192.38 76.3191 185.482 71.2658C182.747 69.2609 183.733 65.1246 186.913 65.554C196.804 66.8876 203.881 83.6472 199.264 92.2467Z" fill="#F5F5F5"/>
<path d="M251.373 229.097C257.629 226.186 257.334 225.196 256.346 227.077C255.403 228.871 256.561 230.994 258.563 231.068C260.509 231.147 262.49 231.658 264.236 232.544C255.728 228.894 254.003 236.505 250.679 239.169C245.226 243.537 238.376 235.162 251.373 229.097Z" fill="#F5F5F5"/>
<path d="M194.711 98.9197C215.235 101.683 219.736 120.109 210.636 125.615C207.832 127.304 208.018 126.389 210.29 128.931C213.193 132.154 213.434 136.296 211.914 139.189C210.525 141.834 208.27 141.733 207.371 143.444C205.934 146.18 211.508 152.239 211.396 161.96C211.243 175.645 201.677 183.798 191.942 182.462C185.989 181.659 186.419 180.663 189.855 185.676C192.384 189.436 190.905 193.406 183.975 194.37C154.694 198.334 188.295 235.41 205.214 203.198C211.262 191.682 212.048 172.067 226.719 169.939C232.413 169.114 237.831 171.833 241.396 179.816C255.994 169.752 272.619 181.913 265.236 198.589C278.332 204.942 272.579 220.119 258.831 224.804C272.745 214.702 264.832 203.854 258.107 204.972C264.036 198.488 259.834 185.89 249.72 185.356C245.288 185.131 240.813 187.674 238.733 191.634C241.138 179.673 221.414 168.726 212.73 190.006C209.106 198.88 208.428 213.41 191.899 219.371C178.008 224.387 162.286 218.132 158.43 207.861C156.315 202.247 158.444 195.278 164.085 192.636C166.959 191.285 170.326 191.167 173.557 190.947C185.996 190.116 186.771 183.658 185.004 180.782C200.284 174.307 203.31 155.181 189.948 139.164C200.298 142.331 205.65 131.458 199.212 124.454C209.523 121.029 202.233 101.092 185.294 105.462C182.433 75.2151 142.677 76.0077 147.04 97.832C148.096 103.114 131.428 101.333 125.939 80.5409C137.413 95.2576 141.097 91.9972 141.097 91.9972C145.61 60.5978 191.529 64.7427 194.711 98.9197Z" fill="#F5F5F5"/>
<path d="M182.416 144.026C181.882 144.631 189.605 152.499 183.618 163.309C177.724 173.948 167.226 171.518 166.83 172.126C166.49 172.639 169.355 175.884 167.153 180.966C165.959 183.725 163.592 185.818 160.574 186.575C157.095 187.442 171.952 189.015 171.47 175.854C177.237 176.583 184.029 173.088 187.009 166.207C192.237 154.133 183.854 142.362 182.416 144.026Z" fill="#F5F5F5"/>
<path d="M88.0286 52.2738C92.852 58.0234 90.6111 67.2796 90.21 66.0561C87.0415 56.3979 79.8103 54.8572 82.2109 51.3171C83.2343 49.8175 86.0312 49.8872 88.0286 52.2738Z" fill="#F5F5F5"/>
<path d="M97.8521 64.1451C92.0535 83.516 96.751 101.84 96.6237 102.082C82.6309 67.3953 101.466 51.3619 97.8521 64.1451Z" fill="#F5F5F5"/>
</g>
<defs>
<clipPath id="clip0_1718_11014">
<rect width="203.692" height="306.195" fill="white" transform="translate(0 180.33) rotate(-62.2897)"/>
</clipPath>
</defs>
</svg>
