<svg width="227" height="335" viewBox="0 0 227 335" fill="none" xmlns="http://www.w3.org/2000/svg">
<g clip-path="url(#clip0_1733_10694)">
<path d="M2.28541 216.058C-10.5593 228.612 2.90265 217.854 10.7497 223.014C26.1058 233.086 20.818 220.396 39.8733 221.916C49.0693 222.655 48.5006 225.484 52.7329 229.305C68.1073 243.15 45.9641 246.622 43.0047 237.301C40.0098 228.037 33.0164 226.115 27.7748 234.144C22.2906 242.556 10.9678 232.574 3.0216 229.738C-8.6344 225.581 -13.1342 230.209 -14.2226 241.935C-16.2225 263.417 -23.0395 257.233 -27.0224 260.443C-28.9298 262.006 -22.5337 266.325 -23.4894 268.796C-27.8666 279.921 -25.0678 269.541 -27.2414 266.877C-36.8613 255.046 -16.1879 258.237 -21.1099 242.851C-24.314 232.961 -16.5128 236.386 -17.0617 230.077C-18.1386 218.153 -2.10901 213.234 2.28541 216.058Z" fill="#1C1C1C"/>
<path d="M128.346 233.819C128.397 233.738 128.424 233.031 128.703 232.715C132.676 228.316 134.509 243.874 118.502 244.408C116.002 244.495 108.979 245.513 110.334 241.624C110.837 240.227 124.197 243.379 128.346 233.819Z" fill="#1C1C1C"/>
<path d="M47.363 78.9103C57.5516 77.73 57.9717 65.8472 57.8562 74.7767C57.735 81.5338 48.6161 82.6675 48.3757 82.7421C43.2411 84.6944 41.5834 86.223 40.4709 92.2035C39.4951 97.3586 41.9646 107.389 46.1323 111.056C53.2908 117.303 58.0208 119.009 54.0207 128.396C53.0245 130.689 48.2209 132.659 44.2103 131.217C33.0586 127.227 40.5681 120.744 31.7675 107.801C25.3984 98.445 34.1611 80.4547 47.363 78.9103Z" fill="#1C1C1C"/>
<path d="M23.2822 140.127C26.3323 140.196 28.676 133.063 46.536 139.785C47.6824 140.206 47.2522 140.165 48.4556 140.129C58.7763 140.368 80.5972 140.598 81.7484 125.456C82.3036 118.249 38.1866 118.47 50.9073 87.9107C54.102 80.2168 58.2043 92.0068 65.2339 69.7631C70.6916 52.5281 88.1324 40.984 104.312 53.1355C110.765 58.0233 111.807 68.86 129.573 58.6656C138.803 53.3871 151.854 63.4814 149.836 77.3935C149.194 81.8432 160.889 89.3727 170.866 69.8343C176.664 58.5099 196.469 60.1201 199.753 78.5698C200.581 83.232 218.018 93.941 203.191 111.008C201.637 112.795 199.687 114.182 197.756 115.235C192.15 118.29 192.008 117.441 191.986 116.742C192.004 115.994 192.499 115.094 193.294 112.33C195.056 106.232 194.265 97.5274 170.341 106.102C151.148 113.001 138.465 76.1048 125.365 91.3467C118.323 99.5653 105.622 71.7354 95.5484 71.9586C87.5359 72.1221 67.9836 87.1851 86.09 83.0888C86.5059 82.9727 105.691 88.4493 92.8241 89.5207C89.2343 89.8249 74.5467 100.037 90.2786 105.298C100.638 108.786 122.387 122.455 117.209 137.136C113.865 146.637 91.7918 125.772 95.9721 147.98C97.4303 155.625 81.4585 164.373 69.0134 159.715C62.6963 157.384 39.6777 149.936 51.9189 165.706C52.2547 166.145 77.5103 177.598 81.8737 176.676C92.8869 174.43 104.251 168.679 114.988 170.242C127.674 172.054 137.512 184.136 137.132 197.035C137.025 200.764 135.452 203.607 132.643 199.658C129.647 195.403 125.395 190.658 128.862 202.425C136.053 226.767 125.371 242.058 99.5754 231.707C87.3019 226.779 89.9355 256.207 65.1649 234.583C59.6615 229.769 56.3208 224.728 49.1004 219.542C41.8394 214.295 37.7293 213.972 30.5412 215.605C17.208 218.624 23.2673 211.528 27.4716 207.546C35.7121 199.668 48.2731 207.702 56.3605 212.905C63.2151 217.284 87.3372 225.283 94.5705 221.701C112.366 212.852 109.415 179.23 85.4592 186.345C72.9807 190.058 73.7417 198.02 58.4607 184.693C49.9424 177.274 35.7492 190.688 34.2361 175.228C34.1267 174.016 23.0864 168.769 18.7585 162.758C14.3124 156.581 15.62 139.98 23.2822 140.127ZM170.846 89.3413C174.652 87.3108 178.346 85.0961 182.175 83.1541C182.986 82.7954 193.389 85.5913 191.505 78.9246C191.482 78.8359 190.946 78.1166 190.857 78.0211C181.513 65.1525 176.826 87.0172 164.073 85.6166C155.576 84.6745 166.334 91.7582 170.846 89.3413ZM93.2665 226.474C89.3942 226.372 89.5406 227.949 82.5539 226.445C76.7849 225.181 65.3341 222.327 60.5649 219.305C57.4867 217.355 42.2409 206.86 39.6272 209.419C41.7107 211.499 50.8674 214.412 55.9048 220.149C67.656 233.561 61.1022 220.75 74.7195 229.527C83.9248 235.439 80.1157 228.125 87.9016 229.524C93.1279 230.488 98.1938 226.594 93.2665 226.474ZM113.643 178.1C116.915 180.173 118.608 181.054 120.711 184.551C122.513 187.553 127.73 187.402 129.831 190.597C130.008 190.858 136.029 190.763 128.751 186.151C128.532 186.012 128.56 186.03 128.477 185.864C126.688 181.693 119.919 174.706 114.878 174.702C113.358 174.69 110.345 176.01 113.643 178.1Z" fill="#1C1C1C"/>
<path d="M123.564 126.513C122.775 125.105 117.097 122.188 124.147 124.146C125.389 124.479 127.191 125.735 127.501 126.271C131.935 133.563 123.187 140.435 124.101 143.632C127.353 154.962 115.065 152.53 113.134 153.584C108.733 155.957 112.242 151.5 113.32 151.232C126.379 148.231 115.696 142.6 119.488 139.989C123.313 137.403 125.692 130.331 123.564 126.513Z" fill="#1C1C1C"/>
</g>
<defs>
<clipPath id="clip0_1733_10694">
<rect width="163" height="293" fill="white" transform="matrix(-0.844678 -0.535275 -0.535275 0.844678 226.52 87.25)"/>
</clipPath>
</defs>
</svg>
