<svg width="442" height="243" viewBox="0 0 442 243" fill="none" xmlns="http://www.w3.org/2000/svg">
<g clip-path="url(#clip0_1733_10941)">
<mask id="mask0_1733_10941" style="mask-type:luminance" maskUnits="userSpaceOnUse" x="48" y="37" width="385" height="182">
<path d="M57.7969 37.0312L432.394 58.9862L423.028 218.78L48.4315 196.825L57.7969 37.0312Z" fill="white"/>
</mask>
<g mask="url(#mask0_1733_10941)">
<path d="M49.561 187.396C111.065 192.697 115.661 189.93 141.364 193.987C145.975 194.717 150.604 195.578 154.944 197.287C159.095 198.929 162.93 201.329 167.167 202.731C179.824 206.921 193.508 201.682 206.84 201.659C217.766 201.637 228.422 205.157 239.332 205.682C255.075 206.438 270.358 200.979 285.832 197.968C309.955 193.267 324.578 194.098 343.885 196.09C354.485 197.181 366.494 198.626 382.26 199.696C395.361 200.589 424.331 196.511 424.331 196.511C412.284 195.357 394.703 196.59 382.726 194.866C366.378 192.509 348.088 188.996 338.854 175.286C334.481 168.795 330.97 159.449 323.156 159.33C317 159.241 312.444 167.274 315.674 172.524C311.038 176.045 303.83 172.894 301.073 167.756C298.328 162.617 298.747 156.433 299.27 150.631C299.793 144.824 300.28 138.654 297.626 133.469C294.719 127.784 287.998 124.322 281.693 125.257C275.383 126.197 269.956 131.456 268.816 137.744C267.554 134.263 266.206 130.647 263.5 128.125C260.793 125.608 256.298 124.598 253.403 126.902C248.161 131.06 252.822 140.276 249.2 145.907C246.152 150.653 238.228 149.918 234.737 145.487C231.24 141.051 231.471 134.621 233.491 129.35C235.517 124.074 239.053 119.555 241.926 114.694C245.21 109.131 247.298 101.188 242.529 96.8388C238.745 93.3876 231.68 94.9978 229.758 99.7477C228.959 101.73 228.84 104.196 227.122 105.468C223.538 108.133 219.758 102.673 216.381 99.7463C211.238 95.2814 203.359 96.7291 196.956 99.0565C192.92 100.531 188.82 102.399 185.313 104.901C181.921 107.311 179.09 110.317 177.39 114.12C175.576 118.187 175.582 122.805 176.953 127.012C178.905 133.043 183.641 138.235 189.81 139.807C193.352 140.709 197.29 140.621 200.293 142.707C203.301 144.793 203.924 150.458 200.42 151.5C199.65 151.726 198.818 151.683 198.075 151.989C195.717 152.962 195.955 156.278 195.822 158.827C195.365 167.503 185.251 173.337 176.752 171.571C168.257 169.806 161.844 162.522 158.308 154.583C155.058 147.276 153.934 138.148 158.653 131.689C160.446 129.232 163.007 127.28 164.225 124.482C166.129 120.117 164.637 115.047 165.315 110.334C166.019 105.44 175.729 104.193 183.378 101.24C185.497 100.425 187.462 99.4757 189.03 98.2789C202.039 88.3563 203.93 63.7529 186.62 50.0239C173.797 39.8604 152.892 41.9847 143.473 55.3732C140.33 59.848 138.036 65.5204 133.011 67.6676C125.97 70.667 117.003 65.1068 110.515 69.1716C103.95 73.2894 105.841 83.8556 111.21 89.4449C113.649 91.9878 116.84 95.5817 114.749 98.4173C114.488 98.7725 114.195 99.0475 113.88 99.2586C111.159 101.092 106.585 98.038 102.777 97.9348C98.183 97.8064 94.6463 103.672 96.8945 107.685C97.6453 109.029 98.8606 110.102 99.4133 111.532C100.537 114.431 98.5222 117.657 96.0391 119.52C93.5511 121.378 90.5232 122.479 88.235 124.578C81.0724 131.154 85.0243 147.669 94.042 151.281C112.888 158.823 120.645 141.576 122.481 147.72C125.557 158.001 114.462 158.227 115.87 164.466C116.724 168.241 121.743 169.485 123.509 172.922C126.357 178.447 118.803 184.036 112.602 183.735C106.401 183.424 100.177 180.398 94.2073 182.109C91.2677 182.949 88.6966 184.89 85.7019 185.513C82.3111 186.217 78.8466 185.153 75.4758 184.361C72.1049 183.568 68.3664 183.083 65.3503 184.784C62.3341 186.486 46.1141 187.1 49.561 187.396Z" fill="#1C1C1C"/>
</g>
<mask id="mask1_1733_10941" style="mask-type:luminance" maskUnits="userSpaceOnUse" x="48" y="94" width="301" height="121">
<path d="M54.4062 94.8438L348.823 112.099L342.846 214.081L48.4292 196.825L54.4062 94.8438Z" fill="white"/>
</mask>
<g mask="url(#mask1_1733_10941)">
<path d="M49.5586 187.395C111.062 192.695 115.659 189.928 141.361 193.986C145.973 194.715 150.602 195.576 154.942 197.286C159.092 198.928 162.927 201.328 167.165 202.73C179.822 206.92 193.506 201.68 206.837 201.658C217.764 201.636 228.42 205.156 239.329 205.681C255.073 206.437 270.356 200.978 285.829 197.966C309.953 193.266 324.575 194.097 343.882 196.089C335.69 192.098 328.546 185.893 325.303 177.496C324.765 182.943 320.847 187.92 315.671 189.709C310.5 191.503 304.352 190.021 300.561 186.063C295.91 191.978 289.182 197.026 281.669 196.846C274.156 196.667 266.838 189.163 269.09 181.98C271.182 175.3 279.235 172.949 286.09 171.614C280.258 168.851 275.854 163.25 274.534 156.928C271.028 166.896 260.221 172.362 249.886 174.495C244.425 175.625 238.618 176.078 233.388 174.149C228.164 172.225 223.687 167.414 223.587 161.836C223.149 169.829 212.443 175.097 205.859 170.548C207.156 182.785 199.736 195.884 188.016 199.569C176.291 203.249 161.828 195.509 159.769 183.378C152.793 183.736 145.779 179.851 142.381 173.745C138.982 167.64 139.363 159.623 143.327 153.871C135.032 154.752 126.41 150.427 122.141 143.249C121.173 141.611 120.39 139.734 120.632 137.844C121.17 133.639 126.137 131.681 130.354 131.308C134.57 130.939 139.307 131.112 142.374 128.188C142.943 127.653 143.442 126.983 143.57 126.208C143.943 123.955 141.348 122.55 139.507 121.211C135.439 118.255 133.894 112.3 136.003 107.728C127.892 110.461 118.22 106.534 113.878 99.2574C111.156 101.091 106.582 98.0368 102.775 97.9337C98.1806 97.8053 94.6438 103.671 96.892 107.684C97.6428 109.027 98.8582 110.1 99.4108 111.531C100.535 114.43 98.5197 117.656 96.0366 119.519C93.5487 121.377 90.5208 122.477 88.2326 124.576C81.0699 131.153 85.0219 147.668 94.0395 151.28C112.886 158.822 120.643 141.575 122.479 147.719C125.555 158 114.46 158.226 115.868 164.465C116.721 168.24 121.741 169.484 123.506 172.921C126.354 178.446 118.801 184.034 112.6 183.734C106.399 183.422 100.175 180.397 94.2048 182.108C91.2652 182.948 88.6941 184.889 85.6994 185.512C82.3087 186.216 78.8442 185.152 75.4733 184.359C72.1024 183.567 68.364 183.082 65.3478 184.783C62.3316 186.485 46.1116 187.099 49.5586 187.395Z" fill="#1C1C1C"/>
</g>
<mask id="mask2_1733_10941" style="mask-type:luminance" maskUnits="userSpaceOnUse" x="43" y="8" width="64" height="60">
<path d="M46.957 8.41992L106.854 11.9305L103.582 67.7617L43.6848 64.2512L46.957 8.41992Z" fill="white"/>
</mask>
<g mask="url(#mask2_1733_10941)">
<path d="M46.8138 24.2105C46.8366 25.0675 46.9322 25.9287 47.1128 26.7636C48.1785 31.7251 51.8538 35.9578 56.4621 38.0696C57.4327 38.5125 58.5861 39.0393 58.7748 40.0938C58.9542 41.1269 58.084 41.9993 57.4957 42.8674C55.8572 45.2757 56.3959 48.902 58.6574 50.7301C60.5301 52.2486 63.6008 52.3764 66.0014 52.5431C77.8011 53.3756 86.1552 54.9556 91.7506 66.3964C91.0697 62.8817 89.8683 59.7018 88.9516 57.9838C87.6118 55.474 85.5282 53.3693 83.0307 52.0073C80.5739 50.6634 78.2258 49.9571 75.7803 48.5981C72.9356 47.0175 71.2966 45.6954 69.8254 42.5779C69.4723 41.8373 68.7686 39.0674 68.9506 37.6537C69.171 35.9397 70.3247 34.5935 72.3909 34.2346C74.088 33.9427 77.4286 35.1611 79.2594 36.6823C82.702 39.5449 84.3767 43.3734 86.7646 45.715C85.201 43.3747 85.0694 41.4366 85.2748 39.5339C85.4091 38.3105 86.3034 36.8499 88.2805 36.0528C89.4664 35.5797 91.9031 35.4877 93.9008 36.6535C98.1783 39.1581 97.2523 42.6724 98.9859 48.6121C99.7073 51.0804 103.392 55.9606 103.624 56.2612C103.486 56.034 101.618 52.9298 100.825 48.6521C100.194 45.2708 101.903 41.4737 102.761 38.138C103.288 36.0924 103.883 34.0456 104.271 31.971C104.514 30.6653 104.68 29.355 104.7 28.0206C104.746 24.5798 103.635 20.9252 100.931 18.7999C98.5723 16.9451 95.2627 16.532 92.3996 17.4025C89.5313 18.2726 87.1106 20.3168 85.4361 22.8064C84.8934 23.6093 84.3277 24.5362 83.3947 24.7893C81.8784 25.2013 80.6232 23.6512 79.75 22.3479C76.682 17.723 72.6327 13.5518 67.5078 11.4411C62.3833 9.32512 56.0652 9.59132 51.7395 13.0734C48.4599 15.7089 46.7061 19.9938 46.8138 24.2105Z" fill="#1C1C1C"/>
</g>
<path d="M46.8139 24.21C46.8367 25.067 46.9323 25.9282 47.1129 26.7631C48.1786 31.7246 51.8539 35.9573 56.4622 38.0691C57.4327 38.512 58.5862 39.0388 58.7748 40.0933C58.9543 41.1264 58.084 41.9988 57.4958 42.8669C55.8573 45.2752 56.396 48.9015 58.6575 50.7296C60.5302 52.248 63.6009 52.3758 66.0015 52.5426C77.8011 53.3751 86.1553 54.9551 91.7507 66.3958C91.0698 62.8812 89.8683 59.7013 88.9517 57.9833C87.6118 55.4735 85.5283 53.3688 83.0308 52.0068C80.574 50.6629 78.2258 49.9566 75.7803 48.5976C72.9356 47.017 71.2967 45.6949 69.8255 42.5774C69.4724 41.8367 68.7687 39.0669 68.9506 37.6532C69.1711 35.9392 70.3248 34.593 72.391 34.2341C74.088 33.9422 77.4287 35.1606 79.2595 36.6818C82.7021 39.5444 84.3768 43.3729 86.7647 45.7145C85.201 43.3742 85.0694 41.4361 85.2749 39.5334C85.4092 38.31 86.3034 36.8494 88.2806 36.0523C89.4665 35.5792 91.9032 35.4872 93.9009 36.653C98.1783 39.1575 97.2524 42.6719 98.9859 48.6116C99.7073 51.0799 103.392 55.9601 103.624 56.2607C103.486 56.0335 101.618 52.9293 100.825 48.6516C100.194 45.2703 101.903 41.4732 102.761 38.1375C103.288 36.0919 103.883 34.0451 104.271 31.9704C102.612 33.1254 100.46 33.5158 98.6677 33.3898C95.9141 33.1919 92.6973 29.2365 91.7107 26.664C92.462 28.8001 91.3711 31.924 89.2218 32.6327C88.0086 33.0364 87.2746 33.009 86.0111 32.8463C84.7165 32.6817 82.438 31.7656 81.8438 30.5986C82.4032 32.0922 80.868 33.8074 79.2824 33.7093C77.6917 33.6109 76.4292 32.0969 76.256 30.5111C71.717 31.6694 66.5597 29.8437 63.7543 26.0794C61.7729 29.5318 57.0552 30.7997 53.2903 29.5199C50.5892 28.6051 48.3837 26.6237 46.8139 24.21Z" fill="#1C1C1C"/>
<path d="M69.0226 16.2296C66.0177 15.1561 63.5979 15.3169 60.4119 15.3754C60.0202 15.3837 58.5433 15.7458 57.9063 16.1102C59.6922 16.1731 62.119 16.1589 63.4174 17.7741C63.9087 18.382 64.1508 19.1474 64.4745 19.8551C64.5207 19.9569 64.5819 20.0701 64.6899 20.0973C64.7874 20.1239 64.8896 20.0725 64.9758 20.0253C66.1902 19.3348 67.4156 18.6345 68.7575 18.2592C70.0995 17.884 71.5978 17.8674 72.8271 18.5238C72.8271 18.5238 71.5114 17.1163 69.0226 16.2296Z" fill="#1C1C1C"/>
<path d="M157.868 106.933C163.709 111.418 164.805 116.402 164.227 124.481C166.131 120.116 164.639 115.046 165.317 110.333C166.021 105.439 175.73 104.192 183.38 101.239C173.754 102.923 155.806 101.871 152.115 91.2362C152.115 91.2362 150.344 101.155 157.868 106.933Z" fill="#1C1C1C"/>
<path d="M119.751 52.5609C120.45 54.8818 122.609 56.8501 125.464 57.4556C129.411 58.2974 133.195 56.2288 133.916 52.838C133.944 52.7093 133.967 52.5802 133.985 52.4508C134.432 49.1901 131.87 45.9879 128.078 45.1813C124.13 44.3395 120.347 46.4081 119.626 49.7989C119.425 50.7314 119.48 51.6737 119.751 52.5609Z" fill="#1C1C1C"/>
<path d="M119.755 52.5632C120.453 54.8841 122.613 56.8524 125.468 57.4579C129.415 58.2997 133.199 56.2311 133.919 52.8403C133.947 52.7116 133.971 52.5825 133.989 52.4531C133.904 52.4794 133.813 52.5055 133.724 52.5211C132.524 52.7899 131.255 52.272 130.327 51.4611C129.399 50.6502 128.752 49.5793 128.115 48.5194C127.978 48.9861 128.153 49.4816 128.192 49.9587C128.232 50.4462 128.046 51.0405 127.571 51.1326C127.344 51.1767 127.093 51.089 126.879 51.1808C126.376 51.3965 126.644 52.1687 126.462 52.6902C126.23 53.3549 125.329 53.4169 124.628 53.3653C123.859 53.3046 123.085 53.2436 122.316 53.1881C121.646 53.1332 120.966 53.0777 120.338 52.8426C120.129 52.7625 119.936 52.6678 119.755 52.5632Z" fill="#1C1C1C"/>
<path d="M0.231161 118.719C2.41205 124.058 7.95478 129.455 13.5638 133.008C20.2141 137.222 28.1712 138.455 36.0357 138.775C28.7651 142.919 26.5229 153.848 31.5729 160.53C36.0033 166.388 44.3377 168.129 51.5296 166.662C58.7267 165.195 64.5841 163.352 72.0331 159.902C74.3396 158.826 83.3602 156.334 83.3602 156.334C79.4986 156.348 75.6408 155.407 72.2184 153.626C69.3171 152.12 66.5291 149.661 66.1877 146.406C65.8411 143.151 69.9307 140.939 72.2753 141.17C60.5123 140.069 47.1839 138.082 40.5471 128.297C39.376 126.559 38.4546 124.564 38.4264 122.465C38.3686 118.288 41.9884 114.744 46.0085 113.628C50.0289 112.507 54.328 113.307 58.3476 114.424C55.9625 112.479 56.3149 108.425 58.448 106.213C60.5866 103.996 63.8865 103.328 66.9646 103.42C73.7978 103.622 80.4571 107.237 84.3639 112.86C78.888 104.009 81.0107 94.5859 80.7856 85.8755C80.6819 81.68 80.0259 77.6503 77.7136 73.9305C72.9457 66.2634 60.7859 64.7212 54.259 70.9542C53.2811 71.8829 52.388 72.9679 51.1525 73.4851C47.5634 74.9912 44.0279 71.0432 40.1641 70.5611C36.2746 70.0723 32.7205 73.3856 31.5465 77.1254C30.3671 80.8701 30.9701 84.9123 31.5878 88.7937C22.205 86.6055 10.7413 85.0258 4.3798 92.265C-1.74141 99.2313 -3.26738 110.135 0.231161 118.719Z" fill="#1C1C1C"/>
<path d="M15.741 130.751C18.0691 133.579 21.5439 135.181 24.9934 136.411C30.3696 138.328 30.3507 138.207 36.0355 138.775C28.7649 142.919 26.5227 153.848 31.5727 160.53C36.0032 166.388 44.3375 168.129 51.5294 166.661C58.7265 165.195 64.5839 163.352 72.0329 159.902C74.3394 158.826 83.36 156.334 83.36 156.334C79.4984 156.348 75.6406 155.407 72.2182 153.626C69.3169 152.12 66.5289 149.661 66.1875 146.406C65.8409 143.151 69.9305 140.939 72.2751 141.17C60.5122 140.069 47.1837 138.082 40.5469 128.297C39.3758 126.559 38.4544 124.564 38.4262 122.465C38.3684 118.288 41.9882 114.743 46.0083 113.628C50.0287 112.507 54.3278 113.307 58.3474 114.424C55.9624 112.479 56.3147 108.425 58.4478 106.213C60.5864 103.995 63.8863 103.328 66.9644 103.42C73.7976 103.622 80.4569 107.237 84.3637 112.86C78.8878 104.009 81.0105 94.5858 80.7854 85.8754C79.5986 88.3206 77.8497 90.4772 75.6287 92.053C69.5913 96.3426 60.6431 95.9068 55.0476 91.0555C56.7732 94.1931 56.0682 98.4769 53.4278 100.889C50.7818 103.306 46.4545 103.611 43.4941 101.601C44.9719 105.762 43.4829 110.605 40.4612 113.824C37.4393 117.049 33.126 118.805 28.7749 119.515C23.0537 120.458 16.6553 119.514 12.5549 115.413C12.1064 120.75 12.3419 126.613 15.741 130.751Z" fill="#1C1C1C"/>
</g>
<defs>
<clipPath id="clip0_1733_10941">
<rect width="447" height="217" fill="white" transform="translate(-4.30469) rotate(3.35424)"/>
</clipPath>
</defs>
</svg>
