<svg width="115" height="41" viewBox="0 0 115 41" fill="none" xmlns="http://www.w3.org/2000/svg">
<path d="M17.082 6.516V22.064L18.356 22.09V23H11.492V22.09L12.766 22.064V14.836H6.942V22.064L8.216 22.09V23H1.352V22.09L2.626 22.064V6.516L1.352 6.49V5.58H8.216V6.49L6.942 6.516V13.874H12.766V6.516L11.492 6.49V5.58H18.356V6.49L17.082 6.516ZM24.6041 10.91C26.3375 10.91 27.7328 11.4213 28.7901 12.444C29.8475 13.4667 30.3761 14.9227 30.3761 16.812C30.3761 17.6267 30.2288 18.4673 29.9341 19.334C29.6568 20.2007 29.2408 20.9633 28.6861 21.622C28.1315 22.1593 27.4815 22.5927 26.7361 22.922C26.0081 23.234 25.2368 23.39 24.4221 23.39C22.6888 23.39 21.2935 22.8787 20.2361 21.856C19.1788 20.8333 18.6501 19.3773 18.6501 17.488C18.6501 16.6907 18.7975 15.8587 19.0921 14.992C19.3868 14.1253 19.8115 13.3627 20.3661 12.704C20.9208 12.1667 21.5621 11.7333 22.2901 11.404C23.0355 11.0747 23.8068 10.91 24.6041 10.91ZM22.3941 16.24C22.3941 17.8867 22.7148 19.1173 23.3561 19.932C24.0148 20.7467 24.9768 21.232 26.2421 21.388C26.3635 20.868 26.4588 20.2873 26.5281 19.646C26.5975 19.0047 26.6321 18.476 26.6321 18.06C26.6321 16.396 26.3028 15.1653 25.6441 14.368C25.0028 13.5533 24.0581 13.068 22.8101 12.912C22.6888 13.4493 22.5848 14.0387 22.4981 14.68C22.4288 15.3213 22.3941 15.8413 22.3941 16.24ZM37.3502 10.91C39.0836 10.91 40.4789 11.4213 41.5362 12.444C42.5936 13.4667 43.1222 14.9227 43.1222 16.812C43.1222 17.6267 42.9749 18.4673 42.6802 19.334C42.4029 20.2007 41.9869 20.9633 41.4322 21.622C40.8776 22.1593 40.2276 22.5927 39.4822 22.922C38.7542 23.234 37.9829 23.39 37.1682 23.39C35.4349 23.39 34.0396 22.8787 32.9822 21.856C31.9249 20.8333 31.3962 19.3773 31.3962 17.488C31.3962 16.6907 31.5436 15.8587 31.8382 14.992C32.1329 14.1253 32.5576 13.3627 33.1122 12.704C33.6669 12.1667 34.3082 11.7333 35.0362 11.404C35.7816 11.0747 36.5529 10.91 37.3502 10.91ZM35.1402 16.24C35.1402 17.8867 35.4609 19.1173 36.1022 19.932C36.7609 20.7467 37.7229 21.232 38.9882 21.388C39.1096 20.868 39.2049 20.2873 39.2742 19.646C39.3436 19.0047 39.3782 18.476 39.3782 18.06C39.3782 16.396 39.0489 15.1653 38.3902 14.368C37.7489 13.5533 36.8042 13.068 35.5562 12.912C35.4349 13.4493 35.3309 14.0387 35.2442 14.68C35.1749 15.3213 35.1402 15.8413 35.1402 16.24ZM56.9634 21.18L53.3234 23.312C52.2314 22.428 51.3387 21.0587 50.6454 19.204L50.3594 18.398L48.6694 19.126L48.6434 22.168L49.6054 22.246V23H44.0154V22.246L44.9774 22.168L44.8474 6.594L43.8594 6.802L43.5994 6.048L48.4094 4.592L48.7734 5.216L48.6954 14.94L52.1534 10.832C53.3667 11.1787 54.2594 11.7853 54.8314 12.652C55.4207 13.5187 55.7154 14.6713 55.7154 16.11L53.3494 17.124L53.5054 17.436C53.7827 18.0947 54.1554 18.736 54.6234 19.36C55.0914 19.984 55.542 20.4607 55.9754 20.79L56.6774 20.4L56.9634 21.18ZM48.6694 18.164L52.1794 16.5C52.1794 16.1187 52.032 15.7027 51.7374 15.252C51.46 14.8013 51.122 14.524 50.7234 14.42L48.6954 16.188L48.6694 18.164ZM68.0284 21.648L64.2064 23.442C63.7384 23.1127 63.4177 22.662 63.2444 22.09C62.6204 22.4713 61.9877 22.7833 61.3464 23.026C60.7224 23.2687 60.1764 23.39 59.7084 23.39C58.9977 23.39 58.4171 23.1387 57.9664 22.636C57.5157 22.1333 57.2904 21.492 57.2904 20.712C57.2904 20.3653 57.3251 19.9927 57.3944 19.594C57.4811 19.178 57.5851 18.8487 57.7064 18.606L63.2184 17.722L63.2704 16.968C63.3051 16.188 63.1404 15.5813 62.7764 15.148C62.4124 14.6973 61.8231 14.472 61.0084 14.472C60.6444 14.472 60.2631 14.5153 59.8644 14.602C59.4657 14.6713 59.1277 14.7667 58.8504 14.888L58.4344 15.772L57.7324 15.512L58.9284 11.768C60.2631 11.196 61.5284 10.91 62.7244 10.91C63.9551 10.91 64.9604 11.2393 65.7404 11.898C66.5204 12.5393 66.9104 13.5533 66.9104 14.94L66.8844 15.46L66.6244 18.97L66.5724 19.906C66.5724 20.218 66.5984 20.4693 66.6504 20.66C66.7024 20.8333 66.7891 21.0153 66.9104 21.206L67.7164 20.894L68.0284 21.648ZM62.1264 21.518C62.4037 21.518 62.7244 21.414 63.0884 21.206L63.0624 20.66L63.0884 20.088L63.1664 18.606L61.1644 19.074C61.0951 19.2993 61.0604 19.6027 61.0604 19.984C61.0604 20.504 61.1644 20.894 61.3724 21.154C61.5804 21.3967 61.8317 21.518 62.1264 21.518ZM80.9985 22.246V23H75.4345V22.246L76.3965 22.168V16.682C76.3965 15.9193 76.1799 15.33 75.7465 14.914C75.3305 14.498 74.7499 14.2813 74.0045 14.264L73.1465 15.122L73.0945 22.168L74.0565 22.246V23H68.4665V22.246L69.4285 22.168L69.2985 6.594L68.3105 6.802L68.0505 6.048L72.8605 4.592L73.2245 5.216L73.1465 13.874L75.2525 10.858C76.8992 10.858 78.1125 11.248 78.8925 12.028C79.6725 12.808 80.0625 14.0127 80.0625 15.642V22.168L80.9985 22.246Z" fill="black"/>
<path d="M4.71094 27.1016L4.69531 27.1875C4.67969 27.276 4.60677 27.3646 4.47656 27.4531C4.34635 27.5417 4.21615 27.5859 4.08594 27.5859C3.75781 27.5859 3.59375 27.4297 3.59375 27.1172C3.59375 27.0078 3.67708 26.875 3.84375 26.7188C4.01562 26.5573 4.24219 26.4453 4.52344 26.3828C4.8099 26.3203 5.01302 26.2604 5.13281 26.2031C5.25781 26.1406 5.44792 26.0938 5.70312 26.0625C5.74479 26.1042 5.78646 26.125 5.82812 26.125C5.89583 26.125 5.94271 26.1016 5.96875 26.0547C5.99479 26.0078 6.05469 25.9948 6.14844 26.0156H6.1875L6.60156 25.9062L6.72656 25.9531C6.7474 25.9531 6.77083 25.9427 6.79688 25.9219C6.82812 25.901 6.86458 25.8854 6.90625 25.875H7.03125L7.17969 25.8438C7.29427 25.8125 7.36198 25.7891 7.38281 25.7734L7.51562 25.7891C7.61458 25.7891 7.77604 25.763 8 25.7109C8.22917 25.6589 8.40104 25.6302 8.51562 25.625C8.63542 25.6198 8.72135 25.612 8.77344 25.6016C8.83073 25.5911 8.86458 25.5859 8.875 25.5859C8.90625 25.5859 8.94531 25.6016 8.99219 25.6328C9.03906 25.6641 9.07292 25.6797 9.09375 25.6797C9.11458 25.6797 9.26042 25.6484 9.53125 25.5859H9.57812L9.92969 25.6641C10.0234 25.612 10.0859 25.5859 10.1172 25.5859C10.2266 25.5859 10.3177 25.6224 10.3906 25.6953L10.5391 25.6328L10.6172 25.6484C10.6484 25.6484 10.6953 25.6432 10.7578 25.6328H10.8203C10.8568 25.6328 10.8958 25.638 10.9375 25.6484C10.9479 25.6589 10.9583 25.6641 10.9688 25.6641C11.0208 25.6641 11.0625 25.6589 11.0938 25.6484H11.1953L11.5312 25.7266L11.6719 25.7109C11.6823 25.7109 11.7135 25.7266 11.7656 25.7578L11.8516 25.7422C11.9036 25.7786 11.9974 25.8281 12.1328 25.8906C12.1589 25.8802 12.1979 25.8698 12.25 25.8594H12.2656C12.276 25.8594 12.3281 25.8906 12.4219 25.9531L12.6484 26.0625L12.7109 26.0312C12.8568 26.1042 12.9323 26.1458 12.9375 26.1562L13 26.2891C13.0625 26.3203 13.1328 26.362 13.2109 26.4141C13.2266 26.4661 13.2578 26.526 13.3047 26.5938V26.6562C13.3047 26.6667 13.3438 26.7057 13.4219 26.7734C13.5052 26.8359 13.5469 26.8828 13.5469 26.9141C13.5469 26.9245 13.5417 26.9609 13.5312 27.0234V27.0391C13.5312 27.0495 13.5495 27.0833 13.5859 27.1406C13.6224 27.1979 13.6406 27.2656 13.6406 27.3438L13.625 27.4531L13.6406 27.5547L13.5625 28.0781C13.5156 28.1302 13.4844 28.1823 13.4688 28.2344C13.4531 28.2812 13.4141 28.3177 13.3516 28.3438C13.2891 28.3698 13.237 28.4245 13.1953 28.5078C13.1589 28.5859 13.1042 28.638 13.0312 28.6641C12.9583 28.6901 12.888 28.737 12.8203 28.8047C12.7578 28.8672 12.6849 28.8984 12.6016 28.8984L11.7656 29.1484L11.6719 29.1172C11.5781 29.2682 11.4401 29.3438 11.2578 29.3438C11.2109 29.3438 11.1068 29.362 10.9453 29.3984L10.7891 29.4375L10.6641 29.4219L10.375 29.4766C10.2865 29.4922 10.2214 29.513 10.1797 29.5391C10.138 29.5599 10.0859 29.5703 10.0234 29.5703L9.8125 29.6797C9.80208 29.6901 9.78646 29.6953 9.76562 29.6953C9.72396 29.6953 9.69792 29.6901 9.6875 29.6797L9.57812 29.6484C9.53646 29.6589 9.4974 29.6771 9.46094 29.7031C9.42969 29.7292 9.39844 29.7422 9.36719 29.7422L9.27344 29.6641L9.125 29.7891C9.0625 29.7995 8.97917 29.8229 8.875 29.8594C8.80729 29.8229 8.76302 29.8047 8.74219 29.8047L8.46875 29.9219L8.3125 29.875L8.29688 29.9219C8.22396 29.9219 8.14844 29.9479 8.07031 30C7.9974 30.0521 7.9349 30.0781 7.88281 30.0781C7.84635 30.0781 7.80729 30.0573 7.76562 30.0156C7.74479 30.0156 7.72396 30.0052 7.70312 29.9844C7.65104 30.0208 7.61198 30.0599 7.58594 30.1016C7.5599 30.138 7.5026 30.1745 7.41406 30.2109L7.22656 30.1562C7.22656 30.1719 7.17708 30.2005 7.07812 30.2422C6.97917 30.2786 6.92708 30.3099 6.92188 30.3359L6.84375 30.4453C6.80729 30.5339 6.77865 30.6068 6.75781 30.6641C6.73698 30.7214 6.71094 30.7682 6.67969 30.8047C6.64844 30.8359 6.61979 30.8932 6.59375 30.9766C6.56771 31.0599 6.52083 31.151 6.45312 31.25L6.4375 31.3438C6.40625 31.3854 6.35938 31.4323 6.29688 31.4844L6.11719 31.8203C6.0651 31.8984 6.03906 31.9531 6.03906 31.9844C6.03906 32.0625 6.10938 32.138 6.25 32.2109L7.07812 32.9141L7.21094 32.9922H7.22656L7.19531 33.1328C7.23698 33.1589 7.26302 33.1719 7.27344 33.1719C7.30469 33.1719 7.32031 33.1484 7.32031 33.1016H7.36719C7.3776 33.1016 7.40365 33.125 7.44531 33.1719L7.53125 33.2188C7.56771 33.2552 7.63542 33.3151 7.73438 33.3984C7.83333 33.4818 7.88281 33.5391 7.88281 33.5703L7.86719 33.6328H7.91406C7.9349 33.612 7.95052 33.6016 7.96094 33.6016C7.98177 33.6016 8.03906 33.6328 8.13281 33.6953L8.23438 33.7422C8.44271 33.8932 8.56771 33.9948 8.60938 34.0469C8.65625 34.099 8.72135 34.1589 8.80469 34.2266C8.89323 34.2891 8.96354 34.362 9.01562 34.4453L9.91406 35.1172C10.6641 35.6797 11.0859 36.0547 11.1797 36.2422C11.2005 36.2734 11.25 36.3047 11.3281 36.3359C11.4062 36.3672 11.5182 36.4531 11.6641 36.5938C11.8099 36.7396 11.8984 36.8516 11.9297 36.9297V37.2031C11.9297 37.224 11.9036 37.25 11.8516 37.2812L11.75 37.375C11.6146 37.5156 11.4974 37.5859 11.3984 37.5859C11.1536 37.5859 10.974 37.5312 10.8594 37.4219L10.8203 37.4062H10.7422C10.6589 37.4062 10.612 37.3333 10.6016 37.1875L10.5703 37.0859C10.3099 37.0026 10.112 36.8698 9.97656 36.6875L9.53125 36.2734C9.52083 36.263 9.4349 36.1641 9.27344 35.9766C9.11198 35.7839 8.96875 35.6458 8.84375 35.5625C8.72396 35.4792 8.6276 35.3932 8.55469 35.3047C8.48698 35.2161 8.39323 35.1328 8.27344 35.0547C8.15885 34.9766 8.03646 34.8464 7.90625 34.6641C7.77604 34.4766 7.70312 34.3776 7.6875 34.3672C7.45312 34.2422 7.34115 34.1042 7.35156 33.9531C7.32031 33.9323 7.24479 33.9115 7.125 33.8906C7.0625 33.8229 7.02344 33.7865 7.00781 33.7812C6.99219 33.776 6.97917 33.7682 6.96875 33.7578L6.98438 33.6328C6.82812 33.5859 6.71875 33.5286 6.65625 33.4609C6.59375 33.388 6.51042 33.2917 6.40625 33.1719C6.30208 33.0521 6.21094 32.9609 6.13281 32.8984C6.0599 32.8307 6.02083 32.7786 6.01562 32.7422C6.01042 32.7057 5.96094 32.6615 5.86719 32.6094C5.83073 32.6719 5.79167 32.7214 5.75 32.7578C5.70833 32.7943 5.67708 32.8359 5.65625 32.8828L5.625 32.9297C5.55208 33.0026 5.51562 33.0833 5.51562 33.1719C5.4375 33.2344 5.38802 33.3464 5.36719 33.5078L5.01562 34.3047L4.95312 34.5938L4.90625 35.0859C4.89062 35.2266 4.83073 35.2969 4.72656 35.2969L4.57031 35.3125C4.52865 35.2917 4.42969 35.2734 4.27344 35.2578C4.1224 35.237 3.9974 35.0833 3.89844 34.7969C3.88802 34.7656 3.85677 34.7135 3.80469 34.6406C3.75781 34.5677 3.73438 34.5026 3.73438 34.4453C3.73438 34.4036 3.75 34.3359 3.78125 34.2422L3.8125 34.0625C3.8125 34.0312 3.8776 33.8828 4.00781 33.6172L4.42188 32.8281L4.625 32.5234C4.65104 32.4818 4.67969 32.4036 4.71094 32.2891C4.74219 32.1693 4.78906 32.0703 4.85156 31.9922C4.91927 31.9141 4.95312 31.8568 4.95312 31.8203C4.95312 31.7578 4.90365 31.6953 4.80469 31.6328C4.71094 31.5703 4.65885 31.5104 4.64844 31.4531L4.61719 31.375C4.34115 31.2135 4.20312 31.0312 4.20312 30.8281C4.20312 30.7188 4.34115 30.5833 4.61719 30.4219C4.89323 30.2552 5.07812 30.1615 5.17188 30.1406C5.27083 30.1198 5.36719 30.0833 5.46094 30.0312L5.59375 30L5.70312 29.9062C5.76562 29.8854 5.84115 29.8672 5.92969 29.8516C6.02344 29.8307 6.10156 29.724 6.16406 29.5312C6.23177 29.3333 6.29167 29.2188 6.34375 29.1875C6.44792 28.974 6.51823 28.8125 6.55469 28.7031C6.5651 28.6823 6.59375 28.6354 6.64062 28.5625C6.69271 28.4844 6.74479 28.3594 6.79688 28.1875C6.84896 28.0104 6.88542 27.9219 6.90625 27.9219C6.92708 27.9219 6.96875 27.9115 7.03125 27.8906L6.95312 27.6797C6.95312 27.6589 6.97396 27.6276 7.01562 27.5859C6.94271 27.4974 6.90625 27.3906 6.90625 27.2656C6.90625 27.0625 7.04948 26.9609 7.33594 26.9609C7.38802 26.9609 7.49219 27.0078 7.64844 27.1016C7.80469 27.1901 7.88802 27.2552 7.89844 27.2969C7.90885 27.3385 7.94271 27.4062 8 27.5C8.05729 27.5885 8.08594 27.6641 8.08594 27.7266C8.08594 27.9297 8.05208 28.0625 7.98438 28.125C7.91667 28.1875 7.84635 28.3255 7.77344 28.5391L7.5625 29.1328L7.53125 29.2812L7.49219 29.3438L7.6875 29.2969C7.72917 29.1823 7.90625 29.1172 8.21875 29.1016L8.71094 28.9453H8.85938L9.33594 28.8125C9.35677 28.8125 9.43229 28.8021 9.5625 28.7812H9.60938L9.70312 28.7656C9.72396 28.776 9.74479 28.7969 9.76562 28.8281H9.79688C9.85417 28.8281 9.88542 28.7943 9.89062 28.7266C9.89583 28.6589 9.97135 28.625 10.1172 28.625C10.138 28.625 10.1562 28.638 10.1719 28.6641C10.1927 28.6901 10.2135 28.7031 10.2344 28.7031C10.2448 28.6458 10.2839 28.6068 10.3516 28.5859C10.4245 28.5599 10.4766 28.5469 10.5078 28.5469L10.6328 28.5625C10.6224 28.5521 10.6172 28.5365 10.6172 28.5156C10.6172 28.4688 10.776 28.4193 11.0938 28.3672C11.1823 28.3359 11.2526 28.2969 11.3047 28.25C11.3568 28.2031 11.5208 28.1354 11.7969 28.0469L12.2656 27.9062C12.4583 27.8438 12.5911 27.6562 12.6641 27.3438C12.6536 27.3333 12.6068 27.263 12.5234 27.1328C12.5234 27.1224 12.4844 27.1172 12.4062 27.1172C12.3854 27.0964 12.349 27.0729 12.2969 27.0469C12.2448 27.0156 12.1849 26.9661 12.1172 26.8984L12.0234 26.9297C11.9505 26.888 11.8646 26.8568 11.7656 26.8359C11.6719 26.8099 11.5703 26.7552 11.4609 26.6719C11.4193 26.6927 11.3932 26.7031 11.3828 26.7031C11.3724 26.7031 11.3151 26.6771 11.2109 26.625L11 26.5312H10.875L10.8203 26.5156C10.7891 26.4792 10.763 26.4609 10.7422 26.4609L10.6641 26.4766C10.6432 26.487 10.6172 26.4922 10.5859 26.4922H10.4531C10.4427 26.4922 10.401 26.4661 10.3281 26.4141H10.0703L9.92969 26.4453C9.90885 26.4453 9.875 26.4245 9.82812 26.3828L9.6875 26.4141L9.54688 26.3516L9.33594 26.3828C9.29427 26.3516 9.26302 26.3359 9.24219 26.3359L8.61719 26.3984C8.59635 26.3984 8.57812 26.388 8.5625 26.3672C8.54688 26.3464 8.52083 26.3307 8.48438 26.3203C8.45312 26.3099 8.41667 26.2891 8.375 26.2578C8.26562 26.3203 8.15885 26.3516 8.05469 26.3516L7.8125 26.3203L7.76562 26.3359H7.73438C7.72396 26.3359 7.67708 26.3255 7.59375 26.3047C7.59375 26.3255 7.58854 26.3411 7.57812 26.3516L7.46094 26.3203L7.03125 26.3984H7.01562L6.9375 26.3828C6.91667 26.3828 6.88542 26.3906 6.84375 26.4062C6.80729 26.4219 6.77865 26.4297 6.75781 26.4297L6.58594 26.4141L6.45312 26.4453L6.26562 26.4297L6.10156 26.5469H6.07031C6.04948 26.5469 6.02604 26.5391 6 26.5234C5.97396 26.5026 5.95573 26.4922 5.94531 26.4922L5.82812 26.5156L5.73438 26.4922C5.71354 26.4922 5.67188 26.5417 5.60938 26.6406C5.60938 26.651 5.59896 26.6562 5.57812 26.6562H5.5625L5.44531 26.625C5.42448 26.625 5.38281 26.6615 5.32031 26.7344C5.22135 26.7708 5.125 26.8099 5.03125 26.8516C4.95833 26.9557 4.89583 27.0182 4.84375 27.0391L4.71094 27.1016ZM5.22656 30.7969H5.03125C5 30.7969 4.94271 30.8281 4.85938 30.8906C4.78125 30.9479 4.74219 30.987 4.74219 31.0078C4.74219 31.0286 4.80208 31.0885 4.92188 31.1875C5.04688 31.2812 5.125 31.3281 5.15625 31.3281C5.25 31.3281 5.36198 31.1146 5.49219 30.6875L5.41406 30.7188L5.32031 30.7031C5.25781 30.7552 5.22656 30.7865 5.22656 30.7969ZM12.8516 32.1953L13.0156 32.0625C13.1406 32.0521 13.2083 31.987 13.2188 31.8672C13.2292 31.7474 13.3151 31.6432 13.4766 31.5547L13.5703 31.4219C13.6484 31.3438 13.862 31.2422 14.2109 31.1172C14.2995 31.0651 14.3594 31.0182 14.3906 30.9766C14.401 30.9661 14.4115 30.9609 14.4219 30.9609L14.5469 30.9922C14.6146 30.9922 14.7005 30.974 14.8047 30.9375C14.9141 30.901 15.0182 30.8828 15.1172 30.8828L15.4453 30.8672C15.4661 30.8672 15.5078 30.8828 15.5703 30.9141C15.638 30.9453 15.7188 30.9609 15.8125 30.9609C15.9271 30.9609 16.0312 31.013 16.125 31.1172C16.224 31.2214 16.2734 31.3177 16.2734 31.4062C16.2734 31.5677 16.1901 31.7318 16.0234 31.8984C15.8568 32.0651 15.724 32.1589 15.625 32.1797C15.5365 32.2682 15.4688 32.3255 15.4219 32.3516C15.375 32.3724 15.3255 32.4089 15.2734 32.4609C15.2266 32.5078 15.1875 32.5312 15.1562 32.5312C15.1354 32.5312 15.1198 32.526 15.1094 32.5156C15.099 32.5 15.0833 32.4922 15.0625 32.4922C14.9792 32.4922 14.888 32.5938 14.7891 32.7969L14.6484 32.7812C14.5599 32.8385 14.5026 32.901 14.4766 32.9688C14.4505 33.0365 14.3958 33.0703 14.3125 33.0703C14.1198 33.263 13.9896 33.3594 13.9219 33.3594C13.9115 33.3594 13.875 33.349 13.8125 33.3281C13.7708 33.3802 13.75 33.4349 13.75 33.4922C13.75 33.5547 13.7083 33.5911 13.625 33.6016L13.5234 33.6953L13.4453 33.6797L13.2891 33.8438C13.2109 33.8438 13.1302 33.8698 13.0469 33.9219C13.0365 33.9844 13.0208 34.0651 13 34.1641C12.9792 34.2578 12.9688 34.3099 12.9688 34.3203C12.9688 34.4714 13.1068 34.5469 13.3828 34.5469L13.7578 34.4922C13.8568 34.4922 13.9479 34.4661 14.0312 34.4141C14.1198 34.362 14.2135 34.3359 14.3125 34.3359C14.3438 34.3359 14.3906 34.3255 14.4531 34.3047L14.5312 34.3359C14.5677 34.2578 14.6354 34.1875 14.7344 34.125C14.8333 34.0625 14.9115 34.0312 14.9688 34.0312L15.0469 33.9844C15.0677 33.9219 15.099 33.8802 15.1406 33.8594L15.2031 33.8047C15.2448 33.763 15.2839 33.7422 15.3203 33.7422H15.4297L15.4609 33.7266C15.5234 33.5911 15.6094 33.513 15.7188 33.4922C15.8333 33.4661 15.9036 33.4271 15.9297 33.375C15.9609 33.3229 16.013 33.2917 16.0859 33.2812C16.1589 33.2708 16.2188 33.237 16.2656 33.1797C16.3177 33.1172 16.3802 33.0599 16.4531 33.0078C16.526 32.9557 16.5755 32.9167 16.6016 32.8906C16.6328 32.8646 16.6589 32.8516 16.6797 32.8516C16.7109 32.8516 16.7266 32.875 16.7266 32.9219C16.7266 32.9688 16.737 32.9922 16.7578 32.9922C16.7786 32.9922 16.7891 32.9818 16.7891 32.9609C16.7891 32.9401 16.7839 32.9141 16.7734 32.8828V32.8281C16.7734 32.75 16.8151 32.6979 16.8984 32.6719L17.25 32.4453C17.2604 32.3359 17.2891 32.2734 17.3359 32.2578C17.388 32.237 17.4271 32.2161 17.4531 32.1953C17.4792 32.1693 17.5078 32.1562 17.5391 32.1562C17.6068 32.1562 17.6406 32.1953 17.6406 32.2734L17.6016 32.4766L17.6406 32.6875C17.6406 32.7188 17.6146 32.763 17.5625 32.8203C17.5156 32.8724 17.4792 32.9557 17.4531 33.0703C17.4271 33.1797 17.3932 33.2396 17.3516 33.25H17.3047C17.2109 33.349 17.1354 33.4089 17.0781 33.4297C17.026 33.4453 16.9844 33.4766 16.9531 33.5234L16.6875 33.8281C16.6354 33.8802 16.5911 33.9271 16.5547 33.9688C16.5182 34.0104 16.4896 34.0312 16.4688 34.0312L16.4062 33.9688C16.4062 33.9583 16.3958 33.9531 16.375 33.9531C16.3229 33.9531 16.2891 33.9844 16.2734 34.0469C16.263 34.1094 16.237 34.1641 16.1953 34.2109C16.0391 34.2839 15.9375 34.3516 15.8906 34.4141L15.8438 34.4297H15.7031C15.6354 34.4297 15.5885 34.4818 15.5625 34.5859C15.5365 34.6849 15.4609 34.7422 15.3359 34.7578C15.2161 34.7734 15.1302 34.8047 15.0781 34.8516C15.0677 34.862 15.0443 34.8724 15.0078 34.8828C14.9714 34.8932 14.8984 34.9349 14.7891 35.0078L14.1328 35.2422C14.0807 35.2682 14.0469 35.2812 14.0312 35.2812L13.8125 35.3125C13.7812 35.3125 13.75 35.2917 13.7188 35.25C13.6875 35.2083 13.6667 35.1875 13.6562 35.1875L13.5156 35.2344C13.4115 35.2656 13.3125 35.2812 13.2188 35.2812C13.1667 35.2812 13.1094 35.263 13.0469 35.2266C12.9844 35.1901 12.9349 35.1641 12.8984 35.1484C12.7474 35.1484 12.6406 35.0312 12.5781 34.7969L12.4844 34.8125C12.4635 34.8125 12.3932 34.6276 12.2734 34.2578C12.2422 34.2161 12.1927 34.1875 12.125 34.1719C12.0573 34.151 12.0234 34.099 12.0234 34.0156C12.0234 33.7812 12.0729 33.625 12.1719 33.5469C12.276 33.4635 12.3333 33.401 12.3438 33.3594L12.4531 32.9531C12.474 32.9375 12.5 32.8854 12.5312 32.7969L12.7109 32.4688C12.7318 32.4323 12.7786 32.3411 12.8516 32.1953ZM14.5 31.7266L14.4062 31.7734C14.3854 31.7839 14.3229 31.8307 14.2188 31.9141C14.1198 31.9922 14.0208 32.0573 13.9219 32.1094C13.8281 32.1562 13.7292 32.2839 13.625 32.4922C13.526 32.7005 13.4766 32.8203 13.4766 32.8516C13.4766 32.8828 13.4922 32.8984 13.5234 32.8984L13.7891 32.7812C13.888 32.7344 13.9792 32.6745 14.0625 32.6016C14.151 32.5286 14.276 32.4401 14.4375 32.3359L14.5 32.2734C14.5104 32.2526 14.5573 32.2161 14.6406 32.1641C14.7292 32.1068 14.7943 32.0521 14.8359 32L14.9141 31.9688C15.0026 31.8281 15.0911 31.7422 15.1797 31.7109C15.2734 31.6797 15.3203 31.6484 15.3203 31.6172C15.3203 31.5547 15.2708 31.5234 15.1719 31.5234C15.1302 31.5234 15.0677 31.5495 14.9844 31.6016H14.8047C14.7839 31.6016 14.7266 31.6328 14.6328 31.6953L14.5 31.7266ZM23.8359 33.8438H23.8672L23.9453 33.875C23.9557 33.875 23.9661 33.8698 23.9766 33.8594C23.9766 33.7708 24.0182 33.6953 24.1016 33.6328C24.1276 33.5339 24.1849 33.4583 24.2734 33.4062C24.3672 33.3542 24.513 33.2682 24.7109 33.1484L24.9062 32.9766L25 32.9297L25.0625 32.8516C25.1198 32.7839 25.1745 32.75 25.2266 32.75C25.3047 32.75 25.3438 32.7786 25.3438 32.8359L25.2734 32.9922L25.3047 33.25C25.3047 33.3438 25.2708 33.4271 25.2031 33.5C25.1406 33.5729 25.0417 33.6797 24.9062 33.8203L24.5078 34.2422L24.2969 34.3516C24.2448 34.3828 24.1979 34.4193 24.1562 34.4609L23.8516 34.7188C23.8516 34.7917 23.8281 34.8464 23.7812 34.8828H23.6562L23.5938 34.9141C23.5573 35.013 23.4505 35.1094 23.2734 35.2031L23.1641 35.2812C23.1276 35.3125 23.0938 35.3281 23.0625 35.3281L22.8438 35.2969L22.6953 35.3281C22.6536 35.3281 22.5964 35.3073 22.5234 35.2656C22.4557 35.224 22.3854 35.1927 22.3125 35.1719C22.2396 35.1458 22.1458 35.0495 22.0312 34.8828C21.9219 34.7109 21.862 34.599 21.8516 34.5469C21.8516 34.526 21.8385 34.4922 21.8125 34.4453C21.7917 34.3932 21.7812 34.362 21.7812 34.3516C21.7812 34.3411 21.8047 34.2891 21.8516 34.1953V34.1797C21.8516 34.1641 21.8359 34.1276 21.8047 34.0703C21.7786 34.013 21.7656 33.9427 21.7656 33.8594C21.7656 33.8125 21.75 33.7526 21.7188 33.6797C21.7604 33.638 21.7812 33.6068 21.7812 33.5859C21.7812 33.5651 21.7734 33.5365 21.7578 33.5C21.7422 33.4583 21.7344 33.4271 21.7344 33.4062L21.7812 33.0234L21.75 32.8281L21.7656 32.6406C21.7656 32.5312 21.7188 32.4766 21.625 32.4766C21.5833 32.4766 21.5312 32.5052 21.4688 32.5625L21.4141 32.5781C21.2734 32.6458 21.1745 32.7031 21.1172 32.75C21.0599 32.7917 21 32.8125 20.9375 32.8125C20.9062 32.8438 20.8464 32.8724 20.7578 32.8984L20.6953 32.9453C20.6745 32.9661 20.6328 32.9974 20.5703 33.0391C20.5703 33.0547 20.4714 33.1432 20.2734 33.3047C20.0807 33.4609 19.9062 33.6094 19.75 33.75C19.5938 33.8906 19.4792 33.9688 19.4062 33.9844C19.3385 33.9948 19.3047 34.0599 19.3047 34.1797C19.3047 34.2005 19.2578 34.2422 19.1641 34.3047C19.1536 34.3047 19.099 34.362 19 34.4766C18.9167 34.4141 18.8698 34.3828 18.8594 34.3828C18.7917 34.3828 18.7422 34.4688 18.7109 34.6406C18.6797 34.7083 18.5964 34.75 18.4609 34.7656C18.4505 34.7708 18.4323 34.8099 18.4062 34.8828L18.375 34.9141H18.2969C18.2865 34.9141 18.25 34.9453 18.1875 35.0078C18.125 35.0651 18.0703 35.1016 18.0234 35.1172C17.9557 35.2578 17.8984 35.3281 17.8516 35.3281C17.8307 35.3281 17.7995 35.3177 17.7578 35.2969C17.7214 35.276 17.6745 35.2578 17.6172 35.2422C17.5599 35.2266 17.4948 35.1641 17.4219 35.0547C17.3542 34.9401 17.3203 34.8438 17.3203 34.7656C17.3203 34.1875 17.4323 33.8724 17.6562 33.8203L17.6719 33.7891V33.7266C17.6719 33.6589 17.7005 33.612 17.7578 33.5859C17.8203 33.5547 17.8828 33.4974 17.9453 33.4141C18.0078 33.3255 18.0495 33.276 18.0703 33.2656H18.1719C18.1927 33.2656 18.2031 33.2109 18.2031 33.1016C18.2031 33.0703 18.2161 33.0417 18.2422 33.0156C18.2682 32.9896 18.2839 32.9531 18.2891 32.9062C18.2943 32.8542 18.3307 32.7734 18.3984 32.6641C18.4714 32.5495 18.5078 32.4818 18.5078 32.4609L18.4922 32.4297C18.362 32.5495 18.2682 32.6146 18.2109 32.625C18.1536 32.6354 18.0755 32.7109 17.9766 32.8516L17.8516 32.8281C17.6328 32.9896 17.4974 33.0807 17.4453 33.1016C17.3932 33.1224 17.3359 33.1823 17.2734 33.2812C17.2734 33.3125 17.2552 33.3333 17.2188 33.3438C17.1823 33.3542 17.1146 33.3958 17.0156 33.4688H16.9688C16.8385 33.4688 16.7734 33.375 16.7734 33.1875L16.9375 32.7422C16.9844 32.6016 17.0938 32.4844 17.2656 32.3906C17.4427 32.2917 17.5911 32.1979 17.7109 32.1094C17.8307 32.0208 17.9505 31.974 18.0703 31.9688L18.125 31.8906C18.3021 31.8229 18.4219 31.7161 18.4844 31.5703C18.5469 31.4245 18.6328 31.3516 18.7422 31.3516C19.0286 31.3516 19.2474 31.4583 19.3984 31.6719C19.5495 31.8802 19.625 32.0469 19.625 32.1719L19.6406 32.3828C19.6406 32.4557 19.625 32.5573 19.5938 32.6875C19.5312 32.7812 19.5 32.8516 19.5 32.8984C19.5 32.9401 19.526 32.9609 19.5781 32.9609C19.6094 32.9609 19.651 32.9401 19.7031 32.8984C19.7552 32.8516 19.8125 32.8099 19.875 32.7734C19.9427 32.737 19.9818 32.7057 19.9922 32.6797C20.0443 32.5547 20.1354 32.4688 20.2656 32.4219C20.3958 32.375 20.4766 32.3359 20.5078 32.3047L20.5859 32.2422L20.6484 32.125C20.7891 32.0625 20.8828 32.0052 20.9297 31.9531C20.9766 31.901 21.0391 31.8672 21.1172 31.8516C21.1953 31.8359 21.2839 31.7891 21.3828 31.7109L21.5 31.6797L21.6094 31.6172C21.6198 31.6068 21.651 31.5938 21.7031 31.5781C21.7552 31.5625 21.8307 31.5365 21.9297 31.5C22.0339 31.4583 22.1042 31.4375 22.1406 31.4375C22.4062 31.4375 22.6146 31.5443 22.7656 31.7578C22.9219 31.9714 23 32.1432 23 32.2734L22.9844 32.4141L23.0156 32.625V32.6562L22.9531 33.0859L22.9688 33.2344C22.9688 33.4792 22.9167 33.6484 22.8125 33.7422C22.7865 33.7526 22.7734 33.7786 22.7734 33.8203V33.8906L22.9297 34.2188C22.9766 34.3333 23.013 34.3906 23.0391 34.3906L23.2891 34.3203C23.362 34.2995 23.4219 34.2448 23.4688 34.1562C23.5104 34.1354 23.5833 34.0729 23.6875 33.9688C23.7188 33.8854 23.7682 33.8438 23.8359 33.8438ZM27.5391 28.3203L27.6484 28.2891L27.7266 28.2109H27.7422L27.8125 28.2422H27.8281C27.9531 28.2422 28.0625 28.2188 28.1562 28.1719C28.2552 28.1198 28.3359 28.0833 28.3984 28.0625C28.4661 28.0417 28.5078 28.026 28.5234 28.0156C28.5391 28.0052 28.5521 28 28.5625 28L28.6875 28.0156C28.7292 28.0156 28.7839 27.9427 28.8516 27.7969C28.9245 27.6458 29.0052 27.5365 29.0938 27.4688C29.1823 27.401 29.2708 27.2734 29.3594 27.0859C29.3802 27.0599 29.4036 27.0208 29.4297 26.9688C29.4557 26.9115 29.4766 26.8828 29.4922 26.8828C29.5703 26.8828 29.6328 26.8333 29.6797 26.7344C29.8359 26.5521 29.9635 26.4609 30.0625 26.4609C30.1927 26.4609 30.2839 26.5859 30.3359 26.8359L30.4141 27.1328C30.4141 27.138 30.401 27.1771 30.375 27.25C30.349 27.3177 30.3359 27.388 30.3359 27.4609C30.3411 27.5286 30.3385 27.5755 30.3281 27.6016C30.3229 27.6224 30.3203 27.6484 30.3203 27.6797C30.3203 27.7214 30.3646 27.7422 30.4531 27.7422C30.4844 27.7422 30.5417 27.7214 30.625 27.6797L30.6719 27.6641C30.724 27.6953 30.7682 27.7109 30.8047 27.7109C30.8151 27.7109 30.888 27.6849 31.0234 27.6328C31.1641 27.5807 31.2526 27.5521 31.2891 27.5469C31.3255 27.5417 31.388 27.5208 31.4766 27.4844H31.5703L31.6328 27.5078C31.6536 27.5078 31.6953 27.487 31.7578 27.4453C31.8255 27.3984 31.9505 27.3698 32.1328 27.3594L32.2422 27.3125H32.2734C32.4453 27.3125 32.5312 27.388 32.5312 27.5391C32.5312 27.5703 32.5052 27.625 32.4531 27.7031C32.4062 27.7812 32.3672 27.8698 32.3359 27.9688L31.9766 28.4219C31.8568 28.5781 31.737 28.6562 31.6172 28.6562C31.5964 28.6562 31.5312 28.5859 31.4219 28.4453C31.4219 28.4349 31.4115 28.4297 31.3906 28.4297C31.3385 28.4297 31.2839 28.4401 31.2266 28.4609C31.1693 28.4818 31.1224 28.4922 31.0859 28.4922C31.0703 28.4922 30.9323 28.5312 30.6719 28.6094L30.4844 28.6406C30.4635 28.6406 30.4141 28.651 30.3359 28.6719L29.9375 28.75C29.8021 28.8177 29.6953 28.9453 29.6172 29.1328C29.6172 29.1432 29.5911 29.1667 29.5391 29.2031L29.1875 29.8438C29.0729 29.875 28.9974 29.9427 28.9609 30.0469L28.9297 30.0938C28.8724 30.1042 28.8203 30.138 28.7734 30.1953C28.7266 30.2474 28.6823 30.2891 28.6406 30.3203L28.5 30.5312C28.4427 30.6042 28.3854 30.6849 28.3281 30.7734C28.2708 30.8568 28.2292 30.9479 28.2031 31.0469C28.1771 31.1406 28.1562 31.1953 28.1406 31.2109C28.125 31.2266 28.1172 31.2552 28.1172 31.2969L28.0938 31.3594C28.0312 31.4219 28 31.4922 28 31.5703L28.0312 31.6953C27.9583 31.9453 27.9219 32.0781 27.9219 32.0938C27.9219 32.1042 27.9271 32.1328 27.9375 32.1797V32.2266C27.9375 32.3411 27.8958 32.4844 27.8125 32.6562L27.8281 32.7812L27.7812 33.1328C27.7812 33.1797 27.7969 33.2656 27.8281 33.3906C27.8073 33.4115 27.7969 33.4271 27.7969 33.4375C27.7969 33.5833 27.8724 33.7448 28.0234 33.9219C28.1797 34.0938 28.2578 34.3646 28.2578 34.7344C28.2578 34.7656 28.25 34.8125 28.2344 34.875C28.2188 34.9323 28.2083 34.9974 28.2031 35.0703C28.1979 35.138 28.1562 35.2057 28.0781 35.2734C28.0052 35.3411 27.9427 35.375 27.8906 35.375C27.6146 35.375 27.4089 35.1745 27.2734 34.7734C27.138 34.3724 27.0703 34.1146 27.0703 34L27.0859 33.6953L27.0391 33.5391L27.0859 32.8516L27.0547 32.6875L27.2344 32.0156V31.7734C27.2344 31.763 27.2708 31.7214 27.3438 31.6484C27.3438 31.638 27.3333 31.6328 27.3125 31.6328C27.2812 31.6328 27.2396 31.6641 27.1875 31.7266C27.1354 31.7891 27.0703 31.849 26.9922 31.9062L26.9297 32.0156C26.9193 32.0052 26.8984 31.9948 26.8672 31.9844C26.8411 31.9948 26.7552 32.1172 26.6094 32.3516C26.5 32.3672 26.4141 32.4297 26.3516 32.5391C26.2891 32.6484 26.2031 32.7031 26.0938 32.7031L26.0625 32.7188C26.0417 32.8698 25.9688 32.9453 25.8438 32.9453L25.8125 32.9609C25.7344 33.138 25.6536 33.224 25.5703 33.2188C25.5182 33.375 25.3906 33.4818 25.1875 33.5391C25.1562 33.6016 25.112 33.6484 25.0547 33.6797C24.9922 33.7109 24.9479 33.7396 24.9219 33.7656C24.8958 33.7917 24.8724 33.8047 24.8516 33.8047C24.7839 33.8047 24.75 33.7318 24.75 33.5859C24.75 33.5443 24.7682 33.5 24.8047 33.4531C24.8359 33.401 24.8516 33.3646 24.8516 33.3438C24.8516 33.3333 24.8255 33.3021 24.7734 33.25C24.7734 33.0885 24.8151 32.987 24.8984 32.9453C24.9818 32.9036 25.0443 32.8438 25.0859 32.7656C25.112 32.7031 25.1641 32.6589 25.2422 32.6328C25.3203 32.6068 25.3594 32.5729 25.3594 32.5312C25.3594 32.4948 25.4271 32.4219 25.5625 32.3125C25.6979 32.2031 25.7969 32.1094 25.8594 32.0312C25.9219 31.9479 25.974 31.9062 26.0156 31.9062L26.0469 31.875C26.0573 31.7448 26.1068 31.6797 26.1953 31.6797L26.2734 31.6328L26.2891 31.5703L26.3359 31.5391H26.3984L26.4375 31.5078C26.4479 31.3776 26.5078 31.276 26.6172 31.2031C26.7318 31.1302 26.9375 30.9271 27.2344 30.5938C27.5312 30.2552 27.6979 30.0391 27.7344 29.9453C27.7708 29.8516 27.8359 29.7266 27.9297 29.5703C28.0286 29.4089 28.0833 29.2578 28.0938 29.1172C28.0833 29.0964 28.0677 29.0755 28.0469 29.0547L27.7109 29.2188C27.7109 29.2031 27.6589 29.1797 27.5547 29.1484C27.4766 29.1953 27.4193 29.2422 27.3828 29.2891C27.3464 29.3359 27.3177 29.3594 27.2969 29.3594L27.1875 29.3438L26.8438 29.3828C26.5365 29.4089 26.3047 29.4714 26.1484 29.5703L25.8281 29.6641H25.7578C25.7161 29.6641 25.6536 29.6901 25.5703 29.7422L25.3906 29.7266C25.224 29.8151 25.1016 29.8594 25.0234 29.8594C25.013 29.8594 24.9818 29.8542 24.9297 29.8438L24.1328 30.0625C24.0703 30.0833 23.9297 30.1901 23.7109 30.3828L23.6484 30.3984C23.5964 30.3984 23.5365 30.3411 23.4688 30.2266C23.3958 30.1068 23.3594 30 23.3594 29.9062C23.3594 29.3906 23.8021 29.0911 24.6875 29.0078L25.0078 28.8828H25.0234L25.1094 28.9141H25.1406C25.1719 28.9141 25.2214 28.8958 25.2891 28.8594C25.3568 28.8177 25.5078 28.7682 25.7422 28.7109L26.0625 28.625L26.1641 28.6406C26.2161 28.6406 26.2734 28.6198 26.3359 28.5781C26.4036 28.5365 26.5026 28.5078 26.6328 28.4922C26.7682 28.4714 26.862 28.4505 26.9141 28.4297L27.0391 28.3984C27.0599 28.3984 27.1016 28.3802 27.1641 28.3438C27.2318 28.3073 27.3177 28.2891 27.4219 28.2891C27.4375 28.2891 27.4766 28.2995 27.5391 28.3203ZM35.6406 33.3594L35.7656 33.25C35.8438 33.25 35.8906 33.2161 35.9062 33.1484C35.9219 33.0755 35.9766 33.0182 36.0703 32.9766C36.1693 32.9349 36.2604 32.8516 36.3438 32.7266C36.4271 32.5964 36.513 32.5312 36.6016 32.5312C36.6328 32.5312 36.6693 32.5573 36.7109 32.6094C36.7526 32.6615 36.7734 32.7031 36.7734 32.7344C36.7734 32.9062 36.7214 33.0833 36.6172 33.2656L36.5859 33.4844L36.5312 33.5859C36.4531 33.6276 36.401 33.6719 36.375 33.7188C36.3542 33.7656 36.2943 33.8229 36.1953 33.8906L36.1172 34C36.0026 34.0365 35.9245 34.0964 35.8828 34.1797C35.8464 34.263 35.7917 34.3099 35.7188 34.3203C35.651 34.3307 35.5755 34.3828 35.4922 34.4766C35.4401 34.5026 35.3776 34.526 35.3047 34.5469L35.2891 34.625C35.237 34.6771 35.1536 34.7188 35.0391 34.75C34.9297 34.7812 34.8464 34.8125 34.7891 34.8438C34.737 34.8698 34.7005 34.8828 34.6797 34.8828C34.5807 34.8828 34.4896 34.8646 34.4062 34.8281C34.3229 34.7865 34.237 34.7604 34.1484 34.75C34.1172 34.7188 34.099 34.6849 34.0938 34.6484C34.0885 34.612 34.0625 34.5651 34.0156 34.5078C33.9688 34.4453 33.9453 34.362 33.9453 34.2578L33.9766 34.1094C33.9766 34.0885 33.9635 34.0625 33.9375 34.0312C33.9115 34 33.8984 33.974 33.8984 33.9531C33.8984 33.9323 33.9036 33.9167 33.9141 33.9062C33.9245 33.8958 33.9297 33.8802 33.9297 33.8594C33.9297 33.8333 33.9245 33.8047 33.9141 33.7734C33.9036 33.7422 33.8984 33.7161 33.8984 33.6953L33.9453 33.3125C33.9453 33.2812 33.9349 33.2656 33.9141 33.2656C33.8932 33.2656 33.8542 33.2917 33.7969 33.3438C33.7448 33.3958 33.6823 33.4219 33.6094 33.4219C33.5677 33.4531 33.5339 33.5182 33.5078 33.6172C33.4661 33.6693 33.4141 33.7161 33.3516 33.7578L33.3203 33.8047C33.3099 33.8411 33.2708 33.8724 33.2031 33.8984C33.1354 33.9193 33.0885 33.9479 33.0625 33.9844L32.9844 34.0625L32.8359 34.0469C32.8255 34.0573 32.7969 34.1042 32.75 34.1875C32.7031 34.2656 32.6432 34.3307 32.5703 34.3828L31.9766 34.8672C31.9141 34.9089 31.8229 34.9609 31.7031 35.0234L31.6562 35.0703C31.2396 35.3464 30.9453 35.4844 30.7734 35.4844C30.6328 35.4844 30.4688 35.4453 30.2812 35.3672C30.0938 35.2891 29.9922 35.1953 29.9766 35.0859L29.8984 34.7656C29.8516 34.6927 29.8281 34.5911 29.8281 34.4609C29.8281 34.3984 29.8333 34.3568 29.8438 34.3359V34.2891L29.8281 34.0312C29.8281 33.9688 29.8776 33.9375 29.9766 33.9375L29.9609 33.7266C29.9609 33.7057 30.0052 33.625 30.0938 33.4844C30.1875 33.3385 30.25 33.2552 30.2812 33.2344L30.3594 33.1328C30.3542 33.0703 30.3906 33.0052 30.4688 32.9375C30.5469 32.8646 30.6094 32.7917 30.6562 32.7188C30.7031 32.6458 30.7917 32.5651 30.9219 32.4766L31.1562 32.2422C31.3385 32.0599 31.5365 31.9141 31.75 31.8047C31.7812 31.7943 31.8438 31.7422 31.9375 31.6484C32.0365 31.5547 32.1458 31.487 32.2656 31.4453C32.3906 31.3984 32.5104 31.3411 32.625 31.2734C32.7448 31.2057 32.8385 31.1719 32.9062 31.1719H32.9688C32.9896 31.1719 33.1276 31.1068 33.3828 30.9766H33.4297C33.4505 30.9766 33.5 30.9974 33.5781 31.0391H33.5938L33.7188 30.9766C33.7396 30.9661 33.7656 30.9609 33.7969 30.9609C34.1198 30.9609 34.2969 31.1849 34.3281 31.6328C34.3385 31.7266 34.3646 31.7734 34.4062 31.7734C34.4583 31.7734 34.5312 31.6797 34.625 31.4922C34.724 31.2995 34.9297 31.2031 35.2422 31.2031C35.4661 31.2031 35.5781 31.3464 35.5781 31.6328C35.5781 31.9714 35.4271 32.2917 35.125 32.5938C35.1042 32.6354 35.0885 32.6823 35.0781 32.7344L34.9688 33.0547V33.0703C34.9688 33.1016 34.9453 33.1458 34.8984 33.2031C34.8568 33.2552 34.8359 33.3021 34.8359 33.3438L34.8516 33.5391L34.8203 33.7578C34.8203 33.8568 34.8385 33.9219 34.875 33.9531C35.0417 33.9115 35.1615 33.8438 35.2344 33.75C35.3125 33.651 35.3672 33.5964 35.3984 33.5859L35.4766 33.5547C35.5234 33.4766 35.5781 33.4115 35.6406 33.3594ZM33.0469 33.3594C33.0677 33.2448 33.1302 33.1589 33.2344 33.1016C33.3438 33.0391 33.4089 32.9766 33.4297 32.9141C33.5286 32.8411 33.6693 32.7109 33.8516 32.5234C34.0391 32.3359 34.1328 32.2214 34.1328 32.1797C34.1328 32.1641 34.1224 32.1562 34.1016 32.1562H34.0859L34.0234 32.1953L33.8828 32.1797L33.7344 32.1953L33.625 32.1406L33.5234 32.1562L33.3672 32.125C33.2839 32.125 33.2109 32.1432 33.1484 32.1797C33.0911 32.2109 32.9766 32.2474 32.8047 32.2891C32.638 32.3307 32.487 32.4036 32.3516 32.5078C32.2161 32.6068 32.1172 32.6562 32.0547 32.6562C32.0182 32.7344 31.8958 32.8464 31.6875 32.9922C31.5625 33.0339 31.4818 33.125 31.4453 33.2656C31.3099 33.375 31.2422 33.4375 31.2422 33.4531L31.1875 33.5859C31.1458 33.6224 31.0938 33.6536 31.0312 33.6797C30.9688 33.7005 30.9323 33.7552 30.9219 33.8438C30.9115 33.9271 30.875 34.0052 30.8125 34.0781C30.7552 34.1458 30.7266 34.2005 30.7266 34.2422C30.7266 34.4974 30.776 34.625 30.875 34.625C30.9167 34.625 31.0026 34.599 31.1328 34.5469C31.2682 34.4896 31.3464 34.4505 31.3672 34.4297C31.388 34.4089 31.4297 34.388 31.4922 34.3672L31.6406 34.2891C31.6615 34.2682 31.6849 34.2552 31.7109 34.25C31.737 34.2448 31.763 34.2292 31.7891 34.2031C31.8151 34.1719 31.862 34.1406 31.9297 34.1094C31.9974 34.0729 32.0495 34.026 32.0859 33.9688C32.1745 33.9167 32.3177 33.8359 32.5156 33.7266L32.6797 33.6016C32.7943 33.5495 32.8646 33.5052 32.8906 33.4688C32.9167 33.4323 32.9688 33.3958 33.0469 33.3594ZM37.3281 33.5234V33.4688C37.3281 33.3958 37.3333 33.3385 37.3438 33.2969C37.3125 33.2135 37.2969 33.138 37.2969 33.0703C37.2969 33.0599 37.3229 32.987 37.375 32.8516L37.4453 32.6094C37.4818 32.5156 37.5026 32.4661 37.5078 32.4609C37.4766 32.3776 37.4609 32.3307 37.4609 32.3203C37.4609 32.2005 37.4948 32.1016 37.5625 32.0234C37.6302 31.9453 37.6875 31.8359 37.7344 31.6953L37.8906 31.2188L38.1484 30.5938C38.1536 30.5781 38.1771 30.5365 38.2188 30.4688C38.2656 30.401 38.3021 30.3438 38.3281 30.2969C38.3594 30.2448 38.401 30.1719 38.4531 30.0781L38.5312 30.0625C38.5521 30.0417 38.5625 30.0208 38.5625 30C38.5625 29.9896 38.5521 29.9479 38.5312 29.875L38.8047 29.4219L38.9688 29.0859C39.0208 28.9974 39.0781 28.9401 39.1406 28.9141C39.2448 28.7214 39.3359 28.6042 39.4141 28.5625C39.4453 28.4635 39.5026 28.3568 39.5859 28.2422L39.7344 28.2266C39.7604 28.1536 39.7865 28.099 39.8125 28.0625L39.8281 27.9062C39.8281 27.9375 39.8411 27.9297 39.8672 27.8828C39.8932 27.8307 39.9323 27.737 39.9844 27.6016L40.1953 27.3594L40.2578 27.25C40.2839 27.2135 40.3255 27.1432 40.3828 27.0391C40.4609 27.0078 40.526 26.9505 40.5781 26.8672L40.7422 26.7344C40.7318 26.6771 40.7943 26.5495 40.9297 26.3516C41.0182 26.3151 41.099 26.2682 41.1719 26.2109L41.2812 26.1797C41.2812 25.9974 41.3464 25.8724 41.4766 25.8047L41.5703 25.7422C41.6536 25.7005 41.7005 25.6797 41.7109 25.6797L41.7656 25.6641C41.8281 25.6432 41.901 25.6328 41.9844 25.6328C42.1771 25.6328 42.3516 25.7057 42.5078 25.8516C42.6641 25.9922 42.7422 26.1536 42.7422 26.3359C42.7422 26.4089 42.7031 26.4844 42.625 26.5625L42.5938 26.625C42.5208 26.9115 42.4688 27.0547 42.4375 27.0547C42.4167 27.0547 42.388 27.0703 42.3516 27.1016C42.3411 27.2734 42.3307 27.3698 42.3203 27.3906C42.2266 27.4062 42.1797 27.5234 42.1797 27.7422C42.1693 27.7734 42.1302 27.8281 42.0625 27.9062C42 27.9792 41.9505 28.0833 41.9141 28.2188C41.8776 28.349 41.8385 28.4141 41.7969 28.4141H41.7109L41.7344 28.5312C41.7344 28.6042 41.6979 28.6771 41.625 28.75C41.5573 28.8177 41.5156 28.8906 41.5 28.9688C41.4844 29.0469 41.4219 29.1406 41.3125 29.25L41.2344 29.375C41.2031 29.4271 41.1615 29.4818 41.1094 29.5391C41.0573 29.5964 41.013 29.6849 40.9766 29.8047L40.7734 30.1797C40.6328 30.4349 40.526 30.5573 40.4531 30.5469C40.4062 30.75 40.375 30.8672 40.3594 30.8984C40.3438 30.9297 40.3073 30.9583 40.25 30.9844C40.1927 31.0104 40.1484 31.0573 40.1172 31.125C40.0859 31.1875 40.0521 31.2344 40.0156 31.2656L39.875 31.5547C39.7917 31.5911 39.7318 31.6589 39.6953 31.7578C39.612 31.7786 39.5599 31.849 39.5391 31.9688C39.5182 31.9896 39.4922 32.0365 39.4609 32.1094L39.1875 32.3828C39.0469 32.4818 38.9714 32.5964 38.9609 32.7266C38.9505 32.8516 38.8828 32.9141 38.7578 32.9141C38.6693 32.9141 38.5391 32.875 38.3672 32.7969H38.3516C38.3359 32.8698 38.2995 32.9505 38.2422 33.0391L38.2734 33.25C38.2734 33.276 38.2318 33.4401 38.1484 33.7422C38.1901 33.8203 38.2109 33.875 38.2109 33.9062L38.1953 34.0781L38.2344 34.2891C38.2604 34.4609 38.3229 34.5469 38.4219 34.5469L38.6094 34.5781C38.6198 34.5781 38.6849 34.5391 38.8047 34.4609L39.0938 34.3047C39.1042 34.3047 39.1094 34.3099 39.1094 34.3203C39.1615 34.3411 39.2031 34.3516 39.2344 34.3516C39.2865 34.3516 39.3125 34.3099 39.3125 34.2266V34.125C39.3438 34.0729 39.3802 34.0417 39.4219 34.0312C39.4688 34.0208 39.5104 33.9974 39.5469 33.9609C39.5833 33.9245 39.612 33.9062 39.6328 33.9062H39.7109C39.7891 33.9062 39.8281 33.8151 39.8281 33.6328C39.849 33.6224 39.875 33.6016 39.9062 33.5703H40C40.0417 33.5703 40.0859 33.5208 40.1328 33.4219C40.1849 33.3177 40.2214 33.2552 40.2422 33.2344C40.3359 33.224 40.401 33.2083 40.4375 33.1875C40.6042 32.8854 40.7318 32.7344 40.8203 32.7344H40.8672C40.9557 32.651 41.0026 32.5781 41.0078 32.5156C41.0182 32.4479 41.0443 32.4036 41.0859 32.3828C41.1328 32.362 41.1745 32.3359 41.2109 32.3047C41.2474 32.2734 41.2708 32.2578 41.2812 32.2578C41.3594 32.2578 41.3984 32.2865 41.3984 32.3438L41.375 32.5625L41.4297 32.7969C41.4297 32.8177 41.4062 32.8594 41.3594 32.9219C41.3177 32.9792 41.2969 33.0443 41.2969 33.1172C41.2969 33.2682 41.2708 33.349 41.2188 33.3594C41.1667 33.3698 41.1224 33.4062 41.0859 33.4688C41.0547 33.526 41 33.5807 40.9219 33.6328C40.8438 33.6797 40.7839 33.75 40.7422 33.8438L40.6094 33.875L40.5312 33.9219C40.4688 34.0833 40.401 34.1823 40.3281 34.2188C40.2604 34.2552 40.1745 34.3646 40.0703 34.5469C40.0547 34.5469 40.0469 34.5521 40.0469 34.5625L39.9219 34.5469C39.875 34.6302 39.8281 34.6797 39.7812 34.6953C39.7344 34.7109 39.6953 34.7422 39.6641 34.7891C39.6328 34.8307 39.5755 34.8672 39.4922 34.8984C39.4141 34.9297 39.3646 34.9661 39.3438 35.0078C39.3229 35.0495 39.2917 35.0729 39.25 35.0781C39.2083 35.0833 39.1693 35.1042 39.1328 35.1406C39.0964 35.1719 39.0651 35.1875 39.0391 35.1875C39.0286 35.1875 38.9922 35.1823 38.9297 35.1719H38.8984C38.8099 35.2344 38.737 35.2656 38.6797 35.2656C38.612 35.2656 38.5625 35.276 38.5312 35.2969C38.5 35.276 38.4505 35.2604 38.3828 35.25C38.3203 35.2396 38.2474 35.2135 38.1641 35.1719C38.0755 35.1927 38.0208 35.2031 38 35.2031C37.9115 35.2031 37.7995 35.1172 37.6641 34.9453C37.5286 34.7682 37.4609 34.5964 37.4609 34.4297C37.4609 34.4245 37.4297 34.3854 37.3672 34.3125C37.3099 34.2344 37.2812 34.151 37.2812 34.0625V33.9844L37.2969 33.8906V33.7422L37.3125 33.6953C37.3906 33.6849 37.4297 33.6745 37.4297 33.6641L37.3281 33.5234ZM38.9141 31.4531L39.0781 31.3594C39.099 31.276 39.1667 31.1771 39.2812 31.0625C39.3958 30.9427 39.4766 30.8828 39.5234 30.8828H39.5859C39.5859 30.8464 39.5938 30.8099 39.6094 30.7734C39.625 30.737 39.6328 30.6875 39.6328 30.625C39.6328 30.5938 39.7031 30.5078 39.8438 30.3672L39.9062 30.2266C39.9531 30.0911 40.0703 29.9792 40.2578 29.8906C40.3307 29.7396 40.3854 29.6641 40.4219 29.6641L40.4844 29.6484C40.5052 29.5703 40.5469 29.5 40.6094 29.4375L40.6406 29.3906V29.2656C40.6406 29.2552 40.6745 29.2135 40.7422 29.1406C40.8151 29.0625 40.8672 28.9922 40.8984 28.9297C40.9297 28.862 40.9714 28.8099 41.0234 28.7734C41.0807 28.737 41.1198 28.6719 41.1406 28.5781L41.2656 28.5625C41.2656 28.4948 41.2708 28.4505 41.2812 28.4297L41.2969 28.3516C41.3229 28.2891 41.4141 28.125 41.5703 27.8594L41.6953 27.5703C41.6953 27.5391 41.7161 27.5026 41.7578 27.4609C41.8047 27.4141 41.8281 27.349 41.8281 27.2656L41.8906 27.0078C41.8906 26.888 41.8698 26.8281 41.8281 26.8281C41.776 26.8646 41.7266 26.8906 41.6797 26.9062C41.638 26.9219 41.5964 27.0156 41.5547 27.1875C41.3984 27.224 41.3073 27.2995 41.2812 27.4141C41.2604 27.5234 41.1979 27.6172 41.0938 27.6953L41.0391 27.7891C41.0286 27.8464 40.9792 27.9062 40.8906 27.9688C40.8021 28.0312 40.7188 28.138 40.6406 28.2891C40.3802 28.6484 40.237 28.8411 40.2109 28.8672L40.1328 28.9609L40.0156 28.9453C40.0365 29.0286 40.0469 29.0755 40.0469 29.0859C40.0469 29.1172 40.0312 29.1484 40 29.1797C39.9688 29.2057 39.9453 29.2396 39.9297 29.2812C39.9141 29.3229 39.8828 29.3724 39.8359 29.4297C39.7891 29.4818 39.7448 29.5703 39.7031 29.6953C39.6667 29.8151 39.6328 29.8854 39.6016 29.9062L39.4922 29.8906C39.4245 29.9323 39.3906 29.974 39.3906 30.0156L39.4141 30.125C39.4141 30.1458 39.3984 30.1719 39.3672 30.2031C39.3411 30.2292 39.3151 30.2839 39.2891 30.3672C39.263 30.4505 39.1979 30.5781 39.0938 30.75C38.9896 30.9167 38.9062 31.0964 38.8438 31.2891C38.7865 31.4766 38.7292 31.5964 38.6719 31.6484C38.6823 31.6589 38.6979 31.6641 38.7188 31.6641C38.7865 31.6641 38.8516 31.5938 38.9141 31.4531ZM46.2969 30.3516L46.0156 30.2891C45.8646 30.263 45.7891 30.1068 45.7891 29.8203C45.7891 29.5964 45.9661 29.4062 46.3203 29.25C46.6797 29.0885 46.8958 28.9844 46.9688 28.9375C47.0469 28.8906 47.1432 28.8672 47.2578 28.8672C47.3464 28.7891 47.4792 28.7109 47.6562 28.6328C47.8385 28.5547 47.9688 28.4896 48.0469 28.4375C48.1302 28.3802 48.2057 28.3411 48.2734 28.3203C48.3464 28.2995 48.4089 28.2578 48.4609 28.1953C48.5286 28.1745 48.5859 28.1536 48.6328 28.1328C48.6797 28.1068 48.7786 28.0703 48.9297 28.0234C49.0859 27.9766 49.1797 27.9375 49.2109 27.9062L49.3906 27.7891C49.5417 27.7839 49.6328 27.7604 49.6641 27.7188C49.7005 27.6771 49.8021 27.6328 49.9688 27.5859L50.2031 27.5234C50.2344 27.5234 50.2734 27.5495 50.3203 27.6016C50.3411 27.4818 50.388 27.4219 50.4609 27.4219L50.7031 27.4375C50.7969 27.375 50.8542 27.3438 50.875 27.3438L50.9219 27.3125C51.0208 27.3229 51.0938 27.3333 51.1406 27.3438C51.1875 27.3542 51.2318 27.3906 51.2734 27.4531C51.3203 27.3802 51.3646 27.3438 51.4062 27.3438C51.4896 27.3438 51.5859 27.3802 51.6953 27.4531L51.8203 27.4375C51.9505 27.4375 52.0208 27.4792 52.0312 27.5625C52.0417 27.6406 52.0651 27.7031 52.1016 27.75C52.138 27.7969 52.1719 27.8646 52.2031 27.9531L52.2656 28.0469C52.3125 28.0781 52.3359 28.1146 52.3359 28.1562C52.3359 28.2656 52.2708 28.4219 52.1406 28.625L51.9297 29.0391C51.8672 29.138 51.7995 29.224 51.7266 29.2969L51.6641 29.4219C51.5859 29.5104 51.5234 29.5729 51.4766 29.6094C51.4297 29.6458 51.401 29.7552 51.3906 29.9375C51.3698 30 51.3385 30.0469 51.2969 30.0781C51.2604 30.1042 51.2318 30.138 51.2109 30.1797C51.1068 30.2057 51.0339 30.263 50.9922 30.3516L50.6016 31.0391C50.5859 31.0755 50.5286 31.1172 50.4297 31.1641C50.3359 31.2109 50.2396 31.3828 50.1406 31.6797C50.1979 31.6224 50.2578 31.5703 50.3203 31.5234L50.4609 31.3281L51.1484 30.6719C51.2839 30.5417 51.3724 30.4583 51.4141 30.4219C51.4557 30.3802 51.4948 30.3568 51.5312 30.3516C51.5469 30.3099 51.5964 30.2604 51.6797 30.2031C51.763 30.1458 51.8411 30.0729 51.9141 29.9844L52.0156 29.8906L52.0625 29.8047C52.1042 29.7109 52.1615 29.6641 52.2344 29.6641L52.2969 29.6016C52.3229 29.5026 52.388 29.4531 52.4922 29.4531C52.513 29.4323 52.526 29.388 52.5312 29.3203C52.5365 29.2526 52.5833 29.2188 52.6719 29.2188H52.7344L52.75 29.2031C52.7604 29.1562 52.7786 29.125 52.8047 29.1094C52.8307 29.0938 52.8542 29.0599 52.875 29.0078C52.875 29.0339 52.8828 29.0365 52.8984 29.0156C52.9193 28.9948 52.9531 28.9427 53 28.8594C53.0469 28.776 53.099 28.724 53.1562 28.7031C53.2135 28.6823 53.25 28.6458 53.2656 28.5938C53.2812 28.5417 53.3203 28.5 53.3828 28.4688C53.4505 28.4323 53.5078 28.3958 53.5547 28.3594C53.6016 28.3229 53.6432 28.3047 53.6797 28.3047C53.7005 28.3047 53.7318 28.3255 53.7734 28.3672C53.7839 28.2057 53.9661 28.0469 54.3203 27.8906L54.7344 27.5859C54.849 27.513 54.9375 27.4688 55 27.4531C55.0625 27.4323 55.1615 27.3802 55.2969 27.2969C55.4323 27.2083 55.5417 27.1562 55.625 27.1406C55.7083 27.125 55.8438 27.1172 56.0312 27.1172L56.1875 27.1484C56.2292 27.1276 56.2839 27.1172 56.3516 27.1172C56.4818 27.1172 56.6536 27.1901 56.8672 27.3359C57.0859 27.4818 57.1953 27.6927 57.1953 27.9688C57.1953 28.1719 57.1146 28.3854 56.9531 28.6094C56.9219 28.6406 56.8802 28.7188 56.8281 28.8438C56.776 28.9635 56.7266 29.0625 56.6797 29.1406C56.638 29.2135 56.6042 29.2969 56.5781 29.3906C56.5521 29.4792 56.4766 29.5859 56.3516 29.7109C56.2318 29.8307 56.1536 29.9844 56.1172 30.1719C56.112 30.1979 56.0911 30.2344 56.0547 30.2812C56.0182 30.3281 55.987 30.3906 55.9609 30.4688C55.9401 30.5417 55.8932 30.6276 55.8203 30.7266C55.7474 30.8203 55.7005 30.9141 55.6797 31.0078C55.6797 31.0391 55.599 31.1458 55.4375 31.3281L55.1797 31.9844C55.1224 32.026 55.0495 32.1562 54.9609 32.375L54.6875 32.9922C54.6094 33.1224 54.5547 33.2031 54.5234 33.2344V33.4219C54.4609 33.5104 54.4219 33.6328 54.4062 33.7891C54.3906 33.9401 54.3776 34.0443 54.3672 34.1016C54.3568 34.1536 54.3516 34.1901 54.3516 34.2109C54.3516 34.3151 54.4036 34.3672 54.5078 34.3672C54.6589 34.3672 54.7708 34.3307 54.8438 34.2578C54.9167 34.1797 54.974 34.1276 55.0156 34.1016C55.0625 34.0755 55.1432 34.0052 55.2578 33.8906L55.7734 33.4688C55.9089 33.3646 56 33.2943 56.0469 33.2578C56.0938 33.2161 56.1667 33.1927 56.2656 33.1875C56.474 32.7708 56.6667 32.5625 56.8438 32.5625C57.0156 32.5625 57.1016 32.6094 57.1016 32.7031L57.0391 32.8125L57.0859 32.9609V32.9922L57.0391 33.25C57.0286 33.2812 56.9688 33.3333 56.8594 33.4062C56.849 33.4792 56.8021 33.5417 56.7188 33.5938C56.6406 33.6406 56.5703 33.6953 56.5078 33.7578L56.3672 33.7422C56.3307 33.8411 56.2786 33.9193 56.2109 33.9766L55.9844 34.1484C55.9062 34.2057 55.8099 34.2734 55.6953 34.3516C55.5859 34.4297 55.4635 34.4922 55.3281 34.5391C55.1927 34.5859 55.1016 34.6328 55.0547 34.6797C55.013 34.7266 54.9635 34.7552 54.9062 34.7656H54.7812L54.6016 34.8125L54.1562 34.8672C54.1094 34.8672 53.9141 34.763 53.5703 34.5547C53.2266 34.3464 53.0547 33.9896 53.0547 33.4844C53.0547 33.3177 53.0859 33.1849 53.1484 33.0859L53.1953 32.9922C53.2057 32.9609 53.2344 32.9062 53.2812 32.8281C53.3281 32.75 53.3698 32.6615 53.4062 32.5625C53.5 32.5156 53.5469 32.4766 53.5469 32.4453C53.5469 32.4349 53.5417 32.4219 53.5312 32.4062C53.5208 32.3906 53.5156 32.3724 53.5156 32.3516C53.5156 32.3099 53.5365 32.2578 53.5781 32.1953V32.0469L54.0312 31.3438C54.0312 31.3385 54.0911 31.2083 54.2109 30.9531C54.3359 30.6927 54.4115 30.5521 54.4375 30.5312C54.4635 30.5104 54.4792 30.4896 54.4844 30.4688C54.4896 30.4427 54.5 30.4115 54.5156 30.375C54.5312 30.3385 54.5417 30.2969 54.5469 30.25C54.5521 30.2031 54.5911 30.138 54.6641 30.0547C54.7422 29.9661 54.8125 29.8672 54.875 29.7578L54.9531 29.6484C55.0104 29.5755 55.0547 29.4974 55.0859 29.4141C55.1172 29.3255 55.1484 29.263 55.1797 29.2266C55.4453 28.9141 55.5938 28.6276 55.625 28.3672C55.6615 28.3047 55.7005 28.25 55.7422 28.2031C55.7839 28.151 55.8047 28.0938 55.8047 28.0312L55.7578 27.9219C55.6276 27.9635 55.4948 28.0286 55.3594 28.1172C55.2292 28.2005 55.0885 28.2682 54.9375 28.3203C54.7917 28.3724 54.6875 28.4245 54.625 28.4766C54.5677 28.5234 54.4219 28.6146 54.1875 28.75L54.0781 28.8828C54.0781 28.8932 54.0677 28.9036 54.0469 28.9141L53.8984 28.8984C53.8776 28.9089 53.8568 28.9427 53.8359 29C53.8203 29.0521 53.763 29.0911 53.6641 29.1172C53.6484 29.1224 53.6146 29.1823 53.5625 29.2969C53.5208 29.3281 53.4141 29.3646 53.2422 29.4062C53.1797 29.4583 53.1224 29.5339 53.0703 29.6328C53.0182 29.7266 52.9323 29.7943 52.8125 29.8359C52.6927 29.8724 52.6224 29.901 52.6016 29.9219C52.5599 30.1615 52.4609 30.3047 52.3047 30.3516C52.1484 30.3932 52.0495 30.4844 52.0078 30.625C51.9661 30.7604 51.888 30.8411 51.7734 30.8672C51.7318 30.8984 51.6641 30.974 51.5703 31.0938C51.4818 31.2083 51.3698 31.3125 51.2344 31.4062C51.1042 31.5 50.9896 31.6146 50.8906 31.75C50.7969 31.8854 50.7109 31.9792 50.6328 32.0312C50.5547 32.0781 50.3932 32.237 50.1484 32.5078C49.9036 32.7786 49.7656 32.9401 49.7344 32.9922C49.7031 33.0443 49.5885 33.1719 49.3906 33.375C49.3698 33.375 49.3203 33.3854 49.2422 33.4062C49.2214 33.4479 49.1979 33.4818 49.1719 33.5078L48.8594 33.8672C48.7292 34.013 48.5755 34.2109 48.3984 34.4609C48.3464 34.487 48.3021 34.5052 48.2656 34.5156C48.2448 34.5365 48.2292 34.5781 48.2188 34.6406L48.1719 34.7344L48 34.8516C47.8594 35.1693 47.6615 35.3281 47.4062 35.3281C47.2656 35.3281 47.1354 35.2214 47.0156 35.0078C46.901 34.7891 46.8438 34.6771 46.8438 34.6719C46.8438 34.375 46.8646 34.1823 46.9062 34.0938C46.9531 34.0052 47.013 33.9219 47.0859 33.8438C47.0964 33.8438 47.1198 33.7969 47.1562 33.7031C47.1927 33.6042 47.237 33.5234 47.2891 33.4609C47.3464 33.3932 47.4089 33.2943 47.4766 33.1641C47.5443 33.0286 47.6068 32.9609 47.6641 32.9609C47.6745 32.9609 47.6953 32.9661 47.7266 32.9766L47.7578 32.9453L47.7266 32.7656C47.7474 32.7135 47.7734 32.6719 47.8047 32.6406C47.8359 32.6094 47.8672 32.5521 47.8984 32.4688C47.9297 32.3802 47.9948 32.3151 48.0938 32.2734C48.0938 32.2318 48.1458 32.1458 48.25 32.0156C48.2917 31.9167 48.349 31.8021 48.4219 31.6719C48.5 31.5365 48.5833 31.4531 48.6719 31.4219V31.3594C48.6719 31.2969 48.7396 31.1953 48.875 31.0547C48.9375 31.0339 48.9792 30.9818 49 30.8984C49.026 30.8151 49.0755 30.75 49.1484 30.7031C49.2266 30.599 49.3125 30.4792 49.4062 30.3438L49.7109 29.9531C49.7734 29.8854 49.8203 29.8411 49.8516 29.8203C49.8516 29.6641 49.901 29.5859 50 29.5859C50.0104 29.5859 50.0312 29.5911 50.0625 29.6016C50.0833 29.4922 50.1146 29.4141 50.1562 29.3672C50.1979 29.3203 50.224 29.2656 50.2344 29.2031C50.2448 29.1354 50.3359 29.0755 50.5078 29.0234L50.4766 28.9141C50.5599 28.7318 50.651 28.6146 50.75 28.5625C50.7656 28.5469 50.8125 28.4349 50.8906 28.2266C50.8906 28.1953 50.8385 28.1615 50.7344 28.125C50.7031 28.1615 50.6771 28.1797 50.6562 28.1797L50.3984 28.1562L50.1562 28.2422C50.0729 28.2422 50.026 28.2474 50.0156 28.2578L49.9141 28.2891C49.8151 28.3255 49.7526 28.362 49.7266 28.3984H49.6953L49.5781 28.3672H49.5469L49.1953 28.5938H49.1641L48.9062 28.5625C48.8542 28.6458 48.7109 28.7083 48.4766 28.75L48.3984 28.8828L48.2188 28.8672C48.1667 28.8984 48.1172 28.9401 48.0703 28.9922C48.0234 29.0443 47.9714 29.0755 47.9141 29.0859C47.5234 29.2578 47.2578 29.4219 47.1172 29.5781C47.0755 29.625 47.0339 29.6641 46.9922 29.6953C46.9557 29.7266 46.9167 29.7812 46.875 29.8594L46.7812 30C46.75 30.0833 46.7057 30.1302 46.6484 30.1406C46.5964 30.151 46.5365 30.1901 46.4688 30.2578C46.401 30.3203 46.3438 30.3516 46.2969 30.3516ZM57.8047 32.1953L57.9688 32.0625C58.0938 32.0521 58.1615 31.987 58.1719 31.8672C58.1823 31.7474 58.2682 31.6432 58.4297 31.5547L58.5234 31.4219C58.6016 31.3438 58.8151 31.2422 59.1641 31.1172C59.2526 31.0651 59.3125 31.0182 59.3438 30.9766C59.3542 30.9661 59.3646 30.9609 59.375 30.9609L59.5 30.9922C59.5677 30.9922 59.6536 30.974 59.7578 30.9375C59.8672 30.901 59.9714 30.8828 60.0703 30.8828L60.3984 30.8672C60.4193 30.8672 60.4609 30.8828 60.5234 30.9141C60.5911 30.9453 60.6719 30.9609 60.7656 30.9609C60.8802 30.9609 60.9844 31.013 61.0781 31.1172C61.1771 31.2214 61.2266 31.3177 61.2266 31.4062C61.2266 31.5677 61.1432 31.7318 60.9766 31.8984C60.8099 32.0651 60.6771 32.1589 60.5781 32.1797C60.4896 32.2682 60.4219 32.3255 60.375 32.3516C60.3281 32.3724 60.2786 32.4089 60.2266 32.4609C60.1797 32.5078 60.1406 32.5312 60.1094 32.5312C60.0885 32.5312 60.0729 32.526 60.0625 32.5156C60.0521 32.5 60.0365 32.4922 60.0156 32.4922C59.9323 32.4922 59.8411 32.5938 59.7422 32.7969L59.6016 32.7812C59.513 32.8385 59.4557 32.901 59.4297 32.9688C59.4036 33.0365 59.349 33.0703 59.2656 33.0703C59.0729 33.263 58.9427 33.3594 58.875 33.3594C58.8646 33.3594 58.8281 33.349 58.7656 33.3281C58.724 33.3802 58.7031 33.4349 58.7031 33.4922C58.7031 33.5547 58.6615 33.5911 58.5781 33.6016L58.4766 33.6953L58.3984 33.6797L58.2422 33.8438C58.1641 33.8438 58.0833 33.8698 58 33.9219C57.9896 33.9844 57.974 34.0651 57.9531 34.1641C57.9323 34.2578 57.9219 34.3099 57.9219 34.3203C57.9219 34.4714 58.0599 34.5469 58.3359 34.5469L58.7109 34.4922C58.8099 34.4922 58.901 34.4661 58.9844 34.4141C59.0729 34.362 59.1667 34.3359 59.2656 34.3359C59.2969 34.3359 59.3438 34.3255 59.4062 34.3047L59.4844 34.3359C59.5208 34.2578 59.5885 34.1875 59.6875 34.125C59.7865 34.0625 59.8646 34.0312 59.9219 34.0312L60 33.9844C60.0208 33.9219 60.0521 33.8802 60.0938 33.8594L60.1562 33.8047C60.1979 33.763 60.237 33.7422 60.2734 33.7422H60.3828L60.4141 33.7266C60.4766 33.5911 60.5625 33.513 60.6719 33.4922C60.7865 33.4661 60.8568 33.4271 60.8828 33.375C60.9141 33.3229 60.9661 33.2917 61.0391 33.2812C61.112 33.2708 61.1719 33.237 61.2188 33.1797C61.2708 33.1172 61.3333 33.0599 61.4062 33.0078C61.4792 32.9557 61.5286 32.9167 61.5547 32.8906C61.5859 32.8646 61.612 32.8516 61.6328 32.8516C61.6641 32.8516 61.6797 32.875 61.6797 32.9219C61.6797 32.9688 61.6901 32.9922 61.7109 32.9922C61.7318 32.9922 61.7422 32.9818 61.7422 32.9609C61.7422 32.9401 61.737 32.9141 61.7266 32.8828V32.8281C61.7266 32.75 61.7682 32.6979 61.8516 32.6719L62.2031 32.4453C62.2135 32.3359 62.2422 32.2734 62.2891 32.2578C62.3411 32.237 62.3802 32.2161 62.4062 32.1953C62.4323 32.1693 62.4609 32.1562 62.4922 32.1562C62.5599 32.1562 62.5938 32.1953 62.5938 32.2734L62.5547 32.4766L62.5938 32.6875C62.5938 32.7188 62.5677 32.763 62.5156 32.8203C62.4688 32.8724 62.4323 32.9557 62.4062 33.0703C62.3802 33.1797 62.3464 33.2396 62.3047 33.25H62.2578C62.1641 33.349 62.0885 33.4089 62.0312 33.4297C61.9792 33.4453 61.9375 33.4766 61.9062 33.5234L61.6406 33.8281C61.5885 33.8802 61.5443 33.9271 61.5078 33.9688C61.4714 34.0104 61.4427 34.0312 61.4219 34.0312L61.3594 33.9688C61.3594 33.9583 61.349 33.9531 61.3281 33.9531C61.276 33.9531 61.2422 33.9844 61.2266 34.0469C61.2161 34.1094 61.1901 34.1641 61.1484 34.2109C60.9922 34.2839 60.8906 34.3516 60.8438 34.4141L60.7969 34.4297H60.6562C60.5885 34.4297 60.5417 34.4818 60.5156 34.5859C60.4896 34.6849 60.4141 34.7422 60.2891 34.7578C60.1693 34.7734 60.0833 34.8047 60.0312 34.8516C60.0208 34.862 59.9974 34.8724 59.9609 34.8828C59.9245 34.8932 59.8516 34.9349 59.7422 35.0078L59.0859 35.2422C59.0339 35.2682 59 35.2812 58.9844 35.2812L58.7656 35.3125C58.7344 35.3125 58.7031 35.2917 58.6719 35.25C58.6406 35.2083 58.6198 35.1875 58.6094 35.1875L58.4688 35.2344C58.3646 35.2656 58.2656 35.2812 58.1719 35.2812C58.1198 35.2812 58.0625 35.263 58 35.2266C57.9375 35.1901 57.888 35.1641 57.8516 35.1484C57.7005 35.1484 57.5938 35.0312 57.5312 34.7969L57.4375 34.8125C57.4167 34.8125 57.3464 34.6276 57.2266 34.2578C57.1953 34.2161 57.1458 34.1875 57.0781 34.1719C57.0104 34.151 56.9766 34.099 56.9766 34.0156C56.9766 33.7812 57.026 33.625 57.125 33.5469C57.2292 33.4635 57.2865 33.401 57.2969 33.3594L57.4062 32.9531C57.4271 32.9375 57.4531 32.8854 57.4844 32.7969L57.6641 32.4688C57.6849 32.4323 57.7318 32.3411 57.8047 32.1953ZM59.4531 31.7266L59.3594 31.7734C59.3385 31.7839 59.276 31.8307 59.1719 31.9141C59.0729 31.9922 58.974 32.0573 58.875 32.1094C58.7812 32.1562 58.6823 32.2839 58.5781 32.4922C58.4792 32.7005 58.4297 32.8203 58.4297 32.8516C58.4297 32.8828 58.4453 32.8984 58.4766 32.8984L58.7422 32.7812C58.8411 32.7344 58.9323 32.6745 59.0156 32.6016C59.1042 32.5286 59.2292 32.4401 59.3906 32.3359L59.4531 32.2734C59.4635 32.2526 59.5104 32.2161 59.5938 32.1641C59.6823 32.1068 59.7474 32.0521 59.7891 32L59.8672 31.9688C59.9557 31.8281 60.0443 31.7422 60.1328 31.7109C60.2266 31.6797 60.2734 31.6484 60.2734 31.6172C60.2734 31.5547 60.224 31.5234 60.125 31.5234C60.0833 31.5234 60.0208 31.5495 59.9375 31.6016H59.7578C59.737 31.6016 59.6797 31.6328 59.5859 31.6953L59.4531 31.7266ZM62.7188 34.9297L62.8047 34.8125C62.8359 34.7708 62.8516 34.724 62.8516 34.6719L63.0391 34.1172C63.1068 33.9193 63.1458 33.8099 63.1562 33.7891L63.1875 33.6328L63.2812 33.4531L63.3125 33.25C63.3333 33.099 63.4089 32.875 63.5391 32.5781L63.5547 32.4609L63.6172 32.2891V32.2578C63.6172 32.2057 63.6016 32.1797 63.5703 32.1797H63.5078C63.4141 32.1797 63.362 32.2005 63.3516 32.2422L63.2969 32.4609C63.2969 32.5391 63.25 32.5781 63.1562 32.5781C63.1458 32.5781 63.1172 32.5703 63.0703 32.5547C63.0286 32.5391 63.0026 32.5312 62.9922 32.5312C62.9609 32.5938 62.9193 32.6719 62.8672 32.7656C62.8151 32.7865 62.7292 32.8411 62.6094 32.9297L62.5312 32.9453C62.474 33.0286 62.388 33.1146 62.2734 33.2031L62.2422 33.25C62.1693 33.3646 62.0677 33.4219 61.9375 33.4219C61.7656 33.4219 61.6797 33.3047 61.6797 33.0703C61.6797 32.9245 61.75 32.8151 61.8906 32.7422C62.0312 32.6641 62.1224 32.5964 62.1641 32.5391C62.2057 32.4766 62.3177 32.3932 62.5 32.2891L62.5781 32.1797C62.6198 32.1224 62.6562 32.0938 62.6875 32.0938L62.8203 32.0469C62.8411 32.026 62.888 32.0156 62.9609 32.0156L62.9453 31.9062C62.9453 31.875 63.0104 31.8411 63.1406 31.8047C63.1719 31.7734 63.2422 31.7161 63.3516 31.6328C63.4661 31.5495 63.6615 31.3255 63.9375 30.9609C63.9583 30.9089 63.9974 30.8698 64.0547 30.8438C64.1172 30.8125 64.1693 30.776 64.2109 30.7344H64.3672C64.4089 30.7344 64.5026 30.8047 64.6484 30.9453C64.7943 31.0859 64.8672 31.2656 64.8672 31.4844L64.6406 32.4922L64.6562 32.5625L64.6406 32.625C64.6406 32.6458 64.651 32.6562 64.6719 32.6562C64.6927 32.6562 64.737 32.6146 64.8047 32.5312C64.8359 32.4323 64.8984 32.3568 64.9922 32.3047C65.0911 32.2526 65.1641 32.1979 65.2109 32.1406C65.2578 32.0781 65.3203 32.0234 65.3984 31.9766C65.4818 31.9297 65.5885 31.8542 65.7188 31.75C65.8542 31.6406 65.9766 31.5807 66.0859 31.5703L66.1641 31.5234L66.1953 31.4062C66.2891 31.3333 66.3906 31.2656 66.5 31.2031L66.6875 31.0547C66.9115 30.9818 67.0781 30.9453 67.1875 30.9453C67.2396 30.9453 67.2865 30.9245 67.3281 30.8828L67.5078 30.9609C67.5182 30.9609 67.5391 30.9453 67.5703 30.9141C67.5703 30.9036 67.5807 30.8984 67.6016 30.8984C67.8151 30.8984 67.9948 30.9818 68.1406 31.1484C68.2917 31.3151 68.3672 31.4974 68.3672 31.6953C68.3672 31.7057 68.3594 31.7292 68.3438 31.7656C68.3281 31.8021 68.3203 31.8333 68.3203 31.8594L68.3672 31.9844V32L68.1953 32.4453C68.1797 32.4974 68.1484 32.6432 68.1016 32.8828C68.0026 33.0391 67.8854 33.1875 67.75 33.3281C67.6198 33.4688 67.5339 33.5755 67.4922 33.6484C67.513 33.6693 67.5312 33.6797 67.5469 33.6797C67.5938 33.6797 67.6615 33.6328 67.75 33.5391L68.1172 33.3125L68.1797 33.3438C68.2526 33.2917 68.3281 33.2318 68.4062 33.1641C68.4844 33.0964 68.5521 33.0599 68.6094 33.0547C68.6406 33.013 68.6953 32.9609 68.7734 32.8984L68.8516 32.8125C68.8828 32.8125 68.9193 32.7943 68.9609 32.7578C69.0026 32.7214 69.0495 32.6979 69.1016 32.6875C69.1589 32.6771 69.2161 32.638 69.2734 32.5703C69.3307 32.4974 69.3776 32.4557 69.4141 32.4453C69.4557 32.4349 69.4818 32.4141 69.4922 32.3828C69.6693 32.2057 69.8073 32.1094 69.9062 32.0938L70 32.0625C70.0104 32.0521 70.0208 32.0469 70.0312 32.0469C70.0885 32.0469 70.1328 32.1016 70.1641 32.2109L70.0625 32.3672V32.4453L70.0859 32.5312C70.0859 32.5833 70.0547 32.651 69.9922 32.7344C69.9297 32.8125 69.8594 32.8516 69.7812 32.8516C69.6927 32.8932 69.638 32.9401 69.6172 32.9922C69.6016 33.0391 69.526 33.1094 69.3906 33.2031C69.2552 33.2969 69.1719 33.3802 69.1406 33.4531C69.1094 33.5208 69.0651 33.5547 69.0078 33.5547L68.8672 33.5078C68.7474 33.6641 68.6667 33.737 68.625 33.7266H68.5781L68.5469 33.7422L68.4531 33.9375C68.3958 33.9479 68.3516 33.9635 68.3203 33.9844L68.2422 33.9688C67.9245 34.2865 67.7214 34.4453 67.6328 34.4453L67.4922 34.4297C67.4818 34.4297 67.4557 34.4609 67.4141 34.5234C67.3776 34.5807 67.3464 34.6224 67.3203 34.6484C67.2943 34.6745 67.2604 34.7135 67.2188 34.7656H67.0547C67.013 34.7656 66.9349 34.8099 66.8203 34.8984C66.8203 34.9089 66.8151 34.9141 66.8047 34.9141L66.6875 34.8672H66.6719C66.6198 34.8672 66.5521 34.9089 66.4688 34.9922L66.2266 35.0859C66.2266 35.0964 66.2214 35.1016 66.2109 35.1016L66.0469 35.0703C66.0156 35.0703 65.9688 35.0964 65.9062 35.1484L65.8438 35.1875C65.8125 35.1875 65.7578 35.2135 65.6797 35.2656L65.4297 35.3594C65.4036 35.349 65.3802 35.3438 65.3594 35.3438L65.2188 35.3594L65.0938 35.3281C65.0677 35.3281 65.0286 35.3646 64.9766 35.4375C64.9766 35.4479 64.9661 35.4531 64.9453 35.4531C64.9349 35.4531 64.9089 35.4479 64.8672 35.4375H64.7734L64.5938 35.4844C64.5521 35.4844 64.4766 35.4427 64.3672 35.3594C64.263 35.276 64.1953 35.2005 64.1641 35.1328L64.0859 35.0078C64.013 34.9766 63.9635 34.9453 63.9375 34.9141L63.875 34.9453C63.8698 34.9661 63.8464 35 63.8047 35.0469C63.7682 35.0938 63.75 35.1276 63.75 35.1484C63.75 35.2161 63.724 35.3073 63.6719 35.4219C63.625 35.5312 63.5547 35.7292 63.4609 36.0156L63.3594 36.1406C63.3385 36.1667 63.3281 36.1927 63.3281 36.2188C63.3281 36.2656 63.2865 36.3464 63.2031 36.4609C63.1979 36.5911 63.1484 36.7214 63.0547 36.8516L63.0234 36.9297V37.0391C63.0234 37.0703 62.9714 37.1979 62.8672 37.4219L62.8516 37.5859C62.8203 37.5911 62.7656 37.6927 62.6875 37.8906C62.6146 38.0938 62.526 38.263 62.4219 38.3984L62.3516 38.6562L62.2734 38.7969L62.2266 38.9453C62.2161 38.9714 62.2005 38.9922 62.1797 39.0078L62.1641 39.0859L62.1172 39.1172C62.1276 39.1953 62.0781 39.3255 61.9688 39.5078C61.9688 39.5286 61.9427 39.5651 61.8906 39.6172C61.8385 39.6693 61.7786 39.7448 61.7109 39.8438C61.6432 39.9479 61.5443 40.0417 61.4141 40.125L61.0781 40.3359C60.8281 40.3359 60.6562 40.2031 60.5625 39.9375C60.5521 39.9062 60.5026 39.8203 60.4141 39.6797C60.3203 39.5391 60.2734 39.3307 60.2734 39.0547L60.3438 38.7344C60.3906 38.4479 60.4427 38.2682 60.5 38.1953L60.5938 37.9844C60.6042 37.9427 60.6224 37.901 60.6484 37.8594C60.6745 37.8229 60.7031 37.763 60.7344 37.6797C60.7604 37.6016 60.8307 37.526 60.9453 37.4531C61.0182 37.2865 61.0938 37.1432 61.1719 37.0234L61.2812 36.8125C61.2812 36.75 61.3359 36.6823 61.4453 36.6094C61.4922 36.5104 61.5573 36.4089 61.6406 36.3047C61.724 36.2057 61.7786 36.1458 61.8047 36.125C61.8307 36.1042 61.8542 36.0391 61.875 35.9297C61.8958 35.8151 61.9401 35.7448 62.0078 35.7188C62.0807 35.6927 62.1224 35.6589 62.1328 35.6172L62.2109 35.4844C62.263 35.4427 62.3125 35.3776 62.3594 35.2891C62.4115 35.2005 62.4688 35.1432 62.5312 35.1172C62.599 34.9922 62.6615 34.9297 62.7188 34.9297ZM64.6406 34.0312L64.9141 33.9844C65.0599 33.9531 65.1406 33.9375 65.1562 33.9375C65.1667 33.9375 65.1901 33.9453 65.2266 33.9609C65.263 33.9766 65.3021 33.9922 65.3438 34.0078C65.3906 34.0234 65.4401 34.0807 65.4922 34.1797C65.7474 34.0599 65.901 33.974 65.9531 33.9219C66.0052 33.8698 66.0495 33.8438 66.0859 33.8438C66.0964 33.8438 66.112 33.849 66.1328 33.8594C66.1432 33.8333 66.1562 33.8021 66.1719 33.7656C66.1875 33.7292 66.224 33.6875 66.2812 33.6406C66.3438 33.5885 66.4375 33.474 66.5625 33.2969L66.8203 33.0078L67.0938 32.6094C67.1615 32.5052 67.2188 32.3828 67.2656 32.2422L67.3125 32.1406C67.3333 32.0781 67.3438 32.0417 67.3438 32.0312C67.3438 31.9948 67.3073 31.9089 67.2344 31.7734L67.0391 31.8594V31.8438C66.9766 31.7969 66.9245 31.7734 66.8828 31.7734C66.8516 31.7734 66.8229 31.7943 66.7969 31.8359C66.7708 31.8724 66.7318 31.8958 66.6797 31.9062C66.6328 31.9167 66.5911 31.9401 66.5547 31.9766C66.5182 32.013 66.4688 32.0339 66.4062 32.0391C66.349 32.0443 66.2839 32.0833 66.2109 32.1562L66.1172 32.1406L66.0625 32.1797L65.9688 32.1562C65.8594 32.2812 65.7812 32.3594 65.7344 32.3906C65.6927 32.4167 65.6328 32.4844 65.5547 32.5938H65.4453C65.4036 32.5938 65.3646 32.651 65.3281 32.7656C65.276 32.7969 65.224 32.8464 65.1719 32.9141L64.9766 32.9922C64.9349 33.0599 64.888 33.112 64.8359 33.1484L64.5312 33.5391C64.5104 33.5599 64.487 33.5729 64.4609 33.5781C64.4349 33.5833 64.4089 33.5911 64.3828 33.6016L64.4219 33.7578H64.3984C64.2734 33.8255 64.1953 33.9453 64.1641 34.1172L64.1172 34.3047C64.1172 34.3359 64.1276 34.3516 64.1484 34.3516C64.1693 34.3516 64.1979 34.3333 64.2344 34.2969C64.2708 34.2604 64.3359 34.2083 64.4297 34.1406C64.5234 34.0729 64.5938 34.0365 64.6406 34.0312ZM60.8828 39.25C60.9089 39.2344 61.0417 39.0312 61.2812 38.6406L61.3594 38.4922C61.4062 38.4089 61.4505 38.3411 61.4922 38.2891L61.5078 38.2266C61.5339 38.2005 61.5599 38.1615 61.5859 38.1094L62.0156 36.9766C62.0781 36.8099 62.1172 36.6901 62.1328 36.6172C62.1536 36.5495 62.2266 36.3333 62.3516 35.9688C62.3203 35.9792 62.2891 36.0156 62.2578 36.0781C62.2266 36.1458 62.2005 36.1797 62.1797 36.1797L62.0625 36.1953C62.0521 36.1953 62.0104 36.2891 61.9375 36.4766L61.9062 36.5156C61.8281 36.526 61.776 36.5677 61.75 36.6406L61.6172 36.9141V37.0234C61.6172 37.1484 61.526 37.2656 61.3438 37.375C61.2865 37.526 61.25 37.6016 61.2344 37.6016H61.1562L61.1875 37.7422C61.1875 37.862 61.1536 37.9635 61.0859 38.0469C61.013 38.1354 60.9766 38.1849 60.9766 38.1953L60.9922 38.3516L60.9766 38.4922C60.9141 38.6432 60.8828 38.8255 60.8828 39.0391V39.25ZM75.0312 33.3594L75.1562 33.25C75.2344 33.25 75.2812 33.2161 75.2969 33.1484C75.3125 33.0755 75.3672 33.0182 75.4609 32.9766C75.5599 32.9349 75.651 32.8516 75.7344 32.7266C75.8177 32.5964 75.9036 32.5312 75.9922 32.5312C76.0234 32.5312 76.0599 32.5573 76.1016 32.6094C76.1432 32.6615 76.1641 32.7031 76.1641 32.7344C76.1641 32.9062 76.112 33.0833 76.0078 33.2656L75.9766 33.4844L75.9219 33.5859C75.8438 33.6276 75.7917 33.6719 75.7656 33.7188C75.7448 33.7656 75.6849 33.8229 75.5859 33.8906L75.5078 34C75.3932 34.0365 75.3151 34.0964 75.2734 34.1797C75.237 34.263 75.1823 34.3099 75.1094 34.3203C75.0417 34.3307 74.9661 34.3828 74.8828 34.4766C74.8307 34.5026 74.7682 34.526 74.6953 34.5469L74.6797 34.625C74.6276 34.6771 74.5443 34.7188 74.4297 34.75C74.3203 34.7812 74.237 34.8125 74.1797 34.8438C74.1276 34.8698 74.0911 34.8828 74.0703 34.8828C73.9714 34.8828 73.8802 34.8646 73.7969 34.8281C73.7135 34.7865 73.6276 34.7604 73.5391 34.75C73.5078 34.7188 73.4896 34.6849 73.4844 34.6484C73.4792 34.612 73.4531 34.5651 73.4062 34.5078C73.3594 34.4453 73.3359 34.362 73.3359 34.2578L73.3672 34.1094C73.3672 34.0885 73.3542 34.0625 73.3281 34.0312C73.3021 34 73.2891 33.974 73.2891 33.9531C73.2891 33.9323 73.2943 33.9167 73.3047 33.9062C73.3151 33.8958 73.3203 33.8802 73.3203 33.8594C73.3203 33.8333 73.3151 33.8047 73.3047 33.7734C73.2943 33.7422 73.2891 33.7161 73.2891 33.6953L73.3359 33.3125C73.3359 33.2812 73.3255 33.2656 73.3047 33.2656C73.2839 33.2656 73.2448 33.2917 73.1875 33.3438C73.1354 33.3958 73.0729 33.4219 73 33.4219C72.9583 33.4531 72.9245 33.5182 72.8984 33.6172C72.8568 33.6693 72.8047 33.7161 72.7422 33.7578L72.7109 33.8047C72.7005 33.8411 72.6615 33.8724 72.5938 33.8984C72.526 33.9193 72.4792 33.9479 72.4531 33.9844L72.375 34.0625L72.2266 34.0469C72.2161 34.0573 72.1875 34.1042 72.1406 34.1875C72.0938 34.2656 72.0339 34.3307 71.9609 34.3828L71.3672 34.8672C71.3047 34.9089 71.2135 34.9609 71.0938 35.0234L71.0469 35.0703C70.6302 35.3464 70.3359 35.4844 70.1641 35.4844C70.0234 35.4844 69.8594 35.4453 69.6719 35.3672C69.4844 35.2891 69.3828 35.1953 69.3672 35.0859L69.2891 34.7656C69.2422 34.6927 69.2188 34.5911 69.2188 34.4609C69.2188 34.3984 69.224 34.3568 69.2344 34.3359V34.2891L69.2188 34.0312C69.2188 33.9688 69.2682 33.9375 69.3672 33.9375L69.3516 33.7266C69.3516 33.7057 69.3958 33.625 69.4844 33.4844C69.5781 33.3385 69.6406 33.2552 69.6719 33.2344L69.75 33.1328C69.7448 33.0703 69.7812 33.0052 69.8594 32.9375C69.9375 32.8646 70 32.7917 70.0469 32.7188C70.0938 32.6458 70.1823 32.5651 70.3125 32.4766L70.5469 32.2422C70.7292 32.0599 70.9271 31.9141 71.1406 31.8047C71.1719 31.7943 71.2344 31.7422 71.3281 31.6484C71.4271 31.5547 71.5365 31.487 71.6562 31.4453C71.7812 31.3984 71.901 31.3411 72.0156 31.2734C72.1354 31.2057 72.2292 31.1719 72.2969 31.1719H72.3594C72.3802 31.1719 72.5182 31.1068 72.7734 30.9766H72.8203C72.8411 30.9766 72.8906 30.9974 72.9688 31.0391H72.9844L73.1094 30.9766C73.1302 30.9661 73.1562 30.9609 73.1875 30.9609C73.5104 30.9609 73.6875 31.1849 73.7188 31.6328C73.7292 31.7266 73.7552 31.7734 73.7969 31.7734C73.849 31.7734 73.9219 31.6797 74.0156 31.4922C74.1146 31.2995 74.3203 31.2031 74.6328 31.2031C74.8568 31.2031 74.9688 31.3464 74.9688 31.6328C74.9688 31.9714 74.8177 32.2917 74.5156 32.5938C74.4948 32.6354 74.4792 32.6823 74.4688 32.7344L74.3594 33.0547V33.0703C74.3594 33.1016 74.3359 33.1458 74.2891 33.2031C74.2474 33.2552 74.2266 33.3021 74.2266 33.3438L74.2422 33.5391L74.2109 33.7578C74.2109 33.8568 74.2292 33.9219 74.2656 33.9531C74.4323 33.9115 74.5521 33.8438 74.625 33.75C74.7031 33.651 74.7578 33.5964 74.7891 33.5859L74.8672 33.5547C74.9141 33.4766 74.9688 33.4115 75.0312 33.3594ZM72.4375 33.3594C72.4583 33.2448 72.5208 33.1589 72.625 33.1016C72.7344 33.0391 72.7995 32.9766 72.8203 32.9141C72.9193 32.8411 73.0599 32.7109 73.2422 32.5234C73.4297 32.3359 73.5234 32.2214 73.5234 32.1797C73.5234 32.1641 73.513 32.1562 73.4922 32.1562H73.4766L73.4141 32.1953L73.2734 32.1797L73.125 32.1953L73.0156 32.1406L72.9141 32.1562L72.7578 32.125C72.6745 32.125 72.6016 32.1432 72.5391 32.1797C72.4818 32.2109 72.3672 32.2474 72.1953 32.2891C72.0286 32.3307 71.8776 32.4036 71.7422 32.5078C71.6068 32.6068 71.5078 32.6562 71.4453 32.6562C71.4089 32.7344 71.2865 32.8464 71.0781 32.9922C70.9531 33.0339 70.8724 33.125 70.8359 33.2656C70.7005 33.375 70.6328 33.4375 70.6328 33.4531L70.5781 33.5859C70.5365 33.6224 70.4844 33.6536 70.4219 33.6797C70.3594 33.7005 70.3229 33.7552 70.3125 33.8438C70.3021 33.9271 70.2656 34.0052 70.2031 34.0781C70.1458 34.1458 70.1172 34.2005 70.1172 34.2422C70.1172 34.4974 70.1667 34.625 70.2656 34.625C70.3073 34.625 70.3932 34.599 70.5234 34.5469C70.6589 34.4896 70.737 34.4505 70.7578 34.4297C70.7786 34.4089 70.8203 34.388 70.8828 34.3672L71.0312 34.2891C71.0521 34.2682 71.0755 34.2552 71.1016 34.25C71.1276 34.2448 71.1536 34.2292 71.1797 34.2031C71.2057 34.1719 71.2526 34.1406 71.3203 34.1094C71.388 34.0729 71.4401 34.026 71.4766 33.9688C71.5651 33.9167 71.7083 33.8359 71.9062 33.7266L72.0703 33.6016C72.1849 33.5495 72.2552 33.5052 72.2812 33.4688C72.3073 33.4323 72.3594 33.3958 72.4375 33.3594ZM76.7188 33.5234V33.4688C76.7188 33.3958 76.724 33.3385 76.7344 33.2969C76.7031 33.2135 76.6875 33.138 76.6875 33.0703C76.6875 33.0599 76.7135 32.987 76.7656 32.8516L76.8359 32.6094C76.8724 32.5156 76.8932 32.4661 76.8984 32.4609C76.8672 32.3776 76.8516 32.3307 76.8516 32.3203C76.8516 32.2005 76.8854 32.1016 76.9531 32.0234C77.0208 31.9453 77.0781 31.8359 77.125 31.6953L77.2812 31.2188L77.5391 30.5938C77.5443 30.5781 77.5677 30.5365 77.6094 30.4688C77.6562 30.401 77.6927 30.3438 77.7188 30.2969C77.75 30.2448 77.7917 30.1719 77.8438 30.0781L77.9219 30.0625C77.9427 30.0417 77.9531 30.0208 77.9531 30C77.9531 29.9896 77.9427 29.9479 77.9219 29.875L78.1953 29.4219L78.3594 29.0859C78.4115 28.9974 78.4688 28.9401 78.5312 28.9141C78.6354 28.7214 78.7266 28.6042 78.8047 28.5625C78.8359 28.4635 78.8932 28.3568 78.9766 28.2422L79.125 28.2266C79.151 28.1536 79.1771 28.099 79.2031 28.0625L79.2188 27.9062C79.2188 27.9375 79.2318 27.9297 79.2578 27.8828C79.2839 27.8307 79.3229 27.737 79.375 27.6016L79.5859 27.3594L79.6484 27.25C79.6745 27.2135 79.7161 27.1432 79.7734 27.0391C79.8516 27.0078 79.9167 26.9505 79.9688 26.8672L80.1328 26.7344C80.1224 26.6771 80.1849 26.5495 80.3203 26.3516C80.4089 26.3151 80.4896 26.2682 80.5625 26.2109L80.6719 26.1797C80.6719 25.9974 80.737 25.8724 80.8672 25.8047L80.9609 25.7422C81.0443 25.7005 81.0911 25.6797 81.1016 25.6797L81.1562 25.6641C81.2188 25.6432 81.2917 25.6328 81.375 25.6328C81.5677 25.6328 81.7422 25.7057 81.8984 25.8516C82.0547 25.9922 82.1328 26.1536 82.1328 26.3359C82.1328 26.4089 82.0938 26.4844 82.0156 26.5625L81.9844 26.625C81.9115 26.9115 81.8594 27.0547 81.8281 27.0547C81.8073 27.0547 81.7786 27.0703 81.7422 27.1016C81.7318 27.2734 81.7214 27.3698 81.7109 27.3906C81.6172 27.4062 81.5703 27.5234 81.5703 27.7422C81.5599 27.7734 81.5208 27.8281 81.4531 27.9062C81.3906 27.9792 81.3411 28.0833 81.3047 28.2188C81.2682 28.349 81.2292 28.4141 81.1875 28.4141H81.1016L81.125 28.5312C81.125 28.6042 81.0885 28.6771 81.0156 28.75C80.9479 28.8177 80.9062 28.8906 80.8906 28.9688C80.875 29.0469 80.8125 29.1406 80.7031 29.25L80.625 29.375C80.5938 29.4271 80.5521 29.4818 80.5 29.5391C80.4479 29.5964 80.4036 29.6849 80.3672 29.8047L80.1641 30.1797C80.0234 30.4349 79.9167 30.5573 79.8438 30.5469C79.7969 30.75 79.7656 30.8672 79.75 30.8984C79.7344 30.9297 79.6979 30.9583 79.6406 30.9844C79.5833 31.0104 79.5391 31.0573 79.5078 31.125C79.4766 31.1875 79.4427 31.2344 79.4062 31.2656L79.2656 31.5547C79.1823 31.5911 79.1224 31.6589 79.0859 31.7578C79.0026 31.7786 78.9505 31.849 78.9297 31.9688C78.9089 31.9896 78.8828 32.0365 78.8516 32.1094L78.5781 32.3828C78.4375 32.4818 78.362 32.5964 78.3516 32.7266C78.3411 32.8516 78.2734 32.9141 78.1484 32.9141C78.0599 32.9141 77.9297 32.875 77.7578 32.7969H77.7422C77.7266 32.8698 77.6901 32.9505 77.6328 33.0391L77.6641 33.25C77.6641 33.276 77.6224 33.4401 77.5391 33.7422C77.5807 33.8203 77.6016 33.875 77.6016 33.9062L77.5859 34.0781L77.625 34.2891C77.651 34.4609 77.7135 34.5469 77.8125 34.5469L78 34.5781C78.0104 34.5781 78.0755 34.5391 78.1953 34.4609L78.4844 34.3047C78.4948 34.3047 78.5 34.3099 78.5 34.3203C78.5521 34.3411 78.5938 34.3516 78.625 34.3516C78.6771 34.3516 78.7031 34.3099 78.7031 34.2266V34.125C78.7344 34.0729 78.7708 34.0417 78.8125 34.0312C78.8594 34.0208 78.901 33.9974 78.9375 33.9609C78.974 33.9245 79.0026 33.9062 79.0234 33.9062H79.1016C79.1797 33.9062 79.2188 33.8151 79.2188 33.6328C79.2396 33.6224 79.2656 33.6016 79.2969 33.5703H79.3906C79.4323 33.5703 79.4766 33.5208 79.5234 33.4219C79.5755 33.3177 79.612 33.2552 79.6328 33.2344C79.7266 33.224 79.7917 33.2083 79.8281 33.1875C79.9948 32.8854 80.1224 32.7344 80.2109 32.7344H80.2578C80.3464 32.651 80.3932 32.5781 80.3984 32.5156C80.4089 32.4479 80.4349 32.4036 80.4766 32.3828C80.5234 32.362 80.5651 32.3359 80.6016 32.3047C80.638 32.2734 80.6615 32.2578 80.6719 32.2578C80.75 32.2578 80.7891 32.2865 80.7891 32.3438L80.7656 32.5625L80.8203 32.7969C80.8203 32.8177 80.7969 32.8594 80.75 32.9219C80.7083 32.9792 80.6875 33.0443 80.6875 33.1172C80.6875 33.2682 80.6615 33.349 80.6094 33.3594C80.5573 33.3698 80.513 33.4062 80.4766 33.4688C80.4453 33.526 80.3906 33.5807 80.3125 33.6328C80.2344 33.6797 80.1745 33.75 80.1328 33.8438L80 33.875L79.9219 33.9219C79.8594 34.0833 79.7917 34.1823 79.7188 34.2188C79.651 34.2552 79.5651 34.3646 79.4609 34.5469C79.4453 34.5469 79.4375 34.5521 79.4375 34.5625L79.3125 34.5469C79.2656 34.6302 79.2188 34.6797 79.1719 34.6953C79.125 34.7109 79.0859 34.7422 79.0547 34.7891C79.0234 34.8307 78.9661 34.8672 78.8828 34.8984C78.8047 34.9297 78.7552 34.9661 78.7344 35.0078C78.7135 35.0495 78.6823 35.0729 78.6406 35.0781C78.599 35.0833 78.5599 35.1042 78.5234 35.1406C78.487 35.1719 78.4557 35.1875 78.4297 35.1875C78.4193 35.1875 78.3828 35.1823 78.3203 35.1719H78.2891C78.2005 35.2344 78.1276 35.2656 78.0703 35.2656C78.0026 35.2656 77.9531 35.276 77.9219 35.2969C77.8906 35.276 77.8411 35.2604 77.7734 35.25C77.7109 35.2396 77.638 35.2135 77.5547 35.1719C77.4661 35.1927 77.4115 35.2031 77.3906 35.2031C77.3021 35.2031 77.1901 35.1172 77.0547 34.9453C76.9193 34.7682 76.8516 34.5964 76.8516 34.4297C76.8516 34.4245 76.8203 34.3854 76.7578 34.3125C76.7005 34.2344 76.6719 34.151 76.6719 34.0625V33.9844L76.6875 33.8906V33.7422L76.7031 33.6953C76.7812 33.6849 76.8203 33.6745 76.8203 33.6641L76.7188 33.5234ZM78.3047 31.4531L78.4688 31.3594C78.4896 31.276 78.5573 31.1771 78.6719 31.0625C78.7865 30.9427 78.8672 30.8828 78.9141 30.8828H78.9766C78.9766 30.8464 78.9844 30.8099 79 30.7734C79.0156 30.737 79.0234 30.6875 79.0234 30.625C79.0234 30.5938 79.0938 30.5078 79.2344 30.3672L79.2969 30.2266C79.3438 30.0911 79.4609 29.9792 79.6484 29.8906C79.7214 29.7396 79.776 29.6641 79.8125 29.6641L79.875 29.6484C79.8958 29.5703 79.9375 29.5 80 29.4375L80.0312 29.3906V29.2656C80.0312 29.2552 80.0651 29.2135 80.1328 29.1406C80.2057 29.0625 80.2578 28.9922 80.2891 28.9297C80.3203 28.862 80.362 28.8099 80.4141 28.7734C80.4714 28.737 80.5104 28.6719 80.5312 28.5781L80.6562 28.5625C80.6562 28.4948 80.6615 28.4505 80.6719 28.4297L80.6875 28.3516C80.7135 28.2891 80.8047 28.125 80.9609 27.8594L81.0859 27.5703C81.0859 27.5391 81.1068 27.5026 81.1484 27.4609C81.1953 27.4141 81.2188 27.349 81.2188 27.2656L81.2812 27.0078C81.2812 26.888 81.2604 26.8281 81.2188 26.8281C81.1667 26.8646 81.1172 26.8906 81.0703 26.9062C81.0286 26.9219 80.987 27.0156 80.9453 27.1875C80.7891 27.224 80.6979 27.2995 80.6719 27.4141C80.651 27.5234 80.5885 27.6172 80.4844 27.6953L80.4297 27.7891C80.4193 27.8464 80.3698 27.9062 80.2812 27.9688C80.1927 28.0312 80.1094 28.138 80.0312 28.2891C79.7708 28.6484 79.6276 28.8411 79.6016 28.8672L79.5234 28.9609L79.4062 28.9453C79.4271 29.0286 79.4375 29.0755 79.4375 29.0859C79.4375 29.1172 79.4219 29.1484 79.3906 29.1797C79.3594 29.2057 79.3359 29.2396 79.3203 29.2812C79.3047 29.3229 79.2734 29.3724 79.2266 29.4297C79.1797 29.4818 79.1354 29.5703 79.0938 29.6953C79.0573 29.8151 79.0234 29.8854 78.9922 29.9062L78.8828 29.8906C78.8151 29.9323 78.7812 29.974 78.7812 30.0156L78.8047 30.125C78.8047 30.1458 78.7891 30.1719 78.7578 30.2031C78.7318 30.2292 78.7057 30.2839 78.6797 30.3672C78.6536 30.4505 78.5885 30.5781 78.4844 30.75C78.3802 30.9167 78.2969 31.0964 78.2344 31.2891C78.1771 31.4766 78.1198 31.5964 78.0625 31.6484C78.0729 31.6589 78.0885 31.6641 78.1094 31.6641C78.1771 31.6641 78.2422 31.5938 78.3047 31.4531Z" fill="black"/>
<g clip-path="url(#clip0_1764_10459)">
<mask id="mask0_1764_10459" style="mask-type:luminance" maskUnits="userSpaceOnUse" x="85" y="1" width="17" height="36">
<path d="M85.9492 1.03613H101.655V36.4621H85.9492V1.03613Z" fill="white"/>
</mask>
<g mask="url(#mask0_1764_10459)">
<path d="M100.232 8.83383C100.232 8.83383 101.628 8.74969 101.628 7.46879C100.93 7.46879 94.5142 7.46879 94.5142 7.46879C94.5142 7.46879 95.4809 7.22833 95.6148 6.74783C95.7491 6.26734 94.7292 5.38664 95.4539 4.47904C96.1787 3.57144 97.1184 1.94331 96.2864 1.03613C95.7221 1.03613 93.7985 1.03613 93.7985 1.03613C93.7985 1.03613 91.8748 1.03613 91.311 1.03613C90.479 1.94331 91.4187 3.57144 92.143 4.47904C92.8682 5.38664 91.8478 6.26734 91.9821 6.74783C92.1164 7.22833 93.0827 7.46879 93.0827 7.46879C93.0827 7.46879 86.6669 7.46879 85.9688 7.46879C85.9688 8.74969 87.3646 8.83383 87.3646 8.83383H92.7626L93.0407 9.40273L92.9016 9.61415V10.655L92.7626 11.0454V14.5579L93.0488 14.8424V17.0458L92.7467 17.2743L91.7899 16.0007L91.5865 16.1519L91.002 15.3745L91.3663 15.1042L91.1904 14.8697L89.8838 15.8405L90.0597 16.0746L90.424 15.8042L91.008 16.5815L90.8047 16.7327L91.768 18.0149L91.3728 18.3143V21.111H91.6834V25.3389C91.6834 25.3389 90.2443 26.2009 90.9145 27.5996C90.2606 28.1361 90.146 28.38 90.2606 28.9493C89.9169 29.1607 89.5899 29.6971 89.6551 30.2989C89.0338 30.7055 86.4618 32.0044 86.9733 33.4049C87.84 35.7792 90.1185 36.4621 93.7985 36.4621C97.4784 36.4621 99.7573 35.7792 100.624 33.4049C101.136 32.0044 98.5631 30.7055 97.9418 30.2989C98.007 29.6971 97.6801 29.1607 97.3368 28.9493C97.4513 28.38 97.3368 28.1361 96.6824 27.5996C97.3531 26.2009 95.9139 25.3389 95.9139 25.3389V21.111H96.2246V18.3143L95.8294 18.0149L96.7927 16.7327L96.5893 16.5815L97.1733 15.8042L97.5372 16.0746L97.7135 15.8405L96.4069 14.8697L96.2306 15.1042L96.5949 15.3745L96.0109 16.1519L95.8075 16.0007L94.8502 17.2743L94.5481 17.0458V14.8424L94.8343 14.5579V11.0454L94.6953 10.655V9.61415L94.5562 9.40273L94.8343 8.83383H100.232Z" fill="#040606"/>
</g>
<path d="M110.485 21.1974L110.03 21.1385L110.57 17.0088C110.577 16.9541 110.58 16.8986 110.578 16.8435L110.543 15.8676L109.935 15.7885L109.653 16.7128C109.636 16.7658 109.624 16.8209 109.617 16.8759L109.075 21.015L108.762 20.9745C108.57 20.9497 108.395 21.0834 108.371 21.2734C108.346 21.4635 108.481 21.6378 108.672 21.6625L109.162 21.7257C108.091 30.0492 105.766 31.5633 105.064 31.8302C104.557 32.0229 104.072 31.9315 103.658 31.5667C102.865 30.865 102.325 29.1292 102.91 26.8344C105.34 17.289 103.824 14.2364 102.124 13.3566C100.354 12.4404 98.1171 13.6885 97.0938 14.8673L97.5559 15.264C98.4222 14.2659 100.384 13.1405 101.842 13.8952C103.073 14.5324 104.773 17.0421 102.318 26.6853C101.758 28.8866 102.133 31.0303 103.253 32.0203C103.64 32.3624 104.085 32.5367 104.552 32.5367C104.791 32.5367 105.037 32.4906 105.282 32.3974C106.284 32.0169 108.684 30.2209 109.768 21.8043L110.396 21.8855C110.587 21.9103 110.762 21.7761 110.787 21.5861C110.812 21.396 110.677 21.2222 110.485 21.1974Z" fill="#040606"/>
<mask id="mask1_1764_10459" style="mask-type:luminance" maskUnits="userSpaceOnUse" x="108" y="2" width="8" height="13">
<path d="M108.793 2.41309H115.029V14.4404H108.793V2.41309Z" fill="white"/>
</mask>
<g mask="url(#mask1_1764_10459)">
<path d="M115.01 6.10863C115.01 5.2399 114.501 4.48947 113.762 4.13711C113.672 3.22951 112.903 2.52051 111.967 2.52051C110.97 2.52051 110.162 3.3239 110.162 4.31436C110.162 4.72481 110.302 5.10194 110.535 5.40391C109.555 5.7268 108.848 6.64465 108.848 7.72737C108.848 8.52264 109.23 9.22908 109.821 9.67626C109.82 9.69462 109.818 9.71256 109.818 9.73136C109.48 9.97609 109.26 10.3712 109.26 10.8183C109.26 11.1711 109.397 11.491 109.621 11.7311C109.411 11.8882 109.275 12.1377 109.275 12.4187C109.275 12.8339 109.569 13.1798 109.962 13.2618C109.933 13.3374 109.917 13.4194 109.917 13.5053C109.917 13.8875 110.066 14.4184 110.45 14.4184C110.835 14.4184 111.31 13.8875 111.31 13.5053C111.31 13.4164 111.292 13.3319 111.261 13.2537C111.278 13.2546 111.294 13.2563 111.31 13.2563C111.912 13.2563 112.4 12.7706 112.4 12.1723C112.4 11.8754 112.28 11.6072 112.086 11.4116C112.805 11.1933 113.328 10.5288 113.328 9.74246C113.328 9.56436 113.301 9.39266 113.251 9.23079C113.506 8.90576 113.681 8.51496 113.744 8.08827C114.492 7.73933 115.01 6.9842 115.01 6.10863Z" fill="#040606"/>
</g>
</g>
<defs>
<clipPath id="clip0_1764_10459">
<rect width="29" height="36" fill="white" transform="translate(86 0.5)"/>
</clipPath>
</defs>
</svg>
