<svg width="315" height="392" viewBox="0 0 315 392" fill="none" xmlns="http://www.w3.org/2000/svg">
<g clip-path="url(#clip0_1718_11072)">
<mask id="mask0_1718_11072" style="mask-type:luminance" maskUnits="userSpaceOnUse" x="35" y="29" width="292" height="353">
<path d="M35.3281 99.6371L218.132 29.6714L326.079 311.712L143.275 381.678L35.3281 99.6371Z" fill="white"/>
</mask>
<g mask="url(#mask0_1718_11072)">
<path d="M257.608 154.187C257.289 155.81 256.467 157.166 256.467 157.166C255.739 158.707 254.884 159.997 254.018 161.085C252.877 162.536 253.071 164.59 254.346 165.934C255.302 166.937 256.065 168.126 256.306 169.558C257.489 176.969 243.266 184.615 240.36 186.179C231.355 191.018 227.278 190.095 216.519 194.985C212.458 196.831 209.001 198.801 206.203 200.566C204.406 201.718 204.457 204.346 206.288 205.454C209.996 207.695 212.792 211.486 211.815 215.463C211.156 218.171 209.021 220.212 207.057 222.161C203.037 226.163 199.3 230.443 195.853 234.955C193.647 237.87 191.475 241.219 191.858 244.847C192.187 247.937 194.352 250.527 196.906 252.364C197.13 252.532 197.343 252.669 197.567 252.817C200.212 254.553 203.235 255.708 206.355 256.19C214.69 257.483 222.91 254.025 230.863 251.235C238.82 248.424 247.846 246.267 255.445 249.927C259.392 251.836 262.345 255.364 263.929 259.432C264.888 261.876 265.345 264.539 265.229 267.149C265.094 270.432 267.652 273.133 270.916 273.553C272.854 273.798 274.644 274.461 276.047 275.846C279.301 279.072 278.307 284.205 277.857 286.759C276.827 292.522 273.578 297.722 266.469 304.154C257.22 312.563 252.225 313.294 234.678 325.772C230.299 328.875 226.59 331.694 224.063 336.723C220.2 344.404 222.044 351.515 221.396 351.552C220.479 351.611 215.491 337.357 222.044 328.666C224.849 324.953 229.751 322.289 231.244 321.464C233.676 320.148 237.061 318.696 241.148 315.705C241.372 315.545 241.592 315.376 241.82 315.198C242.927 314.354 243.494 313.837 243.769 313.587C246.947 310.636 248.807 307.183 249.234 305.765C251.131 299.526 247.598 293.514 242.127 289.69C238.764 287.34 234.679 285.804 230.676 285.543C220.168 284.855 210.107 289.502 199.738 291.349C189.011 293.279 175.69 290.784 171.744 280.372C171.2 278.92 170.63 277.461 169.81 276.142C168.625 274.26 166.021 272.407 153.778 273.756C148.076 274.391 141.432 275.132 132.623 278.325C125.543 280.902 124.45 282.384 119.745 282.661C118.702 282.717 116.745 282.819 114.406 282.451L114.399 282.454C111.834 282.036 108.825 281.039 106.182 278.8C105.1 277.877 102.567 275.711 101.653 271.956C101.535 271.456 101.167 269.944 101.201 268.188C101.218 266.532 101.582 264.651 102.834 263.166C105.19 260.369 108.579 261.462 109.508 259.204C110.535 256.733 106.879 254.503 107.718 251.694C108.563 248.891 112.569 249.896 114.809 247.109C118.397 242.664 111.417 236.1 113.502 225.321C113.674 224.476 114.596 219.959 117.93 215.417C118.215 215.023 118.502 214.652 118.798 214.305L118.805 214.302C120.879 211.816 123.176 210.189 126.916 207.626C133.195 203.313 136.343 201.169 141.135 198.095C147.908 193.768 152.331 190.952 155.819 188.303L155.826 188.301C157.368 187.114 158.716 185.971 160.019 184.751C162.914 182.017 166.63 177.924 170.133 171.94C174.057 165.234 173.99 154.251 169.625 147.828C166.98 143.912 163.203 140.949 158.772 139.253C147.469 134.92 136.976 141.108 126.046 143.198C122.219 143.914 118.292 144.146 114.403 143.865C111.259 143.645 108.048 143.038 105.403 141.345C104.522 140.793 100.817 137.888 100.993 133.497C101.106 130.553 102.951 127.796 105.788 126.114C106.679 125.59 106.792 124.357 105.995 123.68C103.724 121.75 101.65 119.488 100.042 117.019C97.212 112.73 95.9192 107.713 95.9234 102.6C95.8959 96.0808 97.94 89.443 101.536 83.9772C107.964 74.2269 118.486 67.8215 129.452 63.8075C137.825 60.7278 146.937 58.858 155.69 60.6112C163.689 62.2084 171.303 67.3133 174.552 74.7012C174.847 75.3913 175.833 75.3999 176.161 74.7287C178.434 70.1045 183.224 66.9143 188.178 65.2014C189.396 64.7862 190.698 64.4398 191.964 64.6414C193.404 64.8699 194.627 65.7936 195.74 66.7244C206.568 75.827 213.008 89.9115 212.908 104.043C212.913 105.023 213.974 105.607 214.799 105.104C216.33 104.175 217.941 103.434 219.699 103.28C222.224 103.042 225.094 104.45 225.638 106.94C225.824 107.824 225.735 108.813 226.235 109.569C226.977 110.685 228.598 110.692 229.932 110.692C236.561 110.677 242.88 113.537 247.822 118.016C250.219 120.206 252.267 122.775 253.861 125.576C258.697 134.137 259.532 144.578 257.595 154.227L257.608 154.187Z" fill="white"/>
</g>
<mask id="mask1_1718_11072" style="mask-type:luminance" maskUnits="userSpaceOnUse" x="195" y="256" width="101" height="97">
<path d="M195.34 285.643L270.203 256.99L295.609 323.372L220.747 352.025L195.34 285.643Z" fill="white"/>
</mask>
<g mask="url(#mask1_1718_11072)">
<path d="M277.843 286.75C276.814 292.516 273.561 297.718 266.456 304.149C257.207 312.558 252.212 313.288 234.665 325.766C230.285 328.869 226.577 331.688 224.05 336.718C220.187 344.399 222.028 351.51 221.383 351.547C220.466 351.605 215.478 337.351 222.03 328.66C224.835 324.948 229.734 322.285 231.231 321.459C233.259 320.363 235.948 319.166 239.153 317.07C240.498 316.185 241.967 315.49 243.502 314.977C254.643 311.208 264.251 302.79 268.812 291.941C269.87 289.408 270.681 286.618 270.165 283.915C269.647 281.217 267.462 278.685 264.714 278.563C262.073 278.459 259.787 280.48 257.173 280.903C256.458 281.002 258.846 269.975 259.177 269.068C260.048 266.638 261.392 261.909 263.573 259.745C263.73 259.584 264.019 259.656 264.093 259.87C264.936 262.186 265.341 264.69 265.229 267.138C265.094 270.422 267.656 273.121 270.916 273.542C272.857 273.785 274.644 274.451 276.047 275.835C279.301 279.061 278.307 284.194 277.856 286.745L277.843 286.75Z" fill="white"/>
</g>
<path d="M242.115 289.676C238.752 287.326 234.667 285.79 230.665 285.529C220.156 284.841 210.095 289.487 199.726 291.335C188.998 293.262 175.678 290.769 171.731 280.355C171.188 278.906 170.619 277.447 169.798 276.128C168.612 274.243 166.008 272.389 153.766 273.742C148.063 274.373 141.419 275.115 132.611 278.31C125.532 280.888 124.438 282.37 119.732 282.643C118.689 282.699 116.734 282.805 114.393 282.433L114.964 282.215C121.689 279.719 126.814 277.403 132.84 274.702C151.648 266.241 153.195 263.906 161.295 262.783C164.272 262.372 168.844 262.533 177.998 262.85C185.749 263.127 188.868 263.566 189.551 265.391C190.242 267.196 188.349 269.788 187.137 271C184.579 273.586 182.294 272.963 181.375 274.831C180.194 277.225 181.958 280.214 184.379 281.346C186.793 282.477 189.601 282.256 192.256 282.012C200.61 281.227 208.963 280.459 217.314 279.676C221.898 279.247 224.236 279.183 225.979 279.478C233.188 280.684 240.824 285.671 242.115 289.676Z" fill="white"/>
<path d="M257.604 154.187C257.286 155.81 256.464 157.165 256.464 157.165C255.736 158.707 254.881 159.997 254.015 161.085C252.874 162.535 253.068 164.59 254.342 165.934C255.299 166.936 256.062 168.126 256.302 169.558C257.486 176.968 243.263 184.615 240.357 186.179C231.351 191.018 227.275 190.094 216.515 194.984C212.454 196.831 208.998 198.801 206.2 200.566C204.403 201.718 204.454 204.345 206.285 205.453C209.993 207.695 212.789 211.486 211.812 215.462C211.152 218.171 209.018 220.212 207.054 222.16C203.034 226.163 199.297 230.443 195.85 234.955C193.644 237.869 191.472 241.219 191.855 244.846C192.184 247.937 194.348 250.527 196.903 252.364C195.773 251.966 194.699 251.422 193.712 250.728C190.38 248.378 188.261 244.218 188.793 240.178C189.247 236.761 191.427 233.829 193.709 231.225C195.976 228.622 198.475 226.107 199.813 222.92C201.165 219.74 201.042 215.631 198.496 213.296C195.343 210.405 190.342 211.489 186.325 212.96C181.624 214.674 177.022 216.696 172.575 218.991C172.102 219.242 171.658 218.632 172.034 218.25C181.91 208.413 193.868 200.655 206.882 195.666C213.893 192.971 221.205 191.061 228.008 187.896C234.836 184.741 241.274 180.121 244.8 173.485C245.371 172.401 245.823 170.922 244.982 170.019C244.137 169.103 242.636 169.46 241.475 169.88C238.424 170.963 235.379 172.054 232.335 173.145C231.863 173.318 231.522 172.692 231.924 172.386C237.487 168.272 241.798 162.474 244.098 155.945C246.475 149.207 246.71 141.917 246.921 134.78C245.755 131.733 246.575 121.926 247.555 118.752C247.64 118.486 247.729 118.241 247.836 118.001C250.232 120.176 252.282 122.752 253.869 125.544C258.707 134.109 259.541 144.549 257.607 154.194L257.604 154.187Z" fill="white"/>
<path d="M127.757 251.745C128.109 252.971 127.441 254.291 126.21 254.61C123.808 255.229 121.646 256.852 120.465 259.055C119.488 260.902 119.066 263.169 117.42 264.442C116.08 265.473 114.286 265.583 112.601 265.733C108.732 266.075 104.882 266.906 101.208 268.175C101.229 266.518 101.589 264.638 102.842 263.153C105.201 260.355 108.587 261.449 109.516 259.191C110.543 256.72 106.886 254.49 107.726 251.681C108.57 248.875 112.58 249.882 114.816 247.096C118.404 242.647 111.425 236.087 113.514 225.307C113.685 224.462 114.604 219.947 117.941 215.403C118.223 215.01 118.51 214.639 118.806 214.292C117.957 222.024 117.413 228.926 120.646 236.628C125.109 232.818 130.289 228.801 135.955 228.601C136.601 228.579 136.881 229.443 136.331 229.778C129.148 234.153 125.472 243.696 127.77 251.76L127.757 251.745Z" fill="white"/>
<path d="M173.059 135.3C172.98 140.106 176.086 144.298 178.862 148.221C181.641 152.151 184.345 156.781 183.343 161.488C182.296 166.372 177.409 170.562 177.548 175.203C177.579 176.263 178.524 177.09 179.576 176.988C184.803 176.515 188.89 170.214 194.302 169.352C194.617 169.297 194.828 169.677 194.61 169.912C186.21 178.858 174.959 185.082 162.919 187.452C160.577 187.912 158.193 188.232 155.819 188.275C157.362 187.092 158.71 185.948 160.013 184.728C162.893 182.016 166.577 177.951 170.07 172.022C174.017 165.315 174.007 154.309 169.664 147.851C167.015 143.914 163.224 140.924 158.772 139.225C147.474 134.894 136.978 141.083 126.046 143.17C122.22 143.889 118.292 144.118 114.404 143.84C111.258 143.617 108.049 143.013 105.403 141.316C104.523 140.768 100.822 137.861 100.992 133.469C101.107 130.528 102.954 127.767 105.79 126.089C106.686 125.559 106.785 124.332 106.002 123.661C103.728 121.732 101.652 119.466 100.038 117C97.2089 112.715 95.9148 107.694 95.919 102.581C101.779 108.97 108.774 114.32 116.475 118.276C116.955 118.521 117.02 119.21 116.556 119.497C114.328 120.876 112.869 123.512 112.992 126.155C113.143 129.239 115.448 132.084 118.424 132.891C119.868 133.293 121.405 133.235 122.9 133.087C135.618 131.806 147.382 123.44 152.811 111.885C152.967 111.549 153.451 111.539 153.599 111.876C154.709 114.43 152.258 117.621 151.42 120.554C151.142 121.499 151.045 122.6 152.371 123.324C153.072 123.711 153.889 123.808 154.698 123.751C160.778 123.3 168.499 123.619 172.196 123.857C180.503 124.397 186.433 129.316 186.196 130.011C186.009 130.551 181.704 129.376 176.863 130.601C176.06 130.807 174.832 131.203 173.954 132.291C173.284 133.128 173.079 134.252 173.062 135.307L173.059 135.3Z" fill="white"/>
<path d="M227.872 242.666C227.821 241.505 225.213 241.544 224.422 239.652C223.654 237.817 225.147 235.495 226.416 233.536C228.886 229.71 230.671 229.576 230.838 227.762C231.095 225.032 227.414 221.7 223.683 221.066C218.104 220.118 213.803 225.861 212.425 227.671C211.379 229.042 210.055 230.839 209.812 233.513C209.526 236.749 211.007 239.172 211.533 239.996C213.996 243.896 218.837 246.206 223.089 245.519C225.408 245.142 227.912 243.821 227.865 242.669L227.872 242.666Z" fill="white"/>
<path d="M132.855 152.68C133.637 153.621 132.428 155.241 132.3 157.228C131.847 163.958 144.966 167.872 144.165 171.555C143.595 174.171 136.361 175.111 131.375 174.154C129.681 173.832 127.495 173.378 125.529 171.55C123.155 169.332 122.64 166.539 122.481 165.574C121.711 161.027 123.773 156.074 127.394 153.749C129.375 152.48 132.12 151.788 132.855 152.68Z" fill="white"/>
</g>
<defs>
<clipPath id="clip0_1718_11072">
<rect width="232.087" height="329.955" fill="white" transform="translate(0 82.9594) rotate(-20.9436)"/>
</clipPath>
</defs>
</svg>
