<svg width="209" height="209" viewBox="0 0 209 209" fill="none" xmlns="http://www.w3.org/2000/svg">
<path d="M154.705 175.94V173.864C153.883 174.82 153.383 176.061 153.383 177.421C153.383 180.293 155.601 182.642 158.417 182.86C157.972 181.839 157.722 180.713 157.722 179.528C157.722 179.526 157.723 179.524 157.723 179.521C156.015 179.224 154.705 177.729 154.705 175.94Z" fill="#2A2C35"/>
<path d="M154.703 175.94C154.703 177.729 156.013 179.224 157.721 179.521C157.723 176.557 159.273 173.961 161.603 172.48V171.576L161.257 170.062H154.703V170.898V173.864V175.94Z" fill="#561F26"/>
<path d="M160.077 164.893H153.523L154.702 170.062H161.256L160.077 164.893Z" fill="#6D292F"/>
<path d="M98.0407 177.421C98.0407 179.96 96.3048 182.088 93.9568 182.699C94.3587 181.721 94.5838 180.652 94.5838 179.528C94.5838 179.436 94.5729 179.346 94.5699 179.254C94.4772 176.402 92.9598 173.916 90.7014 172.48V175.685C91.5901 176.718 92.1306 178.059 92.1306 179.528C92.1306 182.788 89.4886 185.43 86.2295 185.43C82.9704 185.43 80.3283 182.788 80.3283 179.528C80.3283 178.059 80.8688 176.718 81.7574 175.685V172.48C79.4263 173.962 77.875 176.562 77.875 179.528C77.875 184.143 81.6154 187.883 86.2294 187.883C88.679 187.883 90.8751 186.822 92.4033 185.143C92.4626 185.144 92.5204 185.152 92.5799 185.152C96.8497 185.152 100.311 181.69 100.311 177.421C100.311 174.675 98.8754 172.27 96.7183 170.898V173.864C97.5406 174.82 98.0407 176.061 98.0407 177.421Z" fill="#1D1E21"/>
<path d="M93.9531 182.699C96.3013 182.088 98.0371 179.96 98.0371 177.421C98.0371 176.061 97.537 174.82 96.7147 173.864V175.94C96.7147 177.411 95.8292 178.682 94.5661 179.254C94.5692 179.346 94.58 179.436 94.58 179.529C94.58 180.652 94.355 181.721 93.9531 182.699Z" fill="#2A2C35"/>
<path d="M90.7031 171.576V172.48C92.9615 173.916 94.4788 176.402 94.5716 179.254C95.8346 178.682 96.7202 177.41 96.7202 175.94V173.864V170.898V170.062H91.0485L90.7031 171.576Z" fill="#561F26"/>
<path d="M91.0469 170.062H96.7186L97.8972 164.893H92.2254L91.0469 170.062Z" fill="#6D292F"/>
<path d="M86.7691 181.86H85.6894C83.5267 181.86 81.7571 180.091 81.7571 177.928V175.685C80.8686 176.718 80.3281 178.059 80.3281 179.528C80.3281 182.787 82.9702 185.429 86.2293 185.429C89.4884 185.429 92.1304 182.787 92.1304 179.528C92.1304 178.059 91.59 176.718 90.7012 175.685V177.928C90.7012 180.091 88.9319 181.86 86.7691 181.86Z" fill="#3E404C"/>
<path d="M81.7578 177.929C81.7578 180.091 83.5273 181.861 85.6901 181.861H86.7698C88.9326 181.861 90.7019 180.091 90.7019 177.929V175.685V172.48V171.576H81.7578V172.48V175.685V177.929Z" fill="#6D292F"/>
<path d="M91.0475 170.062L92.2261 164.893H80.2344L81.7582 171.576H90.7022L91.0475 170.062Z" fill="#8A333A"/>
<path d="M171.975 179.528C171.975 182.788 169.333 185.43 166.074 185.43C162.814 185.43 160.172 182.788 160.172 179.528C160.172 178.059 160.713 176.718 161.601 175.685V172.48C159.272 173.961 157.722 176.557 157.719 179.521C157.719 179.524 157.719 179.526 157.719 179.528C157.719 180.713 157.969 181.839 158.414 182.86C155.598 182.642 153.38 180.293 153.38 177.421C153.38 176.061 153.88 174.82 154.702 173.864V170.898C152.545 172.27 151.109 174.675 151.109 177.421C151.109 181.69 154.57 185.152 158.84 185.152C159.18 185.152 159.513 185.122 159.842 185.08C161.372 186.796 163.593 187.883 166.073 187.883C170.687 187.883 174.428 184.143 174.428 179.529C174.428 176.562 172.877 173.962 170.545 172.48V175.685C171.434 176.718 171.975 178.059 171.975 179.528Z" fill="#1D1E21"/>
<path d="M166.073 185.429C169.332 185.429 171.974 182.787 171.974 179.528C171.974 178.058 171.434 176.717 170.545 175.685V177.928C170.545 180.091 168.775 181.86 166.613 181.86H165.533C163.37 181.86 161.601 180.091 161.601 177.928V175.685C160.712 176.718 160.172 178.059 160.172 179.528C160.172 182.787 162.814 185.429 166.073 185.429Z" fill="#3E404C"/>
<path d="M161.602 172.48V175.685V177.929C161.602 180.091 163.371 181.861 165.534 181.861H166.614C168.776 181.861 170.546 180.091 170.546 177.929V175.685V172.48V171.576H161.602V172.48Z" fill="#6D292F"/>
<path d="M161.257 170.062L161.602 171.576H170.546L172.07 164.893H160.078L161.257 170.062Z" fill="#8A333A"/>
<path d="M66.6055 61.5732L63.6974 46.4938C63.5727 45.6671 61.7585 34.6678 53.2744 31.6739L37.1295 26.4219L36.3551 28.9384L52.429 34.1669C59.5176 36.6688 61.082 46.8025 61.0966 46.9032L61.1012 46.9339L63.9243 61.5731H57.9274L53.9155 45.17C53.8111 44.7033 52.3175 38.3956 47.5505 36.3156C44.057 34.7911 39.0145 33.312 35.315 32.3195L34.5391 34.841C38.173 35.815 43.1533 37.2692 46.4978 38.7285C50.1033 40.3019 51.3359 45.6968 51.3475 45.749L55.2176 61.5731H55.1772L68.894 128.062C69.7955 132.432 73.9698 135.587 78.7317 135.587C78.9174 135.587 79.1041 135.582 79.2914 135.572L82.9296 135.384L68.7719 154.801C67.2616 156.666 66.9591 159.167 67.9846 161.341C69.0178 163.531 71.1645 164.892 73.5866 164.892H80.2351H92.2268H97.8986H153.528H160.082H172.073H180.515C181.474 164.892 182.251 164.115 182.251 163.156C182.251 162.197 181.474 161.42 180.515 161.42H73.5865C72.5061 161.42 71.5858 160.836 71.125 159.859C70.6641 158.882 70.7992 157.801 71.4863 156.967L84.9329 138.53L104.166 137.262C105.123 137.198 105.848 136.372 105.785 135.415C105.753 134.939 105.532 134.522 105.202 134.229L177.502 130.481C182.603 130.216 186.66 126.458 186.94 121.74L187.693 109.021L187.752 109.019L187.735 108.306L190.501 61.5732H66.6055ZM137.3 65.0456L138.102 86.0469H125.082L123.588 65.0456H137.3ZM124 107.952L112.742 108.228L110.275 88.6796H122.63L124 107.952ZM120.948 65.0456L122.442 86.0469H109.943L107.293 65.0456H120.948ZM78.741 88.6797H92.3829L95.8239 108.644L82.3225 108.975L78.741 88.6797ZM79.6606 109.041L75.778 109.136L71.833 88.6797H76.0676L79.6606 109.041ZM95.0545 88.6797H107.621L110.096 108.293L98.4843 108.578L95.0545 88.6797ZM104.639 65.0456L107.289 86.0469H94.6007L90.9808 65.0456H104.639ZM88.3092 65.0456L91.9291 86.0469H78.2764L74.5703 65.0456H88.3092ZM71.897 65.0456L75.6031 86.0469H71.3254L67.2752 65.0456H71.897ZM59.4386 65.0456H64.5939L68.6441 86.0469H63.7713L59.4386 65.0456ZM68.5711 109.313L64.3144 88.6797H69.1518L73.1095 109.202L68.5711 109.313ZM72.2944 127.361L69.1116 111.934L73.6149 111.823L77.5074 132.007C74.9097 131.568 72.7889 129.757 72.2944 127.361ZM80.1968 132.049L76.2836 111.757L80.1233 111.663L83.6888 131.867L80.1968 132.049ZM86.338 131.73L82.7852 111.598L96.2759 111.266L99.6839 131.038L86.338 131.73ZM102.332 130.901L98.9363 111.201L110.427 110.919L112.879 130.354L102.332 130.901ZM115.516 130.217L113.073 110.854L124.187 110.581L125.547 129.697L115.516 130.217ZM125.269 88.6797H138.202L138.924 107.585L126.635 107.887L125.269 88.6797ZM128.176 129.561L126.822 110.516L139.024 110.216L139.74 128.962L128.176 129.561ZM139.935 65.0456H153.674L154.014 86.0469H140.736L139.935 65.0456ZM140.837 88.6797H154.057L154.356 107.206L141.556 107.52L140.837 88.6797ZM142.369 128.825L141.656 110.151L154.399 109.838L154.696 128.186L142.369 128.825ZM170.112 127.387L157.327 128.05L157.031 109.774L170.598 109.44L170.112 127.387ZM170.669 106.805L156.988 107.141L156.69 88.6796H171.16L170.669 106.805ZM171.231 86.0469H156.647L156.307 65.0456H171.8L171.231 86.0469ZM183.473 121.534C183.299 124.485 180.654 126.84 177.322 127.013L172.894 127.243L173.378 109.372L184.209 109.106L183.473 121.534ZM184.365 106.469L173.45 106.737L173.939 88.6797H185.418L184.365 106.469ZM185.574 86.0469H174.01L174.579 65.0456H186.817L185.574 86.0469Z" fill="#8CA0B5"/>
<path d="M36.3563 28.938L37.1308 26.4215L37.5986 24.9009C37.5986 24.9009 31.7697 22.8305 25.9203 21.3055C22.8282 20.4992 19.9094 21.6222 18.9789 24.3555C16.8272 30.6761 21.7836 33.0811 21.7836 33.0811L33.8592 37.0544L34.5402 34.8407L35.3162 32.3192L36.3563 28.938Z" fill="#8A333A"/>
</svg>
