<svg width="229" height="229" viewBox="0 0 229 229" fill="none" xmlns="http://www.w3.org/2000/svg">
<path d="M169.511 192.777V190.502C168.611 191.549 168.062 192.909 168.062 194.399C168.062 197.545 170.493 200.119 173.579 200.358C173.091 199.239 172.817 198.006 172.817 196.708C172.817 196.706 172.818 196.703 172.818 196.7C170.947 196.374 169.511 194.737 169.511 192.777Z" fill="#2A2C35"/>
<path d="M169.508 192.777C169.508 194.737 170.943 196.375 172.814 196.701C172.817 193.453 174.515 190.608 177.068 188.986V187.995L176.689 186.336H169.508V187.252V190.502V192.777Z" fill="#561F26"/>
<path d="M175.4 180.672H168.219L169.51 186.336H176.691L175.4 180.672Z" fill="#6D292F"/>
<path d="M107.424 194.398C107.424 197.181 105.522 199.513 102.949 200.182C103.389 199.11 103.636 197.938 103.636 196.708C103.636 196.606 103.624 196.508 103.621 196.407C103.519 193.283 101.856 190.558 99.3819 188.985V192.497C100.356 193.628 100.948 195.098 100.948 196.708C100.948 200.279 98.0531 203.174 94.4821 203.174C90.9111 203.174 88.0162 200.279 88.0162 196.708C88.0162 195.098 88.6084 193.629 89.582 192.497V188.985C87.0279 190.609 85.3281 193.457 85.3281 196.708C85.3281 201.763 89.4265 205.862 94.482 205.862C97.166 205.862 99.5723 204.699 101.247 202.859C101.312 202.861 101.375 202.869 101.44 202.869C106.119 202.869 109.911 199.077 109.911 194.398C109.911 191.39 108.338 188.755 105.975 187.252V190.502C106.876 191.549 107.424 192.909 107.424 194.398Z" fill="#1D1E21"/>
<path d="M102.945 200.183C105.518 199.513 107.42 197.181 107.42 194.399C107.42 192.909 106.872 191.549 105.971 190.502V192.777C105.971 194.388 105.001 195.781 103.617 196.408C103.62 196.508 103.632 196.607 103.632 196.708C103.632 197.939 103.386 199.111 102.945 200.183Z" fill="#2A2C35"/>
<path d="M99.3828 187.995V188.986C101.857 190.559 103.52 193.283 103.621 196.408C105.005 195.781 105.976 194.388 105.976 192.777V190.502V187.252V186.336H99.7613L99.3828 187.995Z" fill="#561F26"/>
<path d="M99.7578 186.336H105.972L107.264 180.672H101.049L99.7578 186.336Z" fill="#6D292F"/>
<path d="M95.073 199.264H93.89C91.5202 199.264 89.5814 197.325 89.5814 194.955V192.497C88.6078 193.629 88.0156 195.098 88.0156 196.708C88.0156 200.279 90.9105 203.174 94.4815 203.174C98.0525 203.174 100.947 200.279 100.947 196.708C100.947 195.098 100.355 193.629 99.3813 192.497V194.955C99.3813 197.325 97.4427 199.264 95.073 199.264Z" fill="#3E404C"/>
<path d="M89.5781 194.955C89.5781 197.325 91.517 199.264 93.8867 199.264H95.0697C97.4395 199.264 99.3781 197.325 99.3781 194.955V192.497V188.986V187.995H89.5781V188.986V192.498V194.955Z" fill="#6D292F"/>
<path d="M99.762 186.336L101.053 180.672H87.9141L89.5838 187.995H99.3836L99.762 186.336Z" fill="#8A333A"/>
<path d="M188.432 196.708C188.432 200.279 185.537 203.174 181.966 203.174C178.395 203.174 175.501 200.279 175.501 196.708C175.501 195.098 176.093 193.629 177.066 192.497V188.985C174.514 190.608 172.816 193.452 172.813 196.7C172.813 196.703 172.813 196.705 172.813 196.708C172.813 198.006 173.087 199.239 173.574 200.358C170.488 200.119 168.058 197.545 168.058 194.398C168.058 192.909 168.606 191.549 169.507 190.502V187.252C167.143 188.755 165.57 191.39 165.57 194.398C165.57 199.077 169.363 202.869 174.041 202.869C174.414 202.869 174.778 202.837 175.139 202.79C176.815 204.671 179.249 205.862 181.966 205.862C187.022 205.862 191.12 201.764 191.12 196.708C191.12 193.457 189.421 190.609 186.866 188.985V192.497C187.84 193.628 188.432 195.098 188.432 196.708Z" fill="#1D1E21"/>
<path d="M181.966 203.174C185.537 203.174 188.432 200.279 188.432 196.708C188.432 195.098 187.839 193.629 186.866 192.497V194.955C186.866 197.325 184.927 199.264 182.557 199.264H181.374C179.005 199.264 177.066 197.325 177.066 194.955V192.497C176.092 193.629 175.5 195.098 175.5 196.708C175.5 200.279 178.395 203.174 181.966 203.174Z" fill="#3E404C"/>
<path d="M177.07 188.986V192.497V194.955C177.07 197.325 179.009 199.264 181.379 199.264H182.562C184.931 199.264 186.87 197.325 186.87 194.955V192.497V188.986V187.995H177.07V188.986Z" fill="#6D292F"/>
<path d="M176.69 186.336L177.068 187.995H186.868L188.538 180.672H175.398L176.69 186.336Z" fill="#8A333A"/>
<path d="M72.9787 67.4653L69.7924 50.9428C69.6558 50.0371 67.6679 37.9852 58.3719 34.7048L40.6821 28.9502L39.8335 31.7076L57.4457 37.4364C65.2126 40.1777 66.9266 51.2812 66.9427 51.3914L66.9477 51.4251L70.041 67.4651H63.4702L59.0744 49.4924C58.96 48.981 57.3234 42.0698 52.1003 39.7907C48.2725 38.1203 42.7475 36.4996 38.6939 35.4122L37.8438 38.1749C41.8255 39.2421 47.2823 40.8355 50.9468 42.4345C54.8973 44.1584 56.2479 50.0696 56.2607 50.1268L60.501 67.4651H60.4568L75.4862 140.317C76.474 145.105 81.0478 148.562 86.2654 148.562C86.4688 148.562 86.6734 148.556 86.8786 148.546L90.8649 148.339L75.3525 169.615C73.6977 171.658 73.3662 174.398 74.4898 176.78C75.6218 179.18 77.974 180.671 80.6279 180.671H87.9126H101.052H107.266H168.219H175.4H188.539H197.788C198.839 180.671 199.691 179.82 199.691 178.769C199.691 177.718 198.839 176.867 197.788 176.867H80.6278C79.4439 176.867 78.4357 176.227 77.9307 175.157C77.4257 174.086 77.5737 172.901 78.3266 171.988L93.0599 151.786L114.134 150.396C115.182 150.327 115.976 149.421 115.907 148.373C115.873 147.852 115.631 147.395 115.268 147.074L194.487 142.967C200.077 142.677 204.522 138.56 204.828 133.389L205.653 119.453L205.719 119.451L205.699 118.67L208.731 67.4653H72.9787ZM150.439 71.27L151.317 94.2809H137.051L135.414 71.27H150.439ZM135.866 118.282L123.53 118.585L120.827 97.1656H134.364L135.866 118.282ZM132.522 71.27L134.159 94.2809H120.463L117.56 71.27H132.522ZM86.2755 97.1658H101.223L104.993 119.04L90.1997 119.404L86.2755 97.1658ZM87.2831 119.475L83.029 119.58L78.7064 97.1658H83.3463L87.2831 119.475ZM104.15 97.1658H117.92L120.631 118.656L107.908 118.969L104.15 97.1658ZM114.652 71.27L117.556 94.2809H103.653L99.6866 71.27H114.652ZM96.7593 71.27L100.726 94.2809H85.7665L81.7058 71.27H96.7593ZM78.7766 71.27L82.8374 94.2809H78.1503L73.7126 71.27H78.7766ZM65.126 71.27H70.7746L75.2124 94.2809H69.8733L65.126 71.27ZM75.1324 119.774L70.4684 97.1658H75.7687L80.1051 119.652L75.1324 119.774ZM79.212 139.548L75.7247 122.645L80.6589 122.524L84.9239 144.64C82.0777 144.158 79.7539 142.174 79.212 139.548ZM87.8706 144.685L83.583 122.452L87.7901 122.349L91.6968 144.486L87.8706 144.685ZM94.5995 144.336L90.7067 122.277L105.488 121.914L109.223 143.578L94.5995 144.336ZM112.124 143.427L108.403 121.842L120.994 121.533L123.681 142.828L112.124 143.427ZM126.57 142.678L123.893 121.461L136.071 121.162L137.56 142.108L126.57 142.678ZM137.256 97.1658H151.427L152.217 117.88L138.753 118.211L137.256 97.1658ZM140.442 141.959L138.957 121.091L152.327 120.763L153.111 141.302L140.442 141.959ZM153.325 71.27H168.379L168.752 94.2809H154.203L153.325 71.27ZM154.314 97.1658H168.798L169.127 117.465L155.101 117.809L154.314 97.1658ZM155.992 141.153L155.211 120.692L169.174 120.349L169.499 140.453L155.992 141.153ZM186.39 139.577L172.381 140.303L172.057 120.278L186.922 119.913L186.39 139.577ZM187 117.026L172.011 117.394L171.683 97.1656H187.538L187 117.026ZM187.616 94.2809H171.637L171.265 71.27H188.24L187.616 94.2809ZM201.03 133.164C200.839 136.397 197.941 138.978 194.29 139.167L189.439 139.419L189.969 119.838L201.836 119.547L201.03 133.164ZM202.007 116.657L190.047 116.951L190.583 97.1658H203.161L202.007 116.657ZM203.332 94.2809H190.661L191.284 71.27H204.694L203.332 94.2809Z" fill="white"/>
<path d="M39.8289 31.7075L40.6774 28.9502L41.19 27.284C41.19 27.284 34.8033 25.0156 28.3942 23.3446C25.0061 22.4612 21.808 23.6917 20.7885 26.6865C18.431 33.612 23.8616 36.2471 23.8616 36.2471L37.0927 40.6006L37.839 38.175L38.6892 35.4122L39.8289 31.7075Z" fill="#8A333A"/>
</svg>
